G75*
%MOIN*%
%OFA0B0*%
%FSLAX25Y25*%
%IPPOS*%
%LPD*%
%AMOC8*
5,1,8,0,0,1.08239X$1,22.5*
%
%ADD10C,0.08674*%
%ADD11C,0.07700*%
%ADD12C,0.16900*%
%ADD13R,0.10249X0.10249*%
%ADD14C,0.08200*%
%ADD15C,0.03000*%
%ADD16C,0.04562*%
%ADD17R,0.04562X0.04562*%
%ADD18C,0.03775*%
D10*
X0036611Y0037673D03*
X0339760Y0037673D03*
X0036611Y0399878D03*
D11*
X0054800Y0295862D03*
X0094800Y0295862D03*
X0129800Y0295862D03*
X0169800Y0295862D03*
X0204800Y0295862D03*
X0244800Y0295862D03*
X0279800Y0295862D03*
X0319800Y0295862D03*
X0319800Y0220862D03*
X0279800Y0220862D03*
X0244800Y0220862D03*
X0204800Y0220862D03*
X0169800Y0220862D03*
X0129800Y0220862D03*
X0094800Y0220862D03*
X0054800Y0220862D03*
X0054800Y0145862D03*
X0094800Y0145862D03*
X0129800Y0145862D03*
X0169800Y0145862D03*
X0204800Y0145862D03*
X0244800Y0145862D03*
X0279800Y0145862D03*
X0319800Y0145862D03*
X0319800Y0070862D03*
X0279800Y0070862D03*
X0244800Y0070862D03*
X0204800Y0070862D03*
X0169800Y0070862D03*
X0129800Y0070862D03*
X0094800Y0070862D03*
X0054800Y0070862D03*
D12*
X0074800Y0070862D03*
X0074800Y0145862D03*
X0074800Y0220862D03*
X0074800Y0295862D03*
X0149800Y0295862D03*
X0149800Y0220862D03*
X0149800Y0145862D03*
X0149800Y0070862D03*
X0224800Y0070862D03*
X0224800Y0145862D03*
X0224800Y0220862D03*
X0224800Y0295862D03*
X0299800Y0295862D03*
X0299800Y0220862D03*
X0299800Y0145862D03*
X0299800Y0070862D03*
D13*
X0314800Y0060862D03*
X0289800Y0050862D03*
X0239800Y0060862D03*
X0214800Y0050862D03*
X0164800Y0060862D03*
X0139800Y0050862D03*
X0089800Y0060862D03*
X0064800Y0050862D03*
X0064800Y0125862D03*
X0089800Y0135862D03*
X0139800Y0125862D03*
X0164800Y0135862D03*
X0214800Y0125862D03*
X0239800Y0135862D03*
X0289800Y0125862D03*
X0314800Y0135862D03*
X0289800Y0200862D03*
X0314800Y0210862D03*
X0289800Y0275862D03*
X0314800Y0285862D03*
X0239800Y0285862D03*
X0214800Y0275862D03*
X0164800Y0285862D03*
X0139800Y0275862D03*
X0089800Y0285862D03*
X0064800Y0275862D03*
X0089800Y0210862D03*
X0064800Y0200862D03*
X0139800Y0200862D03*
X0164800Y0210862D03*
X0214800Y0200862D03*
X0239800Y0210862D03*
D14*
X0244131Y0344051D03*
X0254131Y0344051D03*
X0264131Y0344051D03*
X0274131Y0344051D03*
X0284131Y0344051D03*
X0294131Y0344051D03*
X0304131Y0344051D03*
X0314131Y0344051D03*
X0324131Y0344051D03*
X0334131Y0344051D03*
X0334131Y0404051D03*
X0324131Y0404051D03*
X0314131Y0404051D03*
X0304131Y0404051D03*
X0294131Y0404051D03*
X0284131Y0404051D03*
X0274131Y0404051D03*
X0264131Y0404051D03*
X0254131Y0404051D03*
X0244131Y0404051D03*
X0234131Y0404051D03*
X0224131Y0404051D03*
X0203371Y0395311D03*
X0202371Y0385311D03*
X0203371Y0375311D03*
X0224131Y0344051D03*
X0234131Y0344051D03*
D15*
X0202516Y0364839D03*
D16*
X0186217Y0332949D03*
X0176375Y0307358D03*
X0154721Y0325075D03*
X0135036Y0319169D03*
X0131099Y0327043D03*
X0133068Y0307358D03*
X0111414Y0332949D03*
X0101572Y0307358D03*
X0079918Y0325075D03*
X0135036Y0262083D03*
X0133068Y0250272D03*
X0133068Y0232555D03*
X0105509Y0250272D03*
X0101572Y0232555D03*
X0079918Y0250272D03*
X0137005Y0187280D03*
X0135036Y0175469D03*
X0133068Y0157752D03*
X0105509Y0175469D03*
X0101572Y0157752D03*
X0085823Y0175469D03*
X0135036Y0112476D03*
X0135036Y0100665D03*
X0105509Y0100665D03*
X0085823Y0100665D03*
X0176375Y0157752D03*
X0180312Y0175469D03*
X0207871Y0175469D03*
X0209839Y0187280D03*
X0207871Y0157752D03*
X0211808Y0112476D03*
X0207871Y0100665D03*
X0180312Y0100665D03*
X0251178Y0157752D03*
X0255115Y0175469D03*
X0280705Y0157752D03*
X0284642Y0175469D03*
X0286611Y0187280D03*
X0280705Y0232555D03*
X0282674Y0250272D03*
X0284642Y0262083D03*
X0255115Y0250272D03*
X0251178Y0232555D03*
X0209839Y0262083D03*
X0207871Y0250272D03*
X0207871Y0232555D03*
X0180312Y0250272D03*
X0176375Y0232555D03*
X0207871Y0307358D03*
X0211808Y0317201D03*
X0209839Y0329012D03*
X0251178Y0307358D03*
X0262989Y0313264D03*
X0280705Y0307358D03*
X0286611Y0319169D03*
X0284642Y0329012D03*
X0286611Y0112476D03*
X0284642Y0102634D03*
X0255115Y0100665D03*
D17*
X0322044Y0323106D03*
D18*
X0285823Y0335311D03*
M02*
