%
M48
M72
T01C0.01500
T02C0.01575
T03C0.02362
T04C0.04000
T05C0.06299
T06C0.06900
T07C0.07874
T08C0.16100
%
T01
X202516Y364839
T02
X285823Y335311
T03
X284642Y329012
X286611Y319169
X280705Y307358
X262989Y313264
X251178Y307358
X211808Y317201
X207871Y307358
X209839Y329012
X186217Y332949
X176375Y307358
X154721Y325075
X135036Y319169
X131099Y327043
X133068Y307358
X111414Y332949
X101572Y307358
X79918Y325075
X135036Y262083
X133068Y250272
X133068Y232555
X105509Y250272
X101572Y232555
X79918Y250272
X137005Y187280
X135036Y175469
X133068Y157752
X105509Y175469
X101572Y157752
X85823Y175469
X135036Y112476
X135036Y100665
X105509Y100665
X85823Y100665
X176375Y157752
X180312Y175469
X207871Y175469
X209839Y187280
X207871Y157752
X211808Y112476
X207871Y100665
X180312Y100665
X251178Y157752
X255115Y175469
X280705Y157752
X284642Y175469
X286611Y187280
X280705Y232555
X282674Y250272
X284642Y262083
X255115Y250272
X251178Y232555
X209839Y262083
X207871Y250272
X207871Y232555
X180312Y250272
X176375Y232555
X286611Y112476
X284642Y102634
X255115Y100665
X322044Y323106
T04
X324131Y344051
X334131Y344051
X314131Y344051
X304131Y344051
X294131Y344051
X284131Y344051
X274131Y344051
X264131Y344051
X254131Y344051
X244131Y344051
X234131Y344051
X224131Y344051
X203371Y375311
X202371Y385311
X203371Y395311
X224131Y404051
X234131Y404051
X244131Y404051
X254131Y404051
X264131Y404051
X274131Y404051
X284131Y404051
X294131Y404051
X304131Y404051
X314131Y404051
X324131Y404051
X334131Y404051
T05
X314800Y285862
X289800Y275862
X239800Y285862
X214800Y275862
X164800Y285862
X139800Y275862
X89800Y285862
X64800Y275862
X89800Y210862
X64800Y200862
X89800Y135862
X64800Y125862
X89800Y60862
X64800Y50862
X139800Y50862
X164800Y60862
X214800Y50862
X239800Y60862
X289800Y50862
X314800Y60862
X289800Y125862
X314800Y135862
X289800Y200862
X314800Y210862
X239800Y210862
X214800Y200862
X164800Y210862
X139800Y200862
X164800Y135862
X139800Y125862
X214800Y125862
X239800Y135862
T06
X244800Y145862
X279800Y145862
X319800Y145862
X319800Y70862
X279800Y70862
X244800Y70862
X204800Y70862
X169800Y70862
X129800Y70862
X94800Y70862
X54800Y70862
X54800Y145862
X94800Y145862
X129800Y145862
X169800Y145862
X204800Y145862
X204800Y220862
X169800Y220862
X129800Y220862
X94800Y220862
X54800Y220862
X54800Y295862
X94800Y295862
X129800Y295862
X169800Y295862
X204800Y295862
X244800Y295862
X279800Y295862
X319800Y295862
X319800Y220862
X279800Y220862
X244800Y220862
T07
X36611Y37673
X339760Y37673
X36611Y399878
T08
X74800Y295862
X74800Y220862
X74800Y145862
X74800Y70862
X149800Y70862
X149800Y145862
X149800Y220862
X149800Y295862
X224800Y295862
X224800Y220862
X224800Y145862
X224800Y70862
X299800Y70862
X299800Y145862
X299800Y220862
X299800Y295862
M30
