G75*
%MOIN*%
%OFA0B0*%
%FSLAX25Y25*%
%IPPOS*%
%LPD*%
%AMOC8*
5,1,8,0,0,1.08239X$1,22.5*
%
%ADD10C,0.07700*%
%ADD11C,0.16900*%
%ADD12R,0.10249X0.10249*%
%ADD13C,0.08200*%
%ADD14R,0.04343X0.06706*%
%ADD15R,0.05131X0.04737*%
%ADD16R,0.09068X0.06706*%
%ADD17C,0.04562*%
%ADD18R,0.04562X0.04562*%
%ADD19C,0.03775*%
D10*
X0031800Y0049674D03*
X0071800Y0049674D03*
X0106800Y0049674D03*
X0146800Y0049674D03*
X0181800Y0049674D03*
X0221800Y0049674D03*
X0256800Y0049674D03*
X0296800Y0049674D03*
X0296800Y0124674D03*
X0256800Y0124674D03*
X0221800Y0124674D03*
X0181800Y0124674D03*
X0146800Y0124674D03*
X0106800Y0124674D03*
X0071800Y0124674D03*
X0031800Y0124674D03*
X0031800Y0199674D03*
X0071800Y0199674D03*
X0106800Y0199674D03*
X0146800Y0199674D03*
X0181800Y0199674D03*
X0221800Y0199674D03*
X0256800Y0199674D03*
X0296800Y0199674D03*
X0296800Y0274674D03*
X0256800Y0274674D03*
X0221800Y0274674D03*
X0181800Y0274674D03*
X0146800Y0274674D03*
X0106800Y0274674D03*
X0071800Y0274674D03*
X0031800Y0274674D03*
D11*
X0051800Y0274674D03*
X0051800Y0199674D03*
X0051800Y0124674D03*
X0051800Y0049674D03*
X0126800Y0049674D03*
X0126800Y0124674D03*
X0126800Y0199674D03*
X0126800Y0274674D03*
X0201800Y0274674D03*
X0201800Y0199674D03*
X0201800Y0124674D03*
X0201800Y0049674D03*
X0276800Y0049674D03*
X0276800Y0124674D03*
X0276800Y0199674D03*
X0276800Y0274674D03*
D12*
X0041800Y0029674D03*
X0066800Y0039674D03*
X0116800Y0029674D03*
X0141800Y0039674D03*
X0191800Y0029674D03*
X0216800Y0039674D03*
X0266800Y0029674D03*
X0291800Y0039674D03*
X0266800Y0104674D03*
X0291800Y0114674D03*
X0266800Y0179674D03*
X0291800Y0189674D03*
X0266800Y0254674D03*
X0291800Y0264674D03*
X0216800Y0264674D03*
X0191800Y0254674D03*
X0141800Y0264674D03*
X0116800Y0254674D03*
X0066800Y0264674D03*
X0041800Y0254674D03*
X0066800Y0189674D03*
X0041800Y0179674D03*
X0066800Y0114674D03*
X0041800Y0104674D03*
X0116800Y0104674D03*
X0141800Y0114674D03*
X0191800Y0104674D03*
X0216800Y0114674D03*
X0191800Y0179674D03*
X0216800Y0189674D03*
X0141800Y0189674D03*
X0116800Y0179674D03*
D13*
X0201131Y0322863D03*
X0211131Y0322863D03*
X0221131Y0322863D03*
X0231131Y0322863D03*
X0241131Y0322863D03*
X0251131Y0322863D03*
X0261131Y0322863D03*
X0271131Y0322863D03*
X0281131Y0322863D03*
X0291131Y0322863D03*
X0301131Y0322863D03*
X0311131Y0322863D03*
X0311131Y0382863D03*
X0301131Y0382863D03*
X0291131Y0382863D03*
X0281131Y0382863D03*
X0271131Y0382863D03*
X0261131Y0382863D03*
X0251131Y0382863D03*
X0241131Y0382863D03*
X0231131Y0382863D03*
X0221131Y0382863D03*
X0211131Y0382863D03*
X0201131Y0382863D03*
X0180371Y0374123D03*
X0179371Y0364123D03*
X0180371Y0354123D03*
D14*
X0195304Y0313060D03*
X0208296Y0313060D03*
X0208296Y0293769D03*
X0195304Y0293769D03*
X0195304Y0238257D03*
X0208296Y0238257D03*
X0208296Y0218965D03*
X0195304Y0218965D03*
X0195304Y0163454D03*
X0208296Y0163454D03*
X0208296Y0144162D03*
X0195304Y0144162D03*
X0195304Y0088650D03*
X0208296Y0088650D03*
X0208296Y0069359D03*
X0195304Y0069359D03*
X0133296Y0069359D03*
X0120304Y0069359D03*
X0120304Y0088650D03*
X0133296Y0088650D03*
X0133296Y0144162D03*
X0120304Y0144162D03*
X0120304Y0163454D03*
X0133296Y0163454D03*
X0133296Y0218965D03*
X0120304Y0218965D03*
X0120304Y0238257D03*
X0133296Y0238257D03*
X0133296Y0293769D03*
X0120304Y0293769D03*
X0120304Y0313060D03*
X0133296Y0313060D03*
X0058296Y0313060D03*
X0045304Y0313060D03*
X0045304Y0293769D03*
X0058296Y0293769D03*
X0058296Y0238257D03*
X0045304Y0238257D03*
X0045304Y0218965D03*
X0058296Y0218965D03*
X0058296Y0163454D03*
X0045304Y0163454D03*
X0045304Y0144162D03*
X0058296Y0144162D03*
X0058296Y0088650D03*
X0045304Y0088650D03*
X0045304Y0069359D03*
X0058296Y0069359D03*
X0270304Y0069359D03*
X0283296Y0069359D03*
X0283296Y0088650D03*
X0270304Y0088650D03*
X0270304Y0144162D03*
X0283296Y0144162D03*
X0283296Y0163454D03*
X0270304Y0163454D03*
X0270304Y0218965D03*
X0283296Y0218965D03*
X0283296Y0238257D03*
X0270304Y0238257D03*
X0270304Y0293769D03*
X0283296Y0293769D03*
X0283296Y0313060D03*
X0270304Y0313060D03*
D15*
X0255146Y0311761D03*
X0248454Y0311761D03*
X0248454Y0236957D03*
X0255146Y0236957D03*
X0255146Y0162154D03*
X0248454Y0162154D03*
X0248454Y0087351D03*
X0255146Y0087351D03*
X0180343Y0087351D03*
X0173650Y0087351D03*
X0173650Y0162154D03*
X0180343Y0162154D03*
X0180343Y0236957D03*
X0173650Y0236957D03*
X0173650Y0311761D03*
X0180343Y0311761D03*
X0105540Y0311761D03*
X0098847Y0311761D03*
X0098847Y0236957D03*
X0105540Y0236957D03*
X0105540Y0162154D03*
X0098847Y0162154D03*
X0098847Y0087351D03*
X0105540Y0087351D03*
X0030737Y0087351D03*
X0024044Y0087351D03*
X0024044Y0162154D03*
X0030737Y0162154D03*
X0030737Y0236957D03*
X0024044Y0236957D03*
X0024044Y0311761D03*
X0030737Y0311761D03*
D16*
X0090383Y0283414D03*
X0090383Y0269241D03*
X0090383Y0208611D03*
X0090383Y0194438D03*
X0090383Y0133808D03*
X0090383Y0119635D03*
X0090383Y0062942D03*
X0090383Y0048769D03*
X0165186Y0048769D03*
X0165186Y0062942D03*
X0165186Y0119635D03*
X0165186Y0133808D03*
X0165186Y0194438D03*
X0165186Y0208611D03*
X0165186Y0269241D03*
X0165186Y0283414D03*
X0239989Y0283414D03*
X0239989Y0269241D03*
X0239989Y0208611D03*
X0239989Y0194438D03*
X0239989Y0133808D03*
X0239989Y0119635D03*
X0239989Y0062942D03*
X0239989Y0048769D03*
X0314792Y0048769D03*
X0314792Y0062942D03*
X0314792Y0119635D03*
X0314792Y0133808D03*
X0314792Y0194438D03*
X0314792Y0208611D03*
X0314792Y0269241D03*
X0314792Y0283414D03*
D17*
X0263611Y0297981D03*
X0261643Y0307824D03*
X0257706Y0286170D03*
X0239989Y0292076D03*
X0228178Y0286170D03*
X0261643Y0240894D03*
X0259674Y0229083D03*
X0257706Y0211367D03*
X0232115Y0229083D03*
X0228178Y0211367D03*
X0263611Y0166091D03*
X0261643Y0154280D03*
X0257706Y0136564D03*
X0232115Y0154280D03*
X0228178Y0136564D03*
X0263611Y0091288D03*
X0261643Y0081446D03*
X0232115Y0079477D03*
X0188808Y0091288D03*
X0184871Y0079477D03*
X0157312Y0079477D03*
X0112036Y0079477D03*
X0112036Y0091288D03*
X0082509Y0079477D03*
X0062824Y0079477D03*
X0078572Y0136564D03*
X0082509Y0154280D03*
X0062824Y0154280D03*
X0078572Y0211367D03*
X0082509Y0229083D03*
X0056918Y0229083D03*
X0078572Y0286170D03*
X0056918Y0303887D03*
X0088414Y0311761D03*
X0108099Y0305855D03*
X0112036Y0297981D03*
X0110068Y0286170D03*
X0131721Y0303887D03*
X0153375Y0286170D03*
X0163217Y0311761D03*
X0186839Y0307824D03*
X0188808Y0296013D03*
X0184871Y0286170D03*
X0186839Y0240894D03*
X0184871Y0229083D03*
X0184871Y0211367D03*
X0157312Y0229083D03*
X0153375Y0211367D03*
X0186839Y0166091D03*
X0184871Y0154280D03*
X0184871Y0136564D03*
X0157312Y0154280D03*
X0153375Y0136564D03*
X0114005Y0166091D03*
X0112036Y0154280D03*
X0110068Y0136564D03*
X0110068Y0211367D03*
X0110068Y0229083D03*
X0112036Y0240894D03*
D18*
X0299044Y0301918D03*
D19*
X0262824Y0314123D03*
M02*
