G75*
%MOIN*%
%OFA0B0*%
%FSLAX25Y25*%
%IPPOS*%
%LPD*%
%AMOC8*
5,1,8,0,0,1.08239X$1,22.5*
%
%ADD10R,0.09449X0.09449*%
%ADD11C,0.07400*%
%ADD12C,0.02900*%
%ADD13C,0.01600*%
%ADD14C,0.03762*%
%ADD15R,0.03762X0.03762*%
%ADD16C,0.02975*%
D10*
X0041800Y0029674D03*
X0066800Y0039674D03*
X0116800Y0029674D03*
X0141800Y0039674D03*
X0191800Y0029674D03*
X0216800Y0039674D03*
X0266800Y0029674D03*
X0291800Y0039674D03*
X0266800Y0104674D03*
X0291800Y0114674D03*
X0266800Y0179674D03*
X0291800Y0189674D03*
X0266800Y0254674D03*
X0291800Y0264674D03*
X0216800Y0264674D03*
X0191800Y0254674D03*
X0141800Y0264674D03*
X0116800Y0254674D03*
X0066800Y0264674D03*
X0041800Y0254674D03*
X0066800Y0189674D03*
X0041800Y0179674D03*
X0066800Y0114674D03*
X0041800Y0104674D03*
X0116800Y0104674D03*
X0141800Y0114674D03*
X0191800Y0104674D03*
X0216800Y0114674D03*
X0191800Y0179674D03*
X0216800Y0189674D03*
X0141800Y0189674D03*
X0116800Y0179674D03*
D11*
X0201131Y0322863D03*
X0211131Y0322863D03*
X0221131Y0322863D03*
X0231131Y0322863D03*
X0241131Y0322863D03*
X0251131Y0322863D03*
X0261131Y0322863D03*
X0271131Y0322863D03*
X0281131Y0322863D03*
X0291131Y0322863D03*
X0301131Y0322863D03*
X0311131Y0322863D03*
X0311131Y0382863D03*
X0301131Y0382863D03*
X0291131Y0382863D03*
X0281131Y0382863D03*
X0271131Y0382863D03*
X0261131Y0382863D03*
X0251131Y0382863D03*
X0241131Y0382863D03*
X0231131Y0382863D03*
X0221131Y0382863D03*
X0211131Y0382863D03*
X0201131Y0382863D03*
X0180371Y0374123D03*
X0179371Y0364123D03*
X0180371Y0354123D03*
D12*
X0179517Y0343650D03*
D13*
X0319902Y0011068D02*
X0010470Y0011068D01*
X0012068Y0009470D02*
X0318303Y0009470D01*
X0316705Y0007871D02*
X0013667Y0007871D01*
X0014564Y0006974D02*
X0004100Y0017438D01*
X0004100Y0377737D01*
X0014564Y0388201D01*
X0279760Y0388201D01*
X0279019Y0387960D01*
X0278248Y0387567D01*
X0277548Y0387058D01*
X0276936Y0386446D01*
X0276427Y0385746D01*
X0276034Y0384974D01*
X0275921Y0384626D01*
X0275454Y0385752D01*
X0274020Y0387187D01*
X0272145Y0387963D01*
X0270116Y0387963D01*
X0268242Y0387187D01*
X0266807Y0385752D01*
X0266131Y0384119D01*
X0265454Y0385752D01*
X0264020Y0387187D01*
X0262145Y0387963D01*
X0260116Y0387963D01*
X0258242Y0387187D01*
X0256807Y0385752D01*
X0256131Y0384119D01*
X0255454Y0385752D01*
X0254020Y0387187D01*
X0252145Y0387963D01*
X0250116Y0387963D01*
X0248242Y0387187D01*
X0246807Y0385752D01*
X0246131Y0384119D01*
X0245454Y0385752D01*
X0244020Y0387187D01*
X0242145Y0387963D01*
X0240116Y0387963D01*
X0238242Y0387187D01*
X0236807Y0385752D01*
X0236131Y0384119D01*
X0235454Y0385752D01*
X0234020Y0387187D01*
X0232145Y0387963D01*
X0230116Y0387963D01*
X0228242Y0387187D01*
X0226807Y0385752D01*
X0226131Y0384119D01*
X0225454Y0385752D01*
X0224020Y0387187D01*
X0222145Y0387963D01*
X0220116Y0387963D01*
X0218242Y0387187D01*
X0216807Y0385752D01*
X0216131Y0384119D01*
X0215454Y0385752D01*
X0214020Y0387187D01*
X0212145Y0387963D01*
X0210116Y0387963D01*
X0208242Y0387187D01*
X0206807Y0385752D01*
X0206131Y0384119D01*
X0205454Y0385752D01*
X0204020Y0387187D01*
X0202145Y0387963D01*
X0200116Y0387963D01*
X0198242Y0387187D01*
X0196807Y0385752D01*
X0196031Y0383877D01*
X0196031Y0381849D01*
X0196807Y0379974D01*
X0198242Y0378539D01*
X0200116Y0377763D01*
X0202145Y0377763D01*
X0204020Y0378539D01*
X0205454Y0379974D01*
X0206131Y0381607D01*
X0206807Y0379974D01*
X0208242Y0378539D01*
X0210116Y0377763D01*
X0212145Y0377763D01*
X0214020Y0378539D01*
X0215454Y0379974D01*
X0216131Y0381607D01*
X0216807Y0379974D01*
X0218242Y0378539D01*
X0220116Y0377763D01*
X0222145Y0377763D01*
X0224020Y0378539D01*
X0225454Y0379974D01*
X0226131Y0381607D01*
X0226807Y0379974D01*
X0228242Y0378539D01*
X0230116Y0377763D01*
X0232145Y0377763D01*
X0234020Y0378539D01*
X0235454Y0379974D01*
X0236131Y0381607D01*
X0236807Y0379974D01*
X0238242Y0378539D01*
X0240116Y0377763D01*
X0242145Y0377763D01*
X0244020Y0378539D01*
X0245454Y0379974D01*
X0246131Y0381607D01*
X0246807Y0379974D01*
X0248242Y0378539D01*
X0250116Y0377763D01*
X0252145Y0377763D01*
X0254020Y0378539D01*
X0255454Y0379974D01*
X0256131Y0381607D01*
X0256807Y0379974D01*
X0258242Y0378539D01*
X0260116Y0377763D01*
X0262145Y0377763D01*
X0264020Y0378539D01*
X0265454Y0379974D01*
X0266131Y0381607D01*
X0266807Y0379974D01*
X0268242Y0378539D01*
X0270116Y0377763D01*
X0272145Y0377763D01*
X0274020Y0378539D01*
X0275454Y0379974D01*
X0275921Y0381100D01*
X0276034Y0380752D01*
X0276427Y0379980D01*
X0276936Y0379280D01*
X0277548Y0378668D01*
X0278248Y0378159D01*
X0279019Y0377766D01*
X0279843Y0377498D01*
X0280698Y0377363D01*
X0280931Y0377363D01*
X0280931Y0382663D01*
X0281331Y0382663D01*
X0281331Y0383063D01*
X0286631Y0383063D01*
X0290931Y0383063D01*
X0290931Y0382663D01*
X0291331Y0382663D01*
X0291331Y0377363D01*
X0291564Y0377363D01*
X0292419Y0377498D01*
X0293242Y0377766D01*
X0294013Y0378159D01*
X0294714Y0378668D01*
X0295326Y0379280D01*
X0295835Y0379980D01*
X0296228Y0380752D01*
X0296341Y0381100D01*
X0296807Y0379974D01*
X0298242Y0378539D01*
X0300116Y0377763D01*
X0302145Y0377763D01*
X0304020Y0378539D01*
X0305454Y0379974D01*
X0306131Y0381607D01*
X0306807Y0379974D01*
X0308242Y0378539D01*
X0310116Y0377763D01*
X0312145Y0377763D01*
X0314020Y0378539D01*
X0315454Y0379974D01*
X0316231Y0381849D01*
X0316231Y0383877D01*
X0315454Y0385752D01*
X0314020Y0387187D01*
X0312145Y0387963D01*
X0310116Y0387963D01*
X0308242Y0387187D01*
X0306807Y0385752D01*
X0306131Y0384119D01*
X0305454Y0385752D01*
X0304020Y0387187D01*
X0302145Y0387963D01*
X0300116Y0387963D01*
X0298242Y0387187D01*
X0296807Y0385752D01*
X0296341Y0384626D01*
X0296228Y0384974D01*
X0295835Y0385746D01*
X0295326Y0386446D01*
X0294714Y0387058D01*
X0294013Y0387567D01*
X0293242Y0387960D01*
X0292501Y0388201D01*
X0326272Y0388201D01*
X0326272Y0017438D01*
X0315808Y0006974D01*
X0014564Y0006974D01*
X0008871Y0012667D02*
X0321501Y0012667D01*
X0323099Y0014265D02*
X0007273Y0014265D01*
X0005674Y0015864D02*
X0324698Y0015864D01*
X0326272Y0017462D02*
X0004100Y0017462D01*
X0004100Y0019061D02*
X0021704Y0019061D01*
X0021254Y0019511D02*
X0022542Y0018222D01*
X0282239Y0018222D01*
X0292711Y0028694D01*
X0294000Y0029983D01*
X0294000Y0033550D01*
X0297104Y0033550D01*
X0297924Y0034370D01*
X0297924Y0043924D01*
X0297944Y0043924D01*
X0300057Y0044799D01*
X0301675Y0046417D01*
X0302550Y0048530D01*
X0302550Y0050818D01*
X0301675Y0052931D01*
X0300057Y0054549D01*
X0297944Y0055424D01*
X0295656Y0055424D01*
X0293543Y0054549D01*
X0291925Y0052931D01*
X0291050Y0050818D01*
X0291050Y0048530D01*
X0291925Y0046417D01*
X0292544Y0045798D01*
X0286496Y0045798D01*
X0286470Y0045772D01*
X0287150Y0048311D01*
X0287150Y0051037D01*
X0286445Y0053669D01*
X0285082Y0056029D01*
X0283155Y0057956D01*
X0280795Y0059319D01*
X0278163Y0060024D01*
X0275437Y0060024D01*
X0272805Y0059319D01*
X0270445Y0057956D01*
X0268518Y0056029D01*
X0267155Y0053669D01*
X0266450Y0051037D01*
X0266450Y0048311D01*
X0267155Y0045679D01*
X0268518Y0043319D01*
X0270445Y0041392D01*
X0272805Y0040029D01*
X0275437Y0039324D01*
X0278163Y0039324D01*
X0280795Y0040029D01*
X0283155Y0041392D01*
X0285082Y0043319D01*
X0285676Y0044347D01*
X0285676Y0034370D01*
X0286496Y0033550D01*
X0289600Y0033550D01*
X0289600Y0031806D01*
X0280416Y0022622D01*
X0211836Y0022622D01*
X0218567Y0029353D01*
X0218567Y0033550D01*
X0222104Y0033550D01*
X0222924Y0034370D01*
X0222924Y0043924D01*
X0222944Y0043924D01*
X0225057Y0044799D01*
X0226675Y0046417D01*
X0227550Y0048530D01*
X0227550Y0050818D01*
X0226675Y0052931D01*
X0225057Y0054549D01*
X0222944Y0055424D01*
X0220656Y0055424D01*
X0218543Y0054549D01*
X0216925Y0052931D01*
X0216050Y0050818D01*
X0216050Y0048530D01*
X0216925Y0046417D01*
X0217544Y0045798D01*
X0211496Y0045798D01*
X0211470Y0045772D01*
X0212150Y0048311D01*
X0212150Y0051037D01*
X0211445Y0053669D01*
X0210082Y0056029D01*
X0208155Y0057956D01*
X0205795Y0059319D01*
X0203163Y0060024D01*
X0200437Y0060024D01*
X0197805Y0059319D01*
X0195445Y0057956D01*
X0193518Y0056029D01*
X0192155Y0053669D01*
X0191450Y0051037D01*
X0191450Y0048311D01*
X0192155Y0045679D01*
X0193518Y0043319D01*
X0195445Y0041392D01*
X0197805Y0040029D01*
X0200437Y0039324D01*
X0203163Y0039324D01*
X0205795Y0040029D01*
X0208155Y0041392D01*
X0210082Y0043319D01*
X0210676Y0044347D01*
X0210676Y0034370D01*
X0211496Y0033550D01*
X0214167Y0033550D01*
X0214167Y0031176D01*
X0205613Y0022622D01*
X0137033Y0022622D01*
X0143764Y0029353D01*
X0143764Y0033550D01*
X0147104Y0033550D01*
X0147924Y0034370D01*
X0147924Y0043924D01*
X0147944Y0043924D01*
X0150057Y0044799D01*
X0151675Y0046417D01*
X0152550Y0048530D01*
X0152550Y0050818D01*
X0151675Y0052931D01*
X0150057Y0054549D01*
X0147944Y0055424D01*
X0145656Y0055424D01*
X0143543Y0054549D01*
X0141925Y0052931D01*
X0141050Y0050818D01*
X0141050Y0048530D01*
X0141925Y0046417D01*
X0142544Y0045798D01*
X0136496Y0045798D01*
X0136470Y0045772D01*
X0137150Y0048311D01*
X0137150Y0051037D01*
X0136445Y0053669D01*
X0135082Y0056029D01*
X0133155Y0057956D01*
X0130795Y0059319D01*
X0128163Y0060024D01*
X0125437Y0060024D01*
X0122805Y0059319D01*
X0120445Y0057956D01*
X0118518Y0056029D01*
X0117155Y0053669D01*
X0116450Y0051037D01*
X0116450Y0048311D01*
X0117155Y0045679D01*
X0118518Y0043319D01*
X0120445Y0041392D01*
X0122805Y0040029D01*
X0125437Y0039324D01*
X0128163Y0039324D01*
X0130795Y0040029D01*
X0133155Y0041392D01*
X0135082Y0043319D01*
X0135676Y0044347D01*
X0135676Y0034370D01*
X0136496Y0033550D01*
X0139364Y0033550D01*
X0139364Y0031176D01*
X0130810Y0022622D01*
X0062229Y0022622D01*
X0068961Y0029353D01*
X0068961Y0033550D01*
X0072104Y0033550D01*
X0072924Y0034370D01*
X0072924Y0043924D01*
X0072944Y0043924D01*
X0075057Y0044799D01*
X0076675Y0046417D01*
X0077550Y0048530D01*
X0077550Y0050818D01*
X0076675Y0052931D01*
X0075057Y0054549D01*
X0072944Y0055424D01*
X0070656Y0055424D01*
X0068543Y0054549D01*
X0066925Y0052931D01*
X0066050Y0050818D01*
X0066050Y0048530D01*
X0066925Y0046417D01*
X0067544Y0045798D01*
X0061496Y0045798D01*
X0061470Y0045772D01*
X0062150Y0048311D01*
X0062150Y0051037D01*
X0061445Y0053669D01*
X0060082Y0056029D01*
X0058155Y0057956D01*
X0055795Y0059319D01*
X0053163Y0060024D01*
X0050437Y0060024D01*
X0047805Y0059319D01*
X0045445Y0057956D01*
X0043518Y0056029D01*
X0042155Y0053669D01*
X0041450Y0051037D01*
X0041450Y0048311D01*
X0042155Y0045679D01*
X0043518Y0043319D01*
X0045445Y0041392D01*
X0047805Y0040029D01*
X0050437Y0039324D01*
X0053163Y0039324D01*
X0055795Y0040029D01*
X0058155Y0041392D01*
X0060082Y0043319D01*
X0060676Y0044347D01*
X0060676Y0034370D01*
X0061496Y0033550D01*
X0064561Y0033550D01*
X0064561Y0031176D01*
X0056007Y0022622D01*
X0024365Y0022622D01*
X0017780Y0029207D01*
X0017780Y0103693D01*
X0027159Y0094314D01*
X0028448Y0093025D01*
X0073260Y0093025D01*
X0072435Y0092199D01*
X0062993Y0082758D01*
X0062171Y0082758D01*
X0060965Y0082259D01*
X0060042Y0081336D01*
X0059543Y0080130D01*
X0059543Y0078825D01*
X0060042Y0077619D01*
X0060965Y0076696D01*
X0062171Y0076196D01*
X0063476Y0076196D01*
X0064682Y0076696D01*
X0065605Y0077619D01*
X0066105Y0078825D01*
X0066105Y0079647D01*
X0075546Y0089088D01*
X0109596Y0089088D01*
X0110178Y0088507D01*
X0111384Y0088007D01*
X0112689Y0088007D01*
X0113895Y0088507D01*
X0114476Y0089088D01*
X0186368Y0089088D01*
X0186949Y0088507D01*
X0188155Y0088007D01*
X0189461Y0088007D01*
X0190666Y0088507D01*
X0191248Y0089088D01*
X0261171Y0089088D01*
X0261752Y0088507D01*
X0262958Y0088007D01*
X0264264Y0088007D01*
X0265470Y0088507D01*
X0266393Y0089430D01*
X0266892Y0090636D01*
X0266892Y0091941D01*
X0266443Y0093025D01*
X0282239Y0093025D01*
X0292711Y0103498D01*
X0294000Y0104786D01*
X0294000Y0108550D01*
X0297104Y0108550D01*
X0297924Y0109370D01*
X0297924Y0118924D01*
X0297944Y0118924D01*
X0300057Y0119799D01*
X0301675Y0121417D01*
X0302550Y0123530D01*
X0302550Y0125818D01*
X0301675Y0127931D01*
X0300057Y0129549D01*
X0297944Y0130424D01*
X0295656Y0130424D01*
X0293543Y0129549D01*
X0291925Y0127931D01*
X0291050Y0125818D01*
X0291050Y0123530D01*
X0291925Y0121417D01*
X0292544Y0120798D01*
X0286496Y0120798D01*
X0286470Y0120772D01*
X0287150Y0123311D01*
X0287150Y0126037D01*
X0286445Y0128669D01*
X0285082Y0131029D01*
X0283155Y0132956D01*
X0280795Y0134319D01*
X0278163Y0135024D01*
X0275437Y0135024D01*
X0272805Y0134319D01*
X0270445Y0132956D01*
X0268518Y0131029D01*
X0267155Y0128669D01*
X0266450Y0126037D01*
X0266450Y0123311D01*
X0267155Y0120679D01*
X0268518Y0118319D01*
X0270445Y0116392D01*
X0272805Y0115029D01*
X0275437Y0114324D01*
X0278163Y0114324D01*
X0280795Y0115029D01*
X0283155Y0116392D01*
X0285082Y0118319D01*
X0285676Y0119347D01*
X0285676Y0109370D01*
X0286496Y0108550D01*
X0289600Y0108550D01*
X0289600Y0106609D01*
X0280416Y0097425D01*
X0211836Y0097425D01*
X0218567Y0104156D01*
X0218567Y0108550D01*
X0222104Y0108550D01*
X0222924Y0109370D01*
X0222924Y0118924D01*
X0222944Y0118924D01*
X0225057Y0119799D01*
X0226675Y0121417D01*
X0227550Y0123530D01*
X0227550Y0125818D01*
X0226675Y0127931D01*
X0225057Y0129549D01*
X0222944Y0130424D01*
X0220656Y0130424D01*
X0218543Y0129549D01*
X0216925Y0127931D01*
X0216050Y0125818D01*
X0216050Y0123530D01*
X0216925Y0121417D01*
X0217544Y0120798D01*
X0211496Y0120798D01*
X0211470Y0120772D01*
X0212150Y0123311D01*
X0212150Y0126037D01*
X0211445Y0128669D01*
X0210082Y0131029D01*
X0208155Y0132956D01*
X0205795Y0134319D01*
X0203163Y0135024D01*
X0200437Y0135024D01*
X0197805Y0134319D01*
X0195445Y0132956D01*
X0193518Y0131029D01*
X0192155Y0128669D01*
X0191450Y0126037D01*
X0191450Y0123311D01*
X0192155Y0120679D01*
X0193518Y0118319D01*
X0195445Y0116392D01*
X0197805Y0115029D01*
X0200437Y0114324D01*
X0203163Y0114324D01*
X0205795Y0115029D01*
X0208155Y0116392D01*
X0210082Y0118319D01*
X0210676Y0119347D01*
X0210676Y0109370D01*
X0211496Y0108550D01*
X0214167Y0108550D01*
X0214167Y0105979D01*
X0205613Y0097425D01*
X0137033Y0097425D01*
X0143764Y0104156D01*
X0143764Y0108550D01*
X0147104Y0108550D01*
X0147924Y0109370D01*
X0147924Y0118924D01*
X0147944Y0118924D01*
X0150057Y0119799D01*
X0151675Y0121417D01*
X0152550Y0123530D01*
X0152550Y0125818D01*
X0151675Y0127931D01*
X0150057Y0129549D01*
X0147944Y0130424D01*
X0145656Y0130424D01*
X0143543Y0129549D01*
X0141925Y0127931D01*
X0141050Y0125818D01*
X0141050Y0123530D01*
X0141925Y0121417D01*
X0142544Y0120798D01*
X0136496Y0120798D01*
X0136470Y0120772D01*
X0137150Y0123311D01*
X0137150Y0126037D01*
X0136445Y0128669D01*
X0135082Y0131029D01*
X0133155Y0132956D01*
X0130795Y0134319D01*
X0128163Y0135024D01*
X0125437Y0135024D01*
X0122805Y0134319D01*
X0120445Y0132956D01*
X0118518Y0131029D01*
X0117155Y0128669D01*
X0116450Y0126037D01*
X0116450Y0123311D01*
X0117155Y0120679D01*
X0118518Y0118319D01*
X0120445Y0116392D01*
X0122805Y0115029D01*
X0125437Y0114324D01*
X0128163Y0114324D01*
X0130795Y0115029D01*
X0133155Y0116392D01*
X0135082Y0118319D01*
X0135676Y0119347D01*
X0135676Y0109370D01*
X0136496Y0108550D01*
X0139364Y0108550D01*
X0139364Y0105979D01*
X0130810Y0097425D01*
X0062229Y0097425D01*
X0068961Y0104156D01*
X0068961Y0108550D01*
X0072104Y0108550D01*
X0072924Y0109370D01*
X0072924Y0118924D01*
X0072944Y0118924D01*
X0075057Y0119799D01*
X0076675Y0121417D01*
X0077550Y0123530D01*
X0077550Y0125818D01*
X0076675Y0127931D01*
X0075057Y0129549D01*
X0072944Y0130424D01*
X0070656Y0130424D01*
X0068543Y0129549D01*
X0066925Y0127931D01*
X0066050Y0125818D01*
X0066050Y0123530D01*
X0066925Y0121417D01*
X0067544Y0120798D01*
X0061496Y0120798D01*
X0061470Y0120772D01*
X0062150Y0123311D01*
X0062150Y0126037D01*
X0061445Y0128669D01*
X0060082Y0131029D01*
X0058155Y0132956D01*
X0055795Y0134319D01*
X0053163Y0135024D01*
X0050437Y0135024D01*
X0047805Y0134319D01*
X0045445Y0132956D01*
X0043518Y0131029D01*
X0042155Y0128669D01*
X0041450Y0126037D01*
X0041450Y0123311D01*
X0042155Y0120679D01*
X0043518Y0118319D01*
X0045445Y0116392D01*
X0047805Y0115029D01*
X0050437Y0114324D01*
X0053163Y0114324D01*
X0055795Y0115029D01*
X0058155Y0116392D01*
X0060082Y0118319D01*
X0060676Y0119347D01*
X0060676Y0109370D01*
X0061496Y0108550D01*
X0064561Y0108550D01*
X0064561Y0105979D01*
X0056007Y0097425D01*
X0030270Y0097425D01*
X0021717Y0105979D01*
X0021717Y0178497D01*
X0031096Y0169117D01*
X0032385Y0167828D01*
X0073260Y0167828D01*
X0072435Y0167003D01*
X0062993Y0157561D01*
X0062171Y0157561D01*
X0060965Y0157062D01*
X0060042Y0156139D01*
X0059543Y0154933D01*
X0059543Y0153628D01*
X0060042Y0152422D01*
X0060965Y0151499D01*
X0062171Y0150999D01*
X0063476Y0150999D01*
X0064682Y0151499D01*
X0065605Y0152422D01*
X0066105Y0153628D01*
X0066105Y0154450D01*
X0075546Y0163891D01*
X0111565Y0163891D01*
X0112146Y0163310D01*
X0113352Y0162810D01*
X0114657Y0162810D01*
X0115863Y0163310D01*
X0116445Y0163891D01*
X0184399Y0163891D01*
X0184981Y0163310D01*
X0186187Y0162810D01*
X0187492Y0162810D01*
X0188698Y0163310D01*
X0189280Y0163891D01*
X0261171Y0163891D01*
X0261752Y0163310D01*
X0262958Y0162810D01*
X0264264Y0162810D01*
X0265470Y0163310D01*
X0266393Y0164233D01*
X0266892Y0165439D01*
X0266892Y0166744D01*
X0266443Y0167828D01*
X0282239Y0167828D01*
X0292711Y0178301D01*
X0294000Y0179590D01*
X0294000Y0183550D01*
X0297104Y0183550D01*
X0297924Y0184370D01*
X0297924Y0193924D01*
X0297944Y0193924D01*
X0300057Y0194799D01*
X0301675Y0196417D01*
X0302550Y0198530D01*
X0302550Y0200818D01*
X0301675Y0202931D01*
X0300057Y0204549D01*
X0297944Y0205424D01*
X0295656Y0205424D01*
X0293543Y0204549D01*
X0291925Y0202931D01*
X0291050Y0200818D01*
X0291050Y0198530D01*
X0291925Y0196417D01*
X0292544Y0195798D01*
X0286496Y0195798D01*
X0286470Y0195772D01*
X0287150Y0198311D01*
X0287150Y0201037D01*
X0286445Y0203669D01*
X0285082Y0206029D01*
X0283155Y0207956D01*
X0280795Y0209319D01*
X0278163Y0210024D01*
X0275437Y0210024D01*
X0272805Y0209319D01*
X0270445Y0207956D01*
X0268518Y0206029D01*
X0267155Y0203669D01*
X0266450Y0201037D01*
X0266450Y0198311D01*
X0267155Y0195679D01*
X0268518Y0193319D01*
X0270445Y0191392D01*
X0272805Y0190029D01*
X0275437Y0189324D01*
X0278163Y0189324D01*
X0280795Y0190029D01*
X0283155Y0191392D01*
X0285082Y0193319D01*
X0285676Y0194347D01*
X0285676Y0184370D01*
X0286496Y0183550D01*
X0289600Y0183550D01*
X0289600Y0181412D01*
X0280416Y0172228D01*
X0211836Y0172228D01*
X0218567Y0178960D01*
X0218567Y0183550D01*
X0222104Y0183550D01*
X0222924Y0184370D01*
X0222924Y0193924D01*
X0222944Y0193924D01*
X0225057Y0194799D01*
X0226675Y0196417D01*
X0227550Y0198530D01*
X0227550Y0200818D01*
X0226675Y0202931D01*
X0225057Y0204549D01*
X0222944Y0205424D01*
X0220656Y0205424D01*
X0218543Y0204549D01*
X0216925Y0202931D01*
X0216050Y0200818D01*
X0216050Y0198530D01*
X0216925Y0196417D01*
X0217544Y0195798D01*
X0211496Y0195798D01*
X0211470Y0195772D01*
X0212150Y0198311D01*
X0212150Y0201037D01*
X0211445Y0203669D01*
X0210082Y0206029D01*
X0208155Y0207956D01*
X0205795Y0209319D01*
X0203163Y0210024D01*
X0200437Y0210024D01*
X0197805Y0209319D01*
X0195445Y0207956D01*
X0193518Y0206029D01*
X0192155Y0203669D01*
X0191450Y0201037D01*
X0191450Y0198311D01*
X0192155Y0195679D01*
X0193518Y0193319D01*
X0195445Y0191392D01*
X0197805Y0190029D01*
X0200437Y0189324D01*
X0203163Y0189324D01*
X0205795Y0190029D01*
X0208155Y0191392D01*
X0210082Y0193319D01*
X0210676Y0194347D01*
X0210676Y0184370D01*
X0211496Y0183550D01*
X0214167Y0183550D01*
X0214167Y0180782D01*
X0205613Y0172228D01*
X0137033Y0172228D01*
X0143764Y0178960D01*
X0143764Y0183550D01*
X0147104Y0183550D01*
X0147924Y0184370D01*
X0147924Y0193924D01*
X0147944Y0193924D01*
X0150057Y0194799D01*
X0151675Y0196417D01*
X0152550Y0198530D01*
X0152550Y0200818D01*
X0151675Y0202931D01*
X0150057Y0204549D01*
X0147944Y0205424D01*
X0145656Y0205424D01*
X0143543Y0204549D01*
X0141925Y0202931D01*
X0141050Y0200818D01*
X0141050Y0198530D01*
X0141925Y0196417D01*
X0142544Y0195798D01*
X0136496Y0195798D01*
X0136470Y0195772D01*
X0137150Y0198311D01*
X0137150Y0201037D01*
X0136445Y0203669D01*
X0135082Y0206029D01*
X0133155Y0207956D01*
X0130795Y0209319D01*
X0128163Y0210024D01*
X0125437Y0210024D01*
X0122805Y0209319D01*
X0120445Y0207956D01*
X0118518Y0206029D01*
X0117155Y0203669D01*
X0116450Y0201037D01*
X0116450Y0198311D01*
X0117155Y0195679D01*
X0118518Y0193319D01*
X0120445Y0191392D01*
X0122805Y0190029D01*
X0125437Y0189324D01*
X0128163Y0189324D01*
X0130795Y0190029D01*
X0133155Y0191392D01*
X0135082Y0193319D01*
X0135676Y0194347D01*
X0135676Y0184370D01*
X0136496Y0183550D01*
X0139364Y0183550D01*
X0139364Y0180782D01*
X0130810Y0172228D01*
X0062229Y0172228D01*
X0068961Y0178960D01*
X0068961Y0183550D01*
X0072104Y0183550D01*
X0072924Y0184370D01*
X0072924Y0193924D01*
X0072944Y0193924D01*
X0075057Y0194799D01*
X0076675Y0196417D01*
X0077550Y0198530D01*
X0077550Y0200818D01*
X0076675Y0202931D01*
X0075057Y0204549D01*
X0072944Y0205424D01*
X0070656Y0205424D01*
X0068543Y0204549D01*
X0066925Y0202931D01*
X0066050Y0200818D01*
X0066050Y0198530D01*
X0066925Y0196417D01*
X0067544Y0195798D01*
X0061496Y0195798D01*
X0061470Y0195772D01*
X0062150Y0198311D01*
X0062150Y0201037D01*
X0061445Y0203669D01*
X0060082Y0206029D01*
X0058155Y0207956D01*
X0055795Y0209319D01*
X0053163Y0210024D01*
X0050437Y0210024D01*
X0047805Y0209319D01*
X0045445Y0207956D01*
X0043518Y0206029D01*
X0042155Y0203669D01*
X0041450Y0201037D01*
X0041450Y0198311D01*
X0042155Y0195679D01*
X0043518Y0193319D01*
X0045445Y0191392D01*
X0047805Y0190029D01*
X0050437Y0189324D01*
X0053163Y0189324D01*
X0055795Y0190029D01*
X0058155Y0191392D01*
X0060082Y0193319D01*
X0060676Y0194347D01*
X0060676Y0184370D01*
X0061496Y0183550D01*
X0064561Y0183550D01*
X0064561Y0180782D01*
X0056007Y0172228D01*
X0034207Y0172228D01*
X0025654Y0180782D01*
X0025654Y0299038D01*
X0055861Y0329246D01*
X0201637Y0329246D01*
X0201676Y0329206D01*
X0203467Y0327415D01*
X0202145Y0327963D01*
X0200116Y0327963D01*
X0198242Y0327187D01*
X0196807Y0325752D01*
X0196031Y0323877D01*
X0196031Y0321849D01*
X0196807Y0319974D01*
X0198242Y0318539D01*
X0200116Y0317763D01*
X0202145Y0317763D01*
X0202356Y0317850D01*
X0202356Y0293133D01*
X0212198Y0283290D01*
X0212198Y0270798D01*
X0211496Y0270798D01*
X0211470Y0270772D01*
X0212150Y0273311D01*
X0212150Y0276037D01*
X0211445Y0278669D01*
X0210082Y0281029D01*
X0208155Y0282956D01*
X0205795Y0284319D01*
X0203163Y0285024D01*
X0200437Y0285024D01*
X0197805Y0284319D01*
X0195445Y0282956D01*
X0193518Y0281029D01*
X0192155Y0278669D01*
X0191450Y0276037D01*
X0191450Y0273311D01*
X0192155Y0270679D01*
X0193518Y0268319D01*
X0195445Y0266392D01*
X0197805Y0265029D01*
X0200437Y0264324D01*
X0203163Y0264324D01*
X0205795Y0265029D01*
X0208155Y0266392D01*
X0210082Y0268319D01*
X0210676Y0269347D01*
X0210676Y0259370D01*
X0211496Y0258550D01*
X0214167Y0258550D01*
X0214167Y0251794D01*
X0218930Y0247031D01*
X0152318Y0247031D01*
X0143764Y0255585D01*
X0143764Y0258550D01*
X0147104Y0258550D01*
X0147924Y0259370D01*
X0147924Y0268924D01*
X0147944Y0268924D01*
X0150057Y0269799D01*
X0151675Y0271417D01*
X0152550Y0273530D01*
X0152550Y0275818D01*
X0151675Y0277931D01*
X0150057Y0279549D01*
X0147944Y0280424D01*
X0145656Y0280424D01*
X0143543Y0279549D01*
X0141925Y0277931D01*
X0141050Y0275818D01*
X0141050Y0273530D01*
X0141925Y0271417D01*
X0142544Y0270798D01*
X0136496Y0270798D01*
X0136470Y0270772D01*
X0137150Y0273311D01*
X0137150Y0276037D01*
X0136445Y0278669D01*
X0135082Y0281029D01*
X0133155Y0282956D01*
X0130795Y0284319D01*
X0128163Y0285024D01*
X0125437Y0285024D01*
X0122805Y0284319D01*
X0120445Y0282956D01*
X0118518Y0281029D01*
X0117155Y0278669D01*
X0116450Y0276037D01*
X0116450Y0273311D01*
X0117155Y0270679D01*
X0118518Y0268319D01*
X0120445Y0266392D01*
X0122805Y0265029D01*
X0125437Y0264324D01*
X0128163Y0264324D01*
X0130795Y0265029D01*
X0133155Y0266392D01*
X0135082Y0268319D01*
X0135676Y0269347D01*
X0135676Y0259370D01*
X0136496Y0258550D01*
X0139364Y0258550D01*
X0139364Y0253763D01*
X0146095Y0247031D01*
X0079483Y0247031D01*
X0069000Y0257514D01*
X0069000Y0258550D01*
X0072104Y0258550D01*
X0072924Y0259370D01*
X0072924Y0268924D01*
X0072944Y0268924D01*
X0075057Y0269799D01*
X0076675Y0271417D01*
X0077550Y0273530D01*
X0077550Y0275818D01*
X0076675Y0277931D01*
X0075057Y0279549D01*
X0072944Y0280424D01*
X0070656Y0280424D01*
X0068543Y0279549D01*
X0066925Y0277931D01*
X0066050Y0275818D01*
X0066050Y0273530D01*
X0066925Y0271417D01*
X0067544Y0270798D01*
X0061496Y0270798D01*
X0061470Y0270772D01*
X0062150Y0273311D01*
X0062150Y0276037D01*
X0061445Y0278669D01*
X0060082Y0281029D01*
X0058155Y0282956D01*
X0055795Y0284319D01*
X0053163Y0285024D01*
X0050437Y0285024D01*
X0047805Y0284319D01*
X0045445Y0282956D01*
X0043518Y0281029D01*
X0042155Y0278669D01*
X0041450Y0276037D01*
X0041450Y0273311D01*
X0042155Y0270679D01*
X0043518Y0268319D01*
X0045445Y0266392D01*
X0047805Y0265029D01*
X0050437Y0264324D01*
X0053163Y0264324D01*
X0055795Y0265029D01*
X0058155Y0266392D01*
X0060082Y0268319D01*
X0060676Y0269347D01*
X0060676Y0259370D01*
X0061496Y0258550D01*
X0064600Y0258550D01*
X0064600Y0255692D01*
X0065889Y0254403D01*
X0077197Y0243094D01*
X0067818Y0243094D01*
X0066529Y0241806D01*
X0057088Y0232365D01*
X0056265Y0232365D01*
X0055060Y0231865D01*
X0054137Y0230942D01*
X0053637Y0229736D01*
X0053637Y0228431D01*
X0054137Y0227225D01*
X0055060Y0226302D01*
X0056265Y0225802D01*
X0057571Y0225802D01*
X0058777Y0226302D01*
X0059700Y0227225D01*
X0060199Y0228431D01*
X0060199Y0229253D01*
X0069640Y0238694D01*
X0109596Y0238694D01*
X0110178Y0238113D01*
X0111384Y0237613D01*
X0112689Y0237613D01*
X0113895Y0238113D01*
X0114476Y0238694D01*
X0184399Y0238694D01*
X0184981Y0238113D01*
X0186187Y0237613D01*
X0187492Y0237613D01*
X0188698Y0238113D01*
X0189280Y0238694D01*
X0259202Y0238694D01*
X0259784Y0238113D01*
X0260990Y0237613D01*
X0262295Y0237613D01*
X0263501Y0238113D01*
X0264424Y0239036D01*
X0264924Y0240242D01*
X0264924Y0241547D01*
X0264474Y0242631D01*
X0284207Y0242631D01*
X0285496Y0243920D01*
X0293370Y0251794D01*
X0293370Y0258550D01*
X0297104Y0258550D01*
X0297924Y0259370D01*
X0297924Y0268924D01*
X0297944Y0268924D01*
X0300057Y0269799D01*
X0301675Y0271417D01*
X0302550Y0273530D01*
X0302550Y0275818D01*
X0301675Y0277931D01*
X0300057Y0279549D01*
X0297944Y0280424D01*
X0295656Y0280424D01*
X0293543Y0279549D01*
X0291925Y0277931D01*
X0291050Y0275818D01*
X0291050Y0273530D01*
X0291925Y0271417D01*
X0292544Y0270798D01*
X0286496Y0270798D01*
X0286470Y0270772D01*
X0287150Y0273311D01*
X0287150Y0276037D01*
X0286445Y0278669D01*
X0285082Y0281029D01*
X0283155Y0282956D01*
X0280795Y0284319D01*
X0278163Y0285024D01*
X0275437Y0285024D01*
X0272805Y0284319D01*
X0270445Y0282956D01*
X0268518Y0281029D01*
X0267155Y0278669D01*
X0266450Y0276037D01*
X0266450Y0273311D01*
X0267155Y0270679D01*
X0268518Y0268319D01*
X0270445Y0266392D01*
X0272805Y0265029D01*
X0275437Y0264324D01*
X0278163Y0264324D01*
X0280795Y0265029D01*
X0283155Y0266392D01*
X0285082Y0268319D01*
X0285676Y0269347D01*
X0285676Y0259370D01*
X0286496Y0258550D01*
X0288970Y0258550D01*
X0288970Y0253617D01*
X0282385Y0247031D01*
X0225152Y0247031D01*
X0218567Y0253617D01*
X0218567Y0258550D01*
X0222104Y0258550D01*
X0222924Y0259370D01*
X0222924Y0268924D01*
X0222944Y0268924D01*
X0225057Y0269799D01*
X0226675Y0271417D01*
X0227550Y0273530D01*
X0227550Y0275818D01*
X0226675Y0277931D01*
X0225057Y0279549D01*
X0222944Y0280424D01*
X0220656Y0280424D01*
X0218543Y0279549D01*
X0216925Y0277931D01*
X0216598Y0277142D01*
X0216598Y0285113D01*
X0215310Y0286402D01*
X0206756Y0294955D01*
X0206756Y0320098D01*
X0206807Y0319974D01*
X0208242Y0318539D01*
X0210116Y0317763D01*
X0212145Y0317763D01*
X0214020Y0318539D01*
X0215454Y0319974D01*
X0216131Y0321607D01*
X0216807Y0319974D01*
X0218242Y0318539D01*
X0220116Y0317763D01*
X0222145Y0317763D01*
X0224020Y0318539D01*
X0225454Y0319974D01*
X0226131Y0321607D01*
X0226807Y0319974D01*
X0228242Y0318539D01*
X0230116Y0317763D01*
X0232145Y0317763D01*
X0234020Y0318539D01*
X0235454Y0319974D01*
X0236131Y0321607D01*
X0236807Y0319974D01*
X0238242Y0318539D01*
X0240116Y0317763D01*
X0242145Y0317763D01*
X0244020Y0318539D01*
X0245454Y0319974D01*
X0246131Y0321607D01*
X0246807Y0319974D01*
X0248242Y0318539D01*
X0250116Y0317763D01*
X0252145Y0317763D01*
X0253467Y0318311D01*
X0239078Y0303921D01*
X0237789Y0302633D01*
X0237789Y0294516D01*
X0237207Y0293934D01*
X0236708Y0292728D01*
X0236708Y0291423D01*
X0237207Y0290217D01*
X0238130Y0289294D01*
X0239336Y0288794D01*
X0240642Y0288794D01*
X0241848Y0289294D01*
X0242771Y0290217D01*
X0243270Y0291423D01*
X0243270Y0292728D01*
X0242771Y0293934D01*
X0242189Y0294516D01*
X0242189Y0300810D01*
X0259427Y0318048D01*
X0260116Y0317763D01*
X0262145Y0317763D01*
X0264020Y0318539D01*
X0265454Y0319974D01*
X0266131Y0321607D01*
X0266807Y0319974D01*
X0268242Y0318539D01*
X0269285Y0318107D01*
X0269285Y0308881D01*
X0277159Y0301007D01*
X0278448Y0299718D01*
X0295763Y0299718D01*
X0295763Y0299457D01*
X0296583Y0298637D01*
X0301505Y0298637D01*
X0302325Y0299457D01*
X0302325Y0304379D01*
X0301505Y0305199D01*
X0296583Y0305199D01*
X0295763Y0304379D01*
X0295763Y0304118D01*
X0280270Y0304118D01*
X0273685Y0310703D01*
X0273685Y0318401D01*
X0274020Y0318539D01*
X0275454Y0319974D01*
X0276131Y0321607D01*
X0276807Y0319974D01*
X0278242Y0318539D01*
X0280116Y0317763D01*
X0282145Y0317763D01*
X0284020Y0318539D01*
X0285454Y0319974D01*
X0286131Y0321607D01*
X0286807Y0319974D01*
X0288242Y0318539D01*
X0290116Y0317763D01*
X0292145Y0317763D01*
X0294020Y0318539D01*
X0295454Y0319974D01*
X0295921Y0321100D01*
X0296034Y0320752D01*
X0296427Y0319980D01*
X0296936Y0319280D01*
X0297548Y0318668D01*
X0298248Y0318159D01*
X0299019Y0317766D01*
X0299843Y0317498D01*
X0300698Y0317363D01*
X0300931Y0317363D01*
X0300931Y0322663D01*
X0301331Y0322663D01*
X0301331Y0317363D01*
X0301564Y0317363D01*
X0302419Y0317498D01*
X0303242Y0317766D01*
X0304013Y0318159D01*
X0304714Y0318668D01*
X0305326Y0319280D01*
X0305835Y0319980D01*
X0306228Y0320752D01*
X0306341Y0321100D01*
X0306807Y0319974D01*
X0308242Y0318539D01*
X0310116Y0317763D01*
X0312145Y0317763D01*
X0314020Y0318539D01*
X0315454Y0319974D01*
X0316231Y0321849D01*
X0316231Y0323877D01*
X0315454Y0325752D01*
X0314020Y0327187D01*
X0312145Y0327963D01*
X0310116Y0327963D01*
X0308242Y0327187D01*
X0306807Y0325752D01*
X0306341Y0324626D01*
X0306228Y0324974D01*
X0305835Y0325746D01*
X0305326Y0326446D01*
X0304714Y0327058D01*
X0304013Y0327567D01*
X0303242Y0327960D01*
X0302419Y0328228D01*
X0301564Y0328363D01*
X0301331Y0328363D01*
X0301331Y0323063D01*
X0300931Y0323063D01*
X0300931Y0328363D01*
X0300698Y0328363D01*
X0299843Y0328228D01*
X0299019Y0327960D01*
X0298248Y0327567D01*
X0297548Y0327058D01*
X0296936Y0326446D01*
X0296427Y0325746D01*
X0296034Y0324974D01*
X0295921Y0324626D01*
X0295454Y0325752D01*
X0294020Y0327187D01*
X0292145Y0327963D01*
X0290116Y0327963D01*
X0288242Y0327187D01*
X0286807Y0325752D01*
X0286131Y0324119D01*
X0285454Y0325752D01*
X0284020Y0327187D01*
X0282145Y0327963D01*
X0280116Y0327963D01*
X0278242Y0327187D01*
X0276807Y0325752D01*
X0276131Y0324119D01*
X0275454Y0325752D01*
X0274020Y0327187D01*
X0272145Y0327963D01*
X0270116Y0327963D01*
X0268242Y0327187D01*
X0266807Y0325752D01*
X0266131Y0324119D01*
X0265454Y0325752D01*
X0264020Y0327187D01*
X0262145Y0327963D01*
X0260116Y0327963D01*
X0258242Y0327187D01*
X0256807Y0325752D01*
X0256131Y0324119D01*
X0255454Y0325752D01*
X0254020Y0327187D01*
X0252145Y0327963D01*
X0250116Y0327963D01*
X0248242Y0327187D01*
X0246807Y0325752D01*
X0246131Y0324119D01*
X0245454Y0325752D01*
X0244020Y0327187D01*
X0242145Y0327963D01*
X0240116Y0327963D01*
X0238242Y0327187D01*
X0236807Y0325752D01*
X0236131Y0324119D01*
X0235454Y0325752D01*
X0234020Y0327187D01*
X0232145Y0327963D01*
X0230116Y0327963D01*
X0229427Y0327678D01*
X0216874Y0340231D01*
X0215585Y0341520D01*
X0181416Y0341520D01*
X0181933Y0342036D01*
X0182367Y0343083D01*
X0182367Y0344217D01*
X0181933Y0345265D01*
X0181131Y0346066D01*
X0180083Y0346500D01*
X0178950Y0346500D01*
X0177902Y0346066D01*
X0177100Y0345265D01*
X0176667Y0344217D01*
X0176667Y0343083D01*
X0177100Y0342036D01*
X0177617Y0341520D01*
X0042227Y0341520D01*
X0014668Y0313961D01*
X0013380Y0312672D01*
X0013380Y0027385D01*
X0014668Y0026096D01*
X0014668Y0026096D01*
X0021254Y0019511D01*
X0021254Y0019511D01*
X0020105Y0020659D02*
X0004100Y0020659D01*
X0004100Y0022258D02*
X0018507Y0022258D01*
X0016908Y0023856D02*
X0004100Y0023856D01*
X0004100Y0025455D02*
X0015310Y0025455D01*
X0013711Y0027053D02*
X0004100Y0027053D01*
X0004100Y0028652D02*
X0013380Y0028652D01*
X0013380Y0030250D02*
X0004100Y0030250D01*
X0004100Y0031849D02*
X0013380Y0031849D01*
X0013380Y0033447D02*
X0004100Y0033447D01*
X0004100Y0035046D02*
X0013380Y0035046D01*
X0013380Y0036644D02*
X0004100Y0036644D01*
X0004100Y0038243D02*
X0013380Y0038243D01*
X0013380Y0039841D02*
X0004100Y0039841D01*
X0004100Y0041440D02*
X0013380Y0041440D01*
X0013380Y0043038D02*
X0004100Y0043038D01*
X0004100Y0044637D02*
X0013380Y0044637D01*
X0013380Y0046235D02*
X0004100Y0046235D01*
X0004100Y0047834D02*
X0013380Y0047834D01*
X0013380Y0049432D02*
X0004100Y0049432D01*
X0004100Y0051031D02*
X0013380Y0051031D01*
X0013380Y0052629D02*
X0004100Y0052629D01*
X0004100Y0054228D02*
X0013380Y0054228D01*
X0013380Y0055826D02*
X0004100Y0055826D01*
X0004100Y0057425D02*
X0013380Y0057425D01*
X0013380Y0059023D02*
X0004100Y0059023D01*
X0004100Y0060622D02*
X0013380Y0060622D01*
X0013380Y0062220D02*
X0004100Y0062220D01*
X0004100Y0063819D02*
X0013380Y0063819D01*
X0013380Y0065417D02*
X0004100Y0065417D01*
X0004100Y0067016D02*
X0013380Y0067016D01*
X0013380Y0068614D02*
X0004100Y0068614D01*
X0004100Y0070213D02*
X0013380Y0070213D01*
X0013380Y0071811D02*
X0004100Y0071811D01*
X0004100Y0073410D02*
X0013380Y0073410D01*
X0013380Y0075009D02*
X0004100Y0075009D01*
X0004100Y0076607D02*
X0013380Y0076607D01*
X0013380Y0078206D02*
X0004100Y0078206D01*
X0004100Y0079804D02*
X0013380Y0079804D01*
X0013380Y0081403D02*
X0004100Y0081403D01*
X0004100Y0083001D02*
X0013380Y0083001D01*
X0013380Y0084600D02*
X0004100Y0084600D01*
X0004100Y0086198D02*
X0013380Y0086198D01*
X0013380Y0087797D02*
X0004100Y0087797D01*
X0004100Y0089395D02*
X0013380Y0089395D01*
X0013380Y0090994D02*
X0004100Y0090994D01*
X0004100Y0092592D02*
X0013380Y0092592D01*
X0013380Y0094191D02*
X0004100Y0094191D01*
X0004100Y0095789D02*
X0013380Y0095789D01*
X0013380Y0097388D02*
X0004100Y0097388D01*
X0004100Y0098986D02*
X0013380Y0098986D01*
X0013380Y0100585D02*
X0004100Y0100585D01*
X0004100Y0102183D02*
X0013380Y0102183D01*
X0013380Y0103782D02*
X0004100Y0103782D01*
X0004100Y0105380D02*
X0013380Y0105380D01*
X0013380Y0106979D02*
X0004100Y0106979D01*
X0004100Y0108577D02*
X0013380Y0108577D01*
X0013380Y0110176D02*
X0004100Y0110176D01*
X0004100Y0111774D02*
X0013380Y0111774D01*
X0013380Y0113373D02*
X0004100Y0113373D01*
X0004100Y0114971D02*
X0013380Y0114971D01*
X0013380Y0116570D02*
X0004100Y0116570D01*
X0004100Y0118168D02*
X0013380Y0118168D01*
X0013380Y0119767D02*
X0004100Y0119767D01*
X0004100Y0121365D02*
X0013380Y0121365D01*
X0013380Y0122964D02*
X0004100Y0122964D01*
X0004100Y0124562D02*
X0013380Y0124562D01*
X0013380Y0126161D02*
X0004100Y0126161D01*
X0004100Y0127759D02*
X0013380Y0127759D01*
X0013380Y0129358D02*
X0004100Y0129358D01*
X0004100Y0130956D02*
X0013380Y0130956D01*
X0013380Y0132555D02*
X0004100Y0132555D01*
X0004100Y0134153D02*
X0013380Y0134153D01*
X0013380Y0135752D02*
X0004100Y0135752D01*
X0004100Y0137350D02*
X0013380Y0137350D01*
X0013380Y0138949D02*
X0004100Y0138949D01*
X0004100Y0140547D02*
X0013380Y0140547D01*
X0013380Y0142146D02*
X0004100Y0142146D01*
X0004100Y0143745D02*
X0013380Y0143745D01*
X0013380Y0145343D02*
X0004100Y0145343D01*
X0004100Y0146942D02*
X0013380Y0146942D01*
X0013380Y0148540D02*
X0004100Y0148540D01*
X0004100Y0150139D02*
X0013380Y0150139D01*
X0013380Y0151737D02*
X0004100Y0151737D01*
X0004100Y0153336D02*
X0013380Y0153336D01*
X0013380Y0154934D02*
X0004100Y0154934D01*
X0004100Y0156533D02*
X0013380Y0156533D01*
X0013380Y0158131D02*
X0004100Y0158131D01*
X0004100Y0159730D02*
X0013380Y0159730D01*
X0013380Y0161328D02*
X0004100Y0161328D01*
X0004100Y0162927D02*
X0013380Y0162927D01*
X0013380Y0164525D02*
X0004100Y0164525D01*
X0004100Y0166124D02*
X0013380Y0166124D01*
X0013380Y0167722D02*
X0004100Y0167722D01*
X0004100Y0169321D02*
X0013380Y0169321D01*
X0013380Y0170919D02*
X0004100Y0170919D01*
X0004100Y0172518D02*
X0013380Y0172518D01*
X0013380Y0174116D02*
X0004100Y0174116D01*
X0004100Y0175715D02*
X0013380Y0175715D01*
X0013380Y0177313D02*
X0004100Y0177313D01*
X0004100Y0178912D02*
X0013380Y0178912D01*
X0013380Y0180510D02*
X0004100Y0180510D01*
X0004100Y0182109D02*
X0013380Y0182109D01*
X0013380Y0183707D02*
X0004100Y0183707D01*
X0004100Y0185306D02*
X0013380Y0185306D01*
X0013380Y0186904D02*
X0004100Y0186904D01*
X0004100Y0188503D02*
X0013380Y0188503D01*
X0013380Y0190101D02*
X0004100Y0190101D01*
X0004100Y0191700D02*
X0013380Y0191700D01*
X0013380Y0193298D02*
X0004100Y0193298D01*
X0004100Y0194897D02*
X0013380Y0194897D01*
X0013380Y0196495D02*
X0004100Y0196495D01*
X0004100Y0198094D02*
X0013380Y0198094D01*
X0013380Y0199692D02*
X0004100Y0199692D01*
X0004100Y0201291D02*
X0013380Y0201291D01*
X0013380Y0202889D02*
X0004100Y0202889D01*
X0004100Y0204488D02*
X0013380Y0204488D01*
X0013380Y0206086D02*
X0004100Y0206086D01*
X0004100Y0207685D02*
X0013380Y0207685D01*
X0013380Y0209283D02*
X0004100Y0209283D01*
X0004100Y0210882D02*
X0013380Y0210882D01*
X0013380Y0212480D02*
X0004100Y0212480D01*
X0004100Y0214079D02*
X0013380Y0214079D01*
X0013380Y0215678D02*
X0004100Y0215678D01*
X0004100Y0217276D02*
X0013380Y0217276D01*
X0013380Y0218875D02*
X0004100Y0218875D01*
X0004100Y0220473D02*
X0013380Y0220473D01*
X0013380Y0222072D02*
X0004100Y0222072D01*
X0004100Y0223670D02*
X0013380Y0223670D01*
X0013380Y0225269D02*
X0004100Y0225269D01*
X0004100Y0226867D02*
X0013380Y0226867D01*
X0013380Y0228466D02*
X0004100Y0228466D01*
X0004100Y0230064D02*
X0013380Y0230064D01*
X0013380Y0231663D02*
X0004100Y0231663D01*
X0004100Y0233261D02*
X0013380Y0233261D01*
X0013380Y0234860D02*
X0004100Y0234860D01*
X0004100Y0236458D02*
X0013380Y0236458D01*
X0013380Y0238057D02*
X0004100Y0238057D01*
X0004100Y0239655D02*
X0013380Y0239655D01*
X0013380Y0241254D02*
X0004100Y0241254D01*
X0004100Y0242852D02*
X0013380Y0242852D01*
X0013380Y0244451D02*
X0004100Y0244451D01*
X0004100Y0246049D02*
X0013380Y0246049D01*
X0013380Y0247648D02*
X0004100Y0247648D01*
X0004100Y0249246D02*
X0013380Y0249246D01*
X0013380Y0250845D02*
X0004100Y0250845D01*
X0004100Y0252443D02*
X0013380Y0252443D01*
X0013380Y0254042D02*
X0004100Y0254042D01*
X0004100Y0255640D02*
X0013380Y0255640D01*
X0013380Y0257239D02*
X0004100Y0257239D01*
X0004100Y0258837D02*
X0013380Y0258837D01*
X0013380Y0260436D02*
X0004100Y0260436D01*
X0004100Y0262034D02*
X0013380Y0262034D01*
X0013380Y0263633D02*
X0004100Y0263633D01*
X0004100Y0265231D02*
X0013380Y0265231D01*
X0013380Y0266830D02*
X0004100Y0266830D01*
X0004100Y0268428D02*
X0013380Y0268428D01*
X0013380Y0270027D02*
X0004100Y0270027D01*
X0004100Y0271625D02*
X0013380Y0271625D01*
X0013380Y0273224D02*
X0004100Y0273224D01*
X0004100Y0274822D02*
X0013380Y0274822D01*
X0013380Y0276421D02*
X0004100Y0276421D01*
X0004100Y0278019D02*
X0013380Y0278019D01*
X0013380Y0279618D02*
X0004100Y0279618D01*
X0004100Y0281216D02*
X0013380Y0281216D01*
X0013380Y0282815D02*
X0004100Y0282815D01*
X0004100Y0284413D02*
X0013380Y0284413D01*
X0013380Y0286012D02*
X0004100Y0286012D01*
X0004100Y0287611D02*
X0013380Y0287611D01*
X0013380Y0289209D02*
X0004100Y0289209D01*
X0004100Y0290808D02*
X0013380Y0290808D01*
X0013380Y0292406D02*
X0004100Y0292406D01*
X0004100Y0294005D02*
X0013380Y0294005D01*
X0013380Y0295603D02*
X0004100Y0295603D01*
X0004100Y0297202D02*
X0013380Y0297202D01*
X0013380Y0298800D02*
X0004100Y0298800D01*
X0004100Y0300399D02*
X0013380Y0300399D01*
X0013380Y0301997D02*
X0004100Y0301997D01*
X0004100Y0303596D02*
X0013380Y0303596D01*
X0013380Y0305194D02*
X0004100Y0305194D01*
X0004100Y0306793D02*
X0013380Y0306793D01*
X0013380Y0308391D02*
X0004100Y0308391D01*
X0004100Y0309990D02*
X0013380Y0309990D01*
X0013380Y0311588D02*
X0004100Y0311588D01*
X0004100Y0313187D02*
X0013894Y0313187D01*
X0015580Y0311761D02*
X0015580Y0028296D01*
X0023454Y0020422D01*
X0056918Y0020422D01*
X0066761Y0030265D01*
X0066761Y0039635D01*
X0066800Y0039674D01*
X0072924Y0039841D02*
X0123507Y0039841D01*
X0120397Y0041440D02*
X0072924Y0041440D01*
X0072924Y0043038D02*
X0118799Y0043038D01*
X0117757Y0044637D02*
X0109665Y0044637D01*
X0110057Y0044799D02*
X0107944Y0043924D01*
X0105656Y0043924D01*
X0103543Y0044799D01*
X0101925Y0046417D01*
X0101050Y0048530D01*
X0101050Y0050818D01*
X0101925Y0052931D01*
X0103543Y0054549D01*
X0105656Y0055424D01*
X0107944Y0055424D01*
X0110057Y0054549D01*
X0111675Y0052931D01*
X0112550Y0050818D01*
X0112550Y0048530D01*
X0111675Y0046417D01*
X0110057Y0044799D01*
X0111493Y0046235D02*
X0117006Y0046235D01*
X0116578Y0047834D02*
X0112262Y0047834D01*
X0112550Y0049432D02*
X0116450Y0049432D01*
X0116450Y0051031D02*
X0112462Y0051031D01*
X0111800Y0052629D02*
X0116877Y0052629D01*
X0117478Y0054228D02*
X0110378Y0054228D01*
X0103222Y0054228D02*
X0075378Y0054228D01*
X0076800Y0052629D02*
X0101800Y0052629D01*
X0101138Y0051031D02*
X0077462Y0051031D01*
X0077550Y0049432D02*
X0101050Y0049432D01*
X0101338Y0047834D02*
X0077262Y0047834D01*
X0076493Y0046235D02*
X0102107Y0046235D01*
X0103935Y0044637D02*
X0074665Y0044637D01*
X0072924Y0038243D02*
X0135676Y0038243D01*
X0135676Y0039841D02*
X0130093Y0039841D01*
X0133203Y0041440D02*
X0135676Y0041440D01*
X0135676Y0043038D02*
X0134801Y0043038D01*
X0136594Y0046235D02*
X0142107Y0046235D01*
X0141338Y0047834D02*
X0137022Y0047834D01*
X0137150Y0049432D02*
X0141050Y0049432D01*
X0141138Y0051031D02*
X0137150Y0051031D01*
X0136723Y0052629D02*
X0141800Y0052629D01*
X0143222Y0054228D02*
X0136122Y0054228D01*
X0135199Y0055826D02*
X0193401Y0055826D01*
X0192478Y0054228D02*
X0185378Y0054228D01*
X0185057Y0054549D02*
X0182944Y0055424D01*
X0180656Y0055424D01*
X0178543Y0054549D01*
X0176925Y0052931D01*
X0176050Y0050818D01*
X0176050Y0048530D01*
X0176925Y0046417D01*
X0178543Y0044799D01*
X0180656Y0043924D01*
X0182944Y0043924D01*
X0185057Y0044799D01*
X0186675Y0046417D01*
X0187550Y0048530D01*
X0187550Y0050818D01*
X0186675Y0052931D01*
X0185057Y0054549D01*
X0186800Y0052629D02*
X0191877Y0052629D01*
X0191450Y0051031D02*
X0187462Y0051031D01*
X0187550Y0049432D02*
X0191450Y0049432D01*
X0191578Y0047834D02*
X0187262Y0047834D01*
X0186493Y0046235D02*
X0192006Y0046235D01*
X0192757Y0044637D02*
X0184665Y0044637D01*
X0178935Y0044637D02*
X0149665Y0044637D01*
X0147924Y0043038D02*
X0193799Y0043038D01*
X0195397Y0041440D02*
X0147924Y0041440D01*
X0147924Y0039841D02*
X0198507Y0039841D01*
X0197104Y0035798D02*
X0186496Y0035798D01*
X0185676Y0034978D01*
X0185676Y0024370D01*
X0186496Y0023550D01*
X0197104Y0023550D01*
X0197924Y0024370D01*
X0197924Y0034978D01*
X0197104Y0035798D01*
X0197857Y0035046D02*
X0210676Y0035046D01*
X0210676Y0036644D02*
X0147924Y0036644D01*
X0147924Y0035046D02*
X0185743Y0035046D01*
X0185676Y0033447D02*
X0143764Y0033447D01*
X0143764Y0031849D02*
X0185676Y0031849D01*
X0185676Y0030250D02*
X0143764Y0030250D01*
X0143062Y0028652D02*
X0185676Y0028652D01*
X0185676Y0027053D02*
X0141464Y0027053D01*
X0139865Y0025455D02*
X0185676Y0025455D01*
X0186189Y0023856D02*
X0138267Y0023856D01*
X0135241Y0027053D02*
X0122924Y0027053D01*
X0122924Y0025455D02*
X0133643Y0025455D01*
X0132044Y0023856D02*
X0122411Y0023856D01*
X0122104Y0023550D02*
X0122924Y0024370D01*
X0122924Y0034978D01*
X0122104Y0035798D01*
X0111496Y0035798D01*
X0110676Y0034978D01*
X0110676Y0024370D01*
X0111496Y0023550D01*
X0122104Y0023550D01*
X0122924Y0028652D02*
X0136840Y0028652D01*
X0138438Y0030250D02*
X0122924Y0030250D01*
X0122924Y0031849D02*
X0139364Y0031849D01*
X0139364Y0033447D02*
X0122924Y0033447D01*
X0122857Y0035046D02*
X0135676Y0035046D01*
X0135676Y0036644D02*
X0072924Y0036644D01*
X0072924Y0035046D02*
X0110743Y0035046D01*
X0110676Y0033447D02*
X0068961Y0033447D01*
X0068961Y0031849D02*
X0110676Y0031849D01*
X0110676Y0030250D02*
X0068961Y0030250D01*
X0068259Y0028652D02*
X0110676Y0028652D01*
X0110676Y0027053D02*
X0066660Y0027053D01*
X0065062Y0025455D02*
X0110676Y0025455D01*
X0111189Y0023856D02*
X0063463Y0023856D01*
X0060438Y0027053D02*
X0047924Y0027053D01*
X0047924Y0025455D02*
X0058839Y0025455D01*
X0057241Y0023856D02*
X0047411Y0023856D01*
X0047104Y0023550D02*
X0047924Y0024370D01*
X0047924Y0034978D01*
X0047104Y0035798D01*
X0036496Y0035798D01*
X0035676Y0034978D01*
X0035676Y0024370D01*
X0036496Y0023550D01*
X0047104Y0023550D01*
X0047924Y0028652D02*
X0062036Y0028652D01*
X0063635Y0030250D02*
X0047924Y0030250D01*
X0047924Y0031849D02*
X0064561Y0031849D01*
X0064561Y0033447D02*
X0047924Y0033447D01*
X0047857Y0035046D02*
X0060676Y0035046D01*
X0060676Y0036644D02*
X0017780Y0036644D01*
X0017780Y0035046D02*
X0035743Y0035046D01*
X0035676Y0033447D02*
X0017780Y0033447D01*
X0017780Y0031849D02*
X0035676Y0031849D01*
X0035676Y0030250D02*
X0017780Y0030250D01*
X0018335Y0028652D02*
X0035676Y0028652D01*
X0035676Y0027053D02*
X0019934Y0027053D01*
X0021532Y0025455D02*
X0035676Y0025455D01*
X0036189Y0023856D02*
X0023131Y0023856D01*
X0017780Y0038243D02*
X0060676Y0038243D01*
X0060676Y0039841D02*
X0055093Y0039841D01*
X0058203Y0041440D02*
X0060676Y0041440D01*
X0060676Y0043038D02*
X0059801Y0043038D01*
X0061594Y0046235D02*
X0067107Y0046235D01*
X0066338Y0047834D02*
X0062022Y0047834D01*
X0062150Y0049432D02*
X0066050Y0049432D01*
X0066138Y0051031D02*
X0062150Y0051031D01*
X0061723Y0052629D02*
X0066800Y0052629D01*
X0068222Y0054228D02*
X0061122Y0054228D01*
X0060199Y0055826D02*
X0118401Y0055826D01*
X0119914Y0057425D02*
X0058686Y0057425D01*
X0056306Y0059023D02*
X0122294Y0059023D01*
X0131306Y0059023D02*
X0197294Y0059023D01*
X0194914Y0057425D02*
X0133686Y0057425D01*
X0141800Y0039674D02*
X0141564Y0039438D01*
X0141564Y0030265D01*
X0131721Y0020422D01*
X0206524Y0020422D01*
X0216367Y0030265D01*
X0216367Y0039241D01*
X0216800Y0039674D01*
X0217107Y0046235D02*
X0211594Y0046235D01*
X0212022Y0047834D02*
X0216338Y0047834D01*
X0216050Y0049432D02*
X0212150Y0049432D01*
X0212150Y0051031D02*
X0216138Y0051031D01*
X0216800Y0052629D02*
X0211723Y0052629D01*
X0211122Y0054228D02*
X0218222Y0054228D01*
X0225378Y0054228D02*
X0253222Y0054228D01*
X0253543Y0054549D02*
X0251925Y0052931D01*
X0251050Y0050818D01*
X0251050Y0048530D01*
X0251925Y0046417D01*
X0253543Y0044799D01*
X0255656Y0043924D01*
X0257944Y0043924D01*
X0260057Y0044799D01*
X0261675Y0046417D01*
X0262550Y0048530D01*
X0262550Y0050818D01*
X0261675Y0052931D01*
X0260057Y0054549D01*
X0257944Y0055424D01*
X0255656Y0055424D01*
X0253543Y0054549D01*
X0251800Y0052629D02*
X0226800Y0052629D01*
X0227462Y0051031D02*
X0251138Y0051031D01*
X0251050Y0049432D02*
X0227550Y0049432D01*
X0227262Y0047834D02*
X0251338Y0047834D01*
X0252107Y0046235D02*
X0226493Y0046235D01*
X0224665Y0044637D02*
X0253935Y0044637D01*
X0259665Y0044637D02*
X0267757Y0044637D01*
X0267006Y0046235D02*
X0261493Y0046235D01*
X0262262Y0047834D02*
X0266578Y0047834D01*
X0266450Y0049432D02*
X0262550Y0049432D01*
X0262462Y0051031D02*
X0266450Y0051031D01*
X0266877Y0052629D02*
X0261800Y0052629D01*
X0260378Y0054228D02*
X0267478Y0054228D01*
X0268401Y0055826D02*
X0210199Y0055826D01*
X0208686Y0057425D02*
X0269914Y0057425D01*
X0272294Y0059023D02*
X0206306Y0059023D01*
X0209801Y0043038D02*
X0210676Y0043038D01*
X0210676Y0041440D02*
X0208203Y0041440D01*
X0210676Y0039841D02*
X0205093Y0039841D01*
X0210676Y0038243D02*
X0147924Y0038243D01*
X0151493Y0046235D02*
X0177107Y0046235D01*
X0176338Y0047834D02*
X0152262Y0047834D01*
X0152550Y0049432D02*
X0176050Y0049432D01*
X0176138Y0051031D02*
X0152462Y0051031D01*
X0151800Y0052629D02*
X0176800Y0052629D01*
X0178222Y0054228D02*
X0150378Y0054228D01*
X0156659Y0076196D02*
X0155453Y0076696D01*
X0154530Y0077619D01*
X0154031Y0078825D01*
X0154031Y0080130D01*
X0154530Y0081336D01*
X0155453Y0082259D01*
X0156659Y0082758D01*
X0157964Y0082758D01*
X0159170Y0082259D01*
X0159752Y0081677D01*
X0182431Y0081677D01*
X0183012Y0082259D01*
X0184218Y0082758D01*
X0185524Y0082758D01*
X0186729Y0082259D01*
X0187652Y0081336D01*
X0188152Y0080130D01*
X0188152Y0078825D01*
X0187652Y0077619D01*
X0186729Y0076696D01*
X0185524Y0076196D01*
X0184218Y0076196D01*
X0183012Y0076696D01*
X0182431Y0077277D01*
X0159752Y0077277D01*
X0159170Y0076696D01*
X0157964Y0076196D01*
X0156659Y0076196D01*
X0155667Y0076607D02*
X0113681Y0076607D01*
X0113895Y0076696D02*
X0114818Y0077619D01*
X0115317Y0078825D01*
X0115317Y0080130D01*
X0114818Y0081336D01*
X0113895Y0082259D01*
X0112689Y0082758D01*
X0111384Y0082758D01*
X0110178Y0082259D01*
X0109596Y0081677D01*
X0084949Y0081677D01*
X0084367Y0082259D01*
X0083161Y0082758D01*
X0081856Y0082758D01*
X0080650Y0082259D01*
X0079727Y0081336D01*
X0079228Y0080130D01*
X0079228Y0078825D01*
X0079727Y0077619D01*
X0080650Y0076696D01*
X0081856Y0076196D01*
X0083161Y0076196D01*
X0084367Y0076696D01*
X0084949Y0077277D01*
X0109596Y0077277D01*
X0110178Y0076696D01*
X0111384Y0076196D01*
X0112689Y0076196D01*
X0113895Y0076696D01*
X0115061Y0078206D02*
X0154287Y0078206D01*
X0154031Y0079804D02*
X0115317Y0079804D01*
X0114751Y0081403D02*
X0154597Y0081403D01*
X0157312Y0079477D02*
X0184871Y0079477D01*
X0187896Y0078206D02*
X0229090Y0078206D01*
X0229333Y0077619D02*
X0230256Y0076696D01*
X0231462Y0076196D01*
X0232768Y0076196D01*
X0233974Y0076696D01*
X0234897Y0077619D01*
X0235396Y0078825D01*
X0235396Y0079246D01*
X0259202Y0079246D01*
X0259784Y0078664D01*
X0260990Y0078165D01*
X0262295Y0078165D01*
X0263501Y0078664D01*
X0264424Y0079587D01*
X0264924Y0080793D01*
X0264924Y0082098D01*
X0264424Y0083304D01*
X0263501Y0084227D01*
X0262295Y0084727D01*
X0260990Y0084727D01*
X0259784Y0084227D01*
X0259202Y0083646D01*
X0233172Y0083646D01*
X0232285Y0082758D01*
X0231462Y0082758D01*
X0230256Y0082259D01*
X0229333Y0081336D01*
X0228834Y0080130D01*
X0228834Y0078825D01*
X0229333Y0077619D01*
X0230470Y0076607D02*
X0186516Y0076607D01*
X0183226Y0076607D02*
X0158957Y0076607D01*
X0138594Y0098986D02*
X0186059Y0098986D01*
X0185676Y0099370D02*
X0186496Y0098550D01*
X0197104Y0098550D01*
X0197924Y0099370D01*
X0197924Y0109978D01*
X0197104Y0110798D01*
X0186496Y0110798D01*
X0185676Y0109978D01*
X0185676Y0099370D01*
X0185676Y0100585D02*
X0140192Y0100585D01*
X0141791Y0102183D02*
X0185676Y0102183D01*
X0185676Y0103782D02*
X0143389Y0103782D01*
X0143764Y0105380D02*
X0185676Y0105380D01*
X0185676Y0106979D02*
X0143764Y0106979D01*
X0141564Y0105068D02*
X0131721Y0095225D01*
X0206524Y0095225D01*
X0216367Y0105068D01*
X0216367Y0114241D01*
X0216800Y0114674D01*
X0216977Y0121365D02*
X0211629Y0121365D01*
X0212057Y0122964D02*
X0216285Y0122964D01*
X0216050Y0124562D02*
X0212150Y0124562D01*
X0212117Y0126161D02*
X0216192Y0126161D01*
X0216854Y0127759D02*
X0211688Y0127759D01*
X0211047Y0129358D02*
X0218352Y0129358D01*
X0225248Y0129358D02*
X0253352Y0129358D01*
X0253543Y0129549D02*
X0251925Y0127931D01*
X0251050Y0125818D01*
X0251050Y0123530D01*
X0251925Y0121417D01*
X0253543Y0119799D01*
X0255656Y0118924D01*
X0257944Y0118924D01*
X0260057Y0119799D01*
X0261675Y0121417D01*
X0262550Y0123530D01*
X0262550Y0125818D01*
X0261675Y0127931D01*
X0260057Y0129549D01*
X0257944Y0130424D01*
X0255656Y0130424D01*
X0253543Y0129549D01*
X0251854Y0127759D02*
X0226746Y0127759D01*
X0227408Y0126161D02*
X0251192Y0126161D01*
X0251050Y0124562D02*
X0227550Y0124562D01*
X0227315Y0122964D02*
X0251285Y0122964D01*
X0251977Y0121365D02*
X0226623Y0121365D01*
X0224978Y0119767D02*
X0253621Y0119767D01*
X0259978Y0119767D02*
X0267682Y0119767D01*
X0266971Y0121365D02*
X0261623Y0121365D01*
X0262315Y0122964D02*
X0266543Y0122964D01*
X0266450Y0124562D02*
X0262550Y0124562D01*
X0262408Y0126161D02*
X0266483Y0126161D01*
X0266912Y0127759D02*
X0261746Y0127759D01*
X0260248Y0129358D02*
X0267553Y0129358D01*
X0268476Y0130956D02*
X0210124Y0130956D01*
X0208556Y0132555D02*
X0270044Y0132555D01*
X0272519Y0134153D02*
X0259935Y0134153D01*
X0259564Y0133782D02*
X0260487Y0134705D01*
X0260987Y0135911D01*
X0260987Y0137216D01*
X0260487Y0138422D01*
X0259564Y0139345D01*
X0258358Y0139845D01*
X0257053Y0139845D01*
X0255847Y0139345D01*
X0255265Y0138764D01*
X0230618Y0138764D01*
X0230037Y0139345D01*
X0228831Y0139845D01*
X0227525Y0139845D01*
X0226319Y0139345D01*
X0225396Y0138422D01*
X0224897Y0137216D01*
X0224897Y0135911D01*
X0225396Y0134705D01*
X0226319Y0133782D01*
X0227525Y0133283D01*
X0228831Y0133283D01*
X0230037Y0133782D01*
X0230618Y0134364D01*
X0255265Y0134364D01*
X0255847Y0133782D01*
X0257053Y0133283D01*
X0258358Y0133283D01*
X0259564Y0133782D01*
X0260921Y0135752D02*
X0326272Y0135752D01*
X0326272Y0137350D02*
X0260931Y0137350D01*
X0259960Y0138949D02*
X0326272Y0138949D01*
X0326272Y0140547D02*
X0021717Y0140547D01*
X0021717Y0138949D02*
X0076317Y0138949D01*
X0076713Y0139345D02*
X0075790Y0138422D01*
X0075291Y0137216D01*
X0075291Y0135911D01*
X0075790Y0134705D01*
X0076713Y0133782D01*
X0077919Y0133283D01*
X0079224Y0133283D01*
X0080430Y0133782D01*
X0081012Y0134364D01*
X0107628Y0134364D01*
X0108209Y0133782D01*
X0109415Y0133283D01*
X0110720Y0133283D01*
X0111926Y0133782D01*
X0112849Y0134705D01*
X0113349Y0135911D01*
X0113349Y0137216D01*
X0112849Y0138422D01*
X0111926Y0139345D01*
X0110720Y0139845D01*
X0109415Y0139845D01*
X0108209Y0139345D01*
X0107628Y0138764D01*
X0081012Y0138764D01*
X0080430Y0139345D01*
X0079224Y0139845D01*
X0077919Y0139845D01*
X0076713Y0139345D01*
X0075346Y0137350D02*
X0021717Y0137350D01*
X0021717Y0135752D02*
X0075356Y0135752D01*
X0076342Y0134153D02*
X0056081Y0134153D01*
X0058556Y0132555D02*
X0120044Y0132555D01*
X0118476Y0130956D02*
X0060124Y0130956D01*
X0061047Y0129358D02*
X0068352Y0129358D01*
X0066854Y0127759D02*
X0061688Y0127759D01*
X0062117Y0126161D02*
X0066192Y0126161D01*
X0066050Y0124562D02*
X0062150Y0124562D01*
X0062057Y0122964D02*
X0066285Y0122964D01*
X0066977Y0121365D02*
X0061629Y0121365D01*
X0060676Y0118168D02*
X0059931Y0118168D01*
X0060676Y0116570D02*
X0058333Y0116570D01*
X0060676Y0114971D02*
X0055578Y0114971D01*
X0060676Y0113373D02*
X0021717Y0113373D01*
X0021717Y0114971D02*
X0048022Y0114971D01*
X0045267Y0116570D02*
X0021717Y0116570D01*
X0021717Y0118168D02*
X0043669Y0118168D01*
X0042682Y0119767D02*
X0034978Y0119767D01*
X0035057Y0119799D02*
X0036675Y0121417D01*
X0037550Y0123530D01*
X0037550Y0125818D01*
X0036675Y0127931D01*
X0035057Y0129549D01*
X0032944Y0130424D01*
X0030656Y0130424D01*
X0028543Y0129549D01*
X0026925Y0127931D01*
X0026050Y0125818D01*
X0026050Y0123530D01*
X0026925Y0121417D01*
X0028543Y0119799D01*
X0030656Y0118924D01*
X0032944Y0118924D01*
X0035057Y0119799D01*
X0036623Y0121365D02*
X0041971Y0121365D01*
X0041543Y0122964D02*
X0037315Y0122964D01*
X0037550Y0124562D02*
X0041450Y0124562D01*
X0041483Y0126161D02*
X0037408Y0126161D01*
X0036746Y0127759D02*
X0041912Y0127759D01*
X0042553Y0129358D02*
X0035248Y0129358D01*
X0028352Y0129358D02*
X0021717Y0129358D01*
X0021717Y0130956D02*
X0043476Y0130956D01*
X0045044Y0132555D02*
X0021717Y0132555D01*
X0021717Y0134153D02*
X0047519Y0134153D01*
X0060727Y0151737D02*
X0021717Y0151737D01*
X0021717Y0150139D02*
X0326272Y0150139D01*
X0326272Y0151737D02*
X0263739Y0151737D01*
X0263501Y0151499D02*
X0264424Y0152422D01*
X0264924Y0153628D01*
X0264924Y0154933D01*
X0264424Y0156139D01*
X0263501Y0157062D01*
X0262295Y0157561D01*
X0260990Y0157561D01*
X0259784Y0157062D01*
X0259202Y0156480D01*
X0234555Y0156480D01*
X0233974Y0157062D01*
X0232768Y0157561D01*
X0231462Y0157561D01*
X0230256Y0157062D01*
X0229333Y0156139D01*
X0228834Y0154933D01*
X0228834Y0153628D01*
X0229333Y0152422D01*
X0230256Y0151499D01*
X0231462Y0150999D01*
X0232768Y0150999D01*
X0233974Y0151499D01*
X0234555Y0152080D01*
X0259202Y0152080D01*
X0259784Y0151499D01*
X0260990Y0150999D01*
X0262295Y0150999D01*
X0263501Y0151499D01*
X0264803Y0153336D02*
X0326272Y0153336D01*
X0326272Y0154934D02*
X0264923Y0154934D01*
X0264030Y0156533D02*
X0326272Y0156533D01*
X0326272Y0158131D02*
X0069786Y0158131D01*
X0071384Y0159730D02*
X0326272Y0159730D01*
X0326272Y0161328D02*
X0072983Y0161328D01*
X0074581Y0162927D02*
X0113071Y0162927D01*
X0114938Y0162927D02*
X0185906Y0162927D01*
X0187773Y0162927D02*
X0262677Y0162927D01*
X0264545Y0162927D02*
X0326272Y0162927D01*
X0326272Y0164525D02*
X0266514Y0164525D01*
X0266892Y0166124D02*
X0326272Y0166124D01*
X0326272Y0167722D02*
X0266487Y0167722D01*
X0263611Y0166091D02*
X0186839Y0166091D01*
X0114005Y0166091D01*
X0074635Y0166091D01*
X0062824Y0154280D01*
X0060436Y0156533D02*
X0021717Y0156533D01*
X0021717Y0158131D02*
X0063563Y0158131D01*
X0065162Y0159730D02*
X0021717Y0159730D01*
X0021717Y0161328D02*
X0066760Y0161328D01*
X0068359Y0162927D02*
X0021717Y0162927D01*
X0021717Y0164525D02*
X0069957Y0164525D01*
X0071556Y0166124D02*
X0021717Y0166124D01*
X0021717Y0167722D02*
X0073154Y0167722D01*
X0080650Y0157062D02*
X0081856Y0157561D01*
X0083161Y0157561D01*
X0084367Y0157062D01*
X0084949Y0156480D01*
X0109596Y0156480D01*
X0110178Y0157062D01*
X0111384Y0157561D01*
X0112689Y0157561D01*
X0113895Y0157062D01*
X0114818Y0156139D01*
X0115317Y0154933D01*
X0115317Y0153628D01*
X0114818Y0152422D01*
X0113895Y0151499D01*
X0112689Y0150999D01*
X0111384Y0150999D01*
X0110178Y0151499D01*
X0109596Y0152080D01*
X0084949Y0152080D01*
X0084367Y0151499D01*
X0083161Y0150999D01*
X0081856Y0150999D01*
X0080650Y0151499D01*
X0079727Y0152422D01*
X0079228Y0153628D01*
X0079228Y0154933D01*
X0079727Y0156139D01*
X0080650Y0157062D01*
X0080121Y0156533D02*
X0068187Y0156533D01*
X0066589Y0154934D02*
X0079228Y0154934D01*
X0079349Y0153336D02*
X0065984Y0153336D01*
X0064921Y0151737D02*
X0080412Y0151737D01*
X0082509Y0154280D02*
X0112036Y0154280D01*
X0109648Y0156533D02*
X0084897Y0156533D01*
X0084606Y0151737D02*
X0109939Y0151737D01*
X0114133Y0151737D02*
X0155215Y0151737D01*
X0155453Y0151499D02*
X0156659Y0150999D01*
X0157964Y0150999D01*
X0159170Y0151499D01*
X0159752Y0152080D01*
X0182431Y0152080D01*
X0183012Y0151499D01*
X0184218Y0150999D01*
X0185524Y0150999D01*
X0186729Y0151499D01*
X0187652Y0152422D01*
X0188152Y0153628D01*
X0188152Y0154933D01*
X0187652Y0156139D01*
X0186729Y0157062D01*
X0185524Y0157561D01*
X0184218Y0157561D01*
X0183012Y0157062D01*
X0182431Y0156480D01*
X0159752Y0156480D01*
X0159170Y0157062D01*
X0157964Y0157561D01*
X0156659Y0157561D01*
X0155453Y0157062D01*
X0154530Y0156139D01*
X0154031Y0154933D01*
X0154031Y0153628D01*
X0154530Y0152422D01*
X0155453Y0151499D01*
X0154152Y0153336D02*
X0115196Y0153336D01*
X0115317Y0154934D02*
X0154031Y0154934D01*
X0154924Y0156533D02*
X0114424Y0156533D01*
X0112323Y0138949D02*
X0151120Y0138949D01*
X0151516Y0139345D02*
X0150593Y0138422D01*
X0150094Y0137216D01*
X0150094Y0135911D01*
X0150593Y0134705D01*
X0151516Y0133782D01*
X0152722Y0133283D01*
X0154027Y0133283D01*
X0155233Y0133782D01*
X0155815Y0134364D01*
X0182431Y0134364D01*
X0183012Y0133782D01*
X0184218Y0133283D01*
X0185524Y0133283D01*
X0186729Y0133782D01*
X0187652Y0134705D01*
X0188152Y0135911D01*
X0188152Y0137216D01*
X0187652Y0138422D01*
X0186729Y0139345D01*
X0185524Y0139845D01*
X0184218Y0139845D01*
X0183012Y0139345D01*
X0182431Y0138764D01*
X0155815Y0138764D01*
X0155233Y0139345D01*
X0154027Y0139845D01*
X0152722Y0139845D01*
X0151516Y0139345D01*
X0150149Y0137350D02*
X0113293Y0137350D01*
X0113283Y0135752D02*
X0150160Y0135752D01*
X0151145Y0134153D02*
X0131081Y0134153D01*
X0133556Y0132555D02*
X0195044Y0132555D01*
X0193476Y0130956D02*
X0135124Y0130956D01*
X0136047Y0129358D02*
X0143352Y0129358D01*
X0141854Y0127759D02*
X0136688Y0127759D01*
X0137117Y0126161D02*
X0141192Y0126161D01*
X0141050Y0124562D02*
X0137150Y0124562D01*
X0137057Y0122964D02*
X0141285Y0122964D01*
X0141977Y0121365D02*
X0136629Y0121365D01*
X0135676Y0118168D02*
X0134931Y0118168D01*
X0135676Y0116570D02*
X0133333Y0116570D01*
X0135676Y0114971D02*
X0130578Y0114971D01*
X0135676Y0113373D02*
X0072924Y0113373D01*
X0072924Y0114971D02*
X0123022Y0114971D01*
X0120267Y0116570D02*
X0072924Y0116570D01*
X0072924Y0118168D02*
X0118669Y0118168D01*
X0117682Y0119767D02*
X0109978Y0119767D01*
X0110057Y0119799D02*
X0111675Y0121417D01*
X0112550Y0123530D01*
X0112550Y0125818D01*
X0111675Y0127931D01*
X0110057Y0129549D01*
X0107944Y0130424D01*
X0105656Y0130424D01*
X0103543Y0129549D01*
X0101925Y0127931D01*
X0101050Y0125818D01*
X0101050Y0123530D01*
X0101925Y0121417D01*
X0103543Y0119799D01*
X0105656Y0118924D01*
X0107944Y0118924D01*
X0110057Y0119799D01*
X0111623Y0121365D02*
X0116971Y0121365D01*
X0116543Y0122964D02*
X0112315Y0122964D01*
X0112550Y0124562D02*
X0116450Y0124562D01*
X0116483Y0126161D02*
X0112408Y0126161D01*
X0111746Y0127759D02*
X0116912Y0127759D01*
X0117553Y0129358D02*
X0110248Y0129358D01*
X0112298Y0134153D02*
X0122519Y0134153D01*
X0110068Y0136564D02*
X0078572Y0136564D01*
X0080827Y0138949D02*
X0107813Y0138949D01*
X0107838Y0134153D02*
X0080801Y0134153D01*
X0075248Y0129358D02*
X0103352Y0129358D01*
X0101854Y0127759D02*
X0076746Y0127759D01*
X0077408Y0126161D02*
X0101192Y0126161D01*
X0101050Y0124562D02*
X0077550Y0124562D01*
X0077315Y0122964D02*
X0101285Y0122964D01*
X0101977Y0121365D02*
X0076623Y0121365D01*
X0074978Y0119767D02*
X0103621Y0119767D01*
X0111496Y0110798D02*
X0110676Y0109978D01*
X0110676Y0099370D01*
X0111496Y0098550D01*
X0122104Y0098550D01*
X0122924Y0099370D01*
X0122924Y0109978D01*
X0122104Y0110798D01*
X0111496Y0110798D01*
X0110873Y0110176D02*
X0072924Y0110176D01*
X0072924Y0111774D02*
X0135676Y0111774D01*
X0135676Y0110176D02*
X0122727Y0110176D01*
X0122924Y0108577D02*
X0136468Y0108577D01*
X0139364Y0106979D02*
X0122924Y0106979D01*
X0122924Y0105380D02*
X0138765Y0105380D01*
X0137167Y0103782D02*
X0122924Y0103782D01*
X0122924Y0102183D02*
X0135568Y0102183D01*
X0133969Y0100585D02*
X0122924Y0100585D01*
X0122541Y0098986D02*
X0132371Y0098986D01*
X0131721Y0095225D02*
X0056918Y0095225D01*
X0066761Y0105068D01*
X0066761Y0114635D01*
X0066800Y0114674D01*
X0060676Y0111774D02*
X0021717Y0111774D01*
X0021717Y0110176D02*
X0035873Y0110176D01*
X0035676Y0109978D02*
X0036496Y0110798D01*
X0047104Y0110798D01*
X0047924Y0109978D01*
X0047924Y0099370D01*
X0047104Y0098550D01*
X0036496Y0098550D01*
X0035676Y0099370D01*
X0035676Y0109978D01*
X0035676Y0108577D02*
X0021717Y0108577D01*
X0021717Y0106979D02*
X0035676Y0106979D01*
X0035676Y0105380D02*
X0022315Y0105380D01*
X0023914Y0103782D02*
X0035676Y0103782D01*
X0035676Y0102183D02*
X0025512Y0102183D01*
X0027111Y0100585D02*
X0035676Y0100585D01*
X0036059Y0098986D02*
X0028709Y0098986D01*
X0029359Y0095225D02*
X0056918Y0095225D01*
X0057568Y0098986D02*
X0047541Y0098986D01*
X0047924Y0100585D02*
X0059166Y0100585D01*
X0060765Y0102183D02*
X0047924Y0102183D01*
X0047924Y0103782D02*
X0062363Y0103782D01*
X0063962Y0105380D02*
X0047924Y0105380D01*
X0047924Y0106979D02*
X0064561Y0106979D01*
X0061468Y0108577D02*
X0047924Y0108577D01*
X0047727Y0110176D02*
X0060676Y0110176D01*
X0068961Y0106979D02*
X0110676Y0106979D01*
X0110676Y0108577D02*
X0072132Y0108577D01*
X0068961Y0105380D02*
X0110676Y0105380D01*
X0110676Y0103782D02*
X0068586Y0103782D01*
X0066987Y0102183D02*
X0110676Y0102183D01*
X0110676Y0100585D02*
X0065389Y0100585D01*
X0063790Y0098986D02*
X0111059Y0098986D01*
X0112036Y0091288D02*
X0188808Y0091288D01*
X0263611Y0091288D01*
X0266622Y0092592D02*
X0326272Y0092592D01*
X0326272Y0090994D02*
X0266892Y0090994D01*
X0266358Y0089395D02*
X0326272Y0089395D01*
X0326272Y0087797D02*
X0074254Y0087797D01*
X0072656Y0086198D02*
X0326272Y0086198D01*
X0326272Y0084600D02*
X0262602Y0084600D01*
X0260683Y0084600D02*
X0071057Y0084600D01*
X0069459Y0083001D02*
X0232528Y0083001D01*
X0234083Y0081446D02*
X0232115Y0079477D01*
X0234083Y0081446D02*
X0261643Y0081446D01*
X0264924Y0081403D02*
X0326272Y0081403D01*
X0326272Y0083001D02*
X0264550Y0083001D01*
X0264514Y0079804D02*
X0326272Y0079804D01*
X0326272Y0078206D02*
X0262394Y0078206D01*
X0260891Y0078206D02*
X0235140Y0078206D01*
X0233760Y0076607D02*
X0326272Y0076607D01*
X0326272Y0075009D02*
X0017780Y0075009D01*
X0017780Y0076607D02*
X0061179Y0076607D01*
X0059799Y0078206D02*
X0017780Y0078206D01*
X0017780Y0079804D02*
X0059543Y0079804D01*
X0060109Y0081403D02*
X0017780Y0081403D01*
X0017780Y0083001D02*
X0063236Y0083001D01*
X0064835Y0084600D02*
X0017780Y0084600D01*
X0017780Y0086198D02*
X0066433Y0086198D01*
X0068032Y0087797D02*
X0017780Y0087797D01*
X0017780Y0089395D02*
X0069630Y0089395D01*
X0071229Y0090994D02*
X0017780Y0090994D01*
X0017780Y0092592D02*
X0072827Y0092592D01*
X0074635Y0091288D02*
X0112036Y0091288D01*
X0112036Y0079477D02*
X0082509Y0079477D01*
X0079484Y0078206D02*
X0065848Y0078206D01*
X0066262Y0079804D02*
X0079228Y0079804D01*
X0079794Y0081403D02*
X0067860Y0081403D01*
X0064468Y0076607D02*
X0080864Y0076607D01*
X0084153Y0076607D02*
X0110391Y0076607D01*
X0141564Y0105068D02*
X0141564Y0114438D01*
X0141800Y0114674D01*
X0147924Y0114971D02*
X0198022Y0114971D01*
X0195267Y0116570D02*
X0147924Y0116570D01*
X0147924Y0118168D02*
X0193669Y0118168D01*
X0192682Y0119767D02*
X0184978Y0119767D01*
X0185057Y0119799D02*
X0186675Y0121417D01*
X0187550Y0123530D01*
X0187550Y0125818D01*
X0186675Y0127931D01*
X0185057Y0129549D01*
X0182944Y0130424D01*
X0180656Y0130424D01*
X0178543Y0129549D01*
X0176925Y0127931D01*
X0176050Y0125818D01*
X0176050Y0123530D01*
X0176925Y0121417D01*
X0178543Y0119799D01*
X0180656Y0118924D01*
X0182944Y0118924D01*
X0185057Y0119799D01*
X0186623Y0121365D02*
X0191971Y0121365D01*
X0191543Y0122964D02*
X0187315Y0122964D01*
X0187550Y0124562D02*
X0191450Y0124562D01*
X0191483Y0126161D02*
X0187408Y0126161D01*
X0186746Y0127759D02*
X0191912Y0127759D01*
X0192553Y0129358D02*
X0185248Y0129358D01*
X0187101Y0134153D02*
X0197519Y0134153D01*
X0206081Y0134153D02*
X0225948Y0134153D01*
X0224963Y0135752D02*
X0188086Y0135752D01*
X0188096Y0137350D02*
X0224952Y0137350D01*
X0225923Y0138949D02*
X0187126Y0138949D01*
X0184871Y0136564D02*
X0153375Y0136564D01*
X0155630Y0138949D02*
X0182616Y0138949D01*
X0182641Y0134153D02*
X0155605Y0134153D01*
X0150248Y0129358D02*
X0178352Y0129358D01*
X0176854Y0127759D02*
X0151746Y0127759D01*
X0152408Y0126161D02*
X0176192Y0126161D01*
X0176050Y0124562D02*
X0152550Y0124562D01*
X0152315Y0122964D02*
X0176285Y0122964D01*
X0176977Y0121365D02*
X0151623Y0121365D01*
X0149978Y0119767D02*
X0178621Y0119767D01*
X0185873Y0110176D02*
X0147924Y0110176D01*
X0147924Y0111774D02*
X0210676Y0111774D01*
X0210676Y0110176D02*
X0197727Y0110176D01*
X0197924Y0108577D02*
X0211468Y0108577D01*
X0214167Y0106979D02*
X0197924Y0106979D01*
X0197924Y0105380D02*
X0213568Y0105380D01*
X0211970Y0103782D02*
X0197924Y0103782D01*
X0197924Y0102183D02*
X0210371Y0102183D01*
X0208773Y0100585D02*
X0197924Y0100585D01*
X0197541Y0098986D02*
X0207174Y0098986D01*
X0206524Y0095225D02*
X0281328Y0095225D01*
X0291800Y0105698D01*
X0291800Y0114674D01*
X0291977Y0121365D02*
X0286629Y0121365D01*
X0287057Y0122964D02*
X0291285Y0122964D01*
X0291050Y0124562D02*
X0287150Y0124562D01*
X0287117Y0126161D02*
X0291192Y0126161D01*
X0291854Y0127759D02*
X0286688Y0127759D01*
X0286047Y0129358D02*
X0293352Y0129358D01*
X0300248Y0129358D02*
X0326272Y0129358D01*
X0326272Y0130956D02*
X0285124Y0130956D01*
X0283556Y0132555D02*
X0326272Y0132555D01*
X0326272Y0134153D02*
X0281081Y0134153D01*
X0284931Y0118168D02*
X0285676Y0118168D01*
X0285676Y0116570D02*
X0283333Y0116570D01*
X0285676Y0114971D02*
X0280578Y0114971D01*
X0285676Y0113373D02*
X0222924Y0113373D01*
X0222924Y0114971D02*
X0273022Y0114971D01*
X0270267Y0116570D02*
X0222924Y0116570D01*
X0222924Y0118168D02*
X0268669Y0118168D01*
X0272104Y0110798D02*
X0261496Y0110798D01*
X0260676Y0109978D01*
X0260676Y0099370D01*
X0261496Y0098550D01*
X0272104Y0098550D01*
X0272924Y0099370D01*
X0272924Y0109978D01*
X0272104Y0110798D01*
X0272727Y0110176D02*
X0285676Y0110176D01*
X0285676Y0111774D02*
X0222924Y0111774D01*
X0222924Y0110176D02*
X0260873Y0110176D01*
X0260676Y0108577D02*
X0222132Y0108577D01*
X0218567Y0106979D02*
X0260676Y0106979D01*
X0260676Y0105380D02*
X0218567Y0105380D01*
X0218192Y0103782D02*
X0260676Y0103782D01*
X0260676Y0102183D02*
X0216594Y0102183D01*
X0214995Y0100585D02*
X0260676Y0100585D01*
X0261059Y0098986D02*
X0213397Y0098986D01*
X0210676Y0113373D02*
X0147924Y0113373D01*
X0147132Y0108577D02*
X0185676Y0108577D01*
X0205578Y0114971D02*
X0210676Y0114971D01*
X0210676Y0116570D02*
X0208333Y0116570D01*
X0209931Y0118168D02*
X0210676Y0118168D01*
X0228178Y0136564D02*
X0257706Y0136564D01*
X0255451Y0138949D02*
X0230433Y0138949D01*
X0230408Y0134153D02*
X0255476Y0134153D01*
X0259546Y0151737D02*
X0234212Y0151737D01*
X0232115Y0154280D02*
X0261643Y0154280D01*
X0259255Y0156533D02*
X0234503Y0156533D01*
X0229727Y0156533D02*
X0187259Y0156533D01*
X0188152Y0154934D02*
X0228834Y0154934D01*
X0228955Y0153336D02*
X0188031Y0153336D01*
X0186968Y0151737D02*
X0230018Y0151737D01*
X0212125Y0172518D02*
X0280706Y0172518D01*
X0282304Y0174116D02*
X0272671Y0174116D01*
X0272924Y0174370D02*
X0272924Y0184978D01*
X0272104Y0185798D01*
X0261496Y0185798D01*
X0260676Y0184978D01*
X0260676Y0174370D01*
X0261496Y0173550D01*
X0272104Y0173550D01*
X0272924Y0174370D01*
X0272924Y0175715D02*
X0283903Y0175715D01*
X0285501Y0177313D02*
X0272924Y0177313D01*
X0272924Y0178912D02*
X0287100Y0178912D01*
X0288698Y0180510D02*
X0272924Y0180510D01*
X0272924Y0182109D02*
X0289600Y0182109D01*
X0291800Y0180501D02*
X0291800Y0189674D01*
X0297924Y0190101D02*
X0326272Y0190101D01*
X0326272Y0188503D02*
X0297924Y0188503D01*
X0297924Y0186904D02*
X0326272Y0186904D01*
X0326272Y0185306D02*
X0297924Y0185306D01*
X0297262Y0183707D02*
X0326272Y0183707D01*
X0326272Y0182109D02*
X0294000Y0182109D01*
X0294000Y0180510D02*
X0326272Y0180510D01*
X0326272Y0178912D02*
X0293322Y0178912D01*
X0291800Y0180501D02*
X0281328Y0170028D01*
X0206524Y0170028D01*
X0216367Y0179871D01*
X0216367Y0189241D01*
X0216800Y0189674D01*
X0222924Y0190101D02*
X0272680Y0190101D01*
X0270137Y0191700D02*
X0222924Y0191700D01*
X0222924Y0193298D02*
X0268539Y0193298D01*
X0267607Y0194897D02*
X0260155Y0194897D01*
X0260057Y0194799D02*
X0261675Y0196417D01*
X0262550Y0198530D01*
X0262550Y0200818D01*
X0261675Y0202931D01*
X0260057Y0204549D01*
X0257944Y0205424D01*
X0255656Y0205424D01*
X0253543Y0204549D01*
X0251925Y0202931D01*
X0251050Y0200818D01*
X0251050Y0198530D01*
X0251925Y0196417D01*
X0253543Y0194799D01*
X0255656Y0193924D01*
X0257944Y0193924D01*
X0260057Y0194799D01*
X0261707Y0196495D02*
X0266937Y0196495D01*
X0266508Y0198094D02*
X0262369Y0198094D01*
X0262550Y0199692D02*
X0266450Y0199692D01*
X0266518Y0201291D02*
X0262354Y0201291D01*
X0261692Y0202889D02*
X0266946Y0202889D01*
X0267628Y0204488D02*
X0260118Y0204488D01*
X0258358Y0208086D02*
X0259564Y0208585D01*
X0260487Y0209508D01*
X0260987Y0210714D01*
X0260987Y0212020D01*
X0260487Y0213226D01*
X0259564Y0214148D01*
X0258358Y0214648D01*
X0257053Y0214648D01*
X0255847Y0214148D01*
X0255265Y0213567D01*
X0230618Y0213567D01*
X0230037Y0214148D01*
X0228831Y0214648D01*
X0227525Y0214648D01*
X0226319Y0214148D01*
X0225396Y0213226D01*
X0224897Y0212020D01*
X0224897Y0210714D01*
X0225396Y0209508D01*
X0226319Y0208585D01*
X0227525Y0208086D01*
X0228831Y0208086D01*
X0230037Y0208585D01*
X0230618Y0209167D01*
X0255265Y0209167D01*
X0255847Y0208585D01*
X0257053Y0208086D01*
X0258358Y0208086D01*
X0260262Y0209283D02*
X0272744Y0209283D01*
X0270174Y0207685D02*
X0208426Y0207685D01*
X0210025Y0206086D02*
X0268575Y0206086D01*
X0260987Y0210882D02*
X0326272Y0210882D01*
X0326272Y0212480D02*
X0260796Y0212480D01*
X0259634Y0214079D02*
X0326272Y0214079D01*
X0326272Y0215678D02*
X0025654Y0215678D01*
X0025654Y0217276D02*
X0326272Y0217276D01*
X0326272Y0218875D02*
X0025654Y0218875D01*
X0025654Y0220473D02*
X0326272Y0220473D01*
X0326272Y0222072D02*
X0025654Y0222072D01*
X0025654Y0223670D02*
X0326272Y0223670D01*
X0326272Y0225269D02*
X0025654Y0225269D01*
X0025654Y0226867D02*
X0054494Y0226867D01*
X0053637Y0228466D02*
X0025654Y0228466D01*
X0025654Y0230064D02*
X0053773Y0230064D01*
X0054857Y0231663D02*
X0025654Y0231663D01*
X0025654Y0233261D02*
X0057985Y0233261D01*
X0059583Y0234860D02*
X0025654Y0234860D01*
X0025654Y0236458D02*
X0061182Y0236458D01*
X0062780Y0238057D02*
X0025654Y0238057D01*
X0025654Y0239655D02*
X0064379Y0239655D01*
X0065977Y0241254D02*
X0025654Y0241254D01*
X0025654Y0242852D02*
X0067576Y0242852D01*
X0068729Y0240894D02*
X0112036Y0240894D01*
X0186839Y0240894D01*
X0261643Y0240894D01*
X0264681Y0239655D02*
X0326272Y0239655D01*
X0326272Y0238057D02*
X0263365Y0238057D01*
X0259920Y0238057D02*
X0188562Y0238057D01*
X0185117Y0238057D02*
X0113759Y0238057D01*
X0110313Y0238057D02*
X0069003Y0238057D01*
X0067404Y0236458D02*
X0326272Y0236458D01*
X0326272Y0234860D02*
X0065806Y0234860D01*
X0064207Y0233261D02*
X0326272Y0233261D01*
X0326272Y0231663D02*
X0261735Y0231663D01*
X0261533Y0231865D02*
X0262456Y0230942D01*
X0262955Y0229736D01*
X0262955Y0228431D01*
X0262456Y0227225D01*
X0261533Y0226302D01*
X0260327Y0225802D01*
X0259021Y0225802D01*
X0257815Y0226302D01*
X0257234Y0226883D01*
X0234555Y0226883D01*
X0233974Y0226302D01*
X0232768Y0225802D01*
X0231462Y0225802D01*
X0230256Y0226302D01*
X0229333Y0227225D01*
X0228834Y0228431D01*
X0228834Y0229736D01*
X0229333Y0230942D01*
X0230256Y0231865D01*
X0231462Y0232365D01*
X0232768Y0232365D01*
X0233974Y0231865D01*
X0234555Y0231283D01*
X0257234Y0231283D01*
X0257815Y0231865D01*
X0259021Y0232365D01*
X0260327Y0232365D01*
X0261533Y0231865D01*
X0262819Y0230064D02*
X0326272Y0230064D01*
X0326272Y0228466D02*
X0262955Y0228466D01*
X0262098Y0226867D02*
X0326272Y0226867D01*
X0326272Y0241254D02*
X0264924Y0241254D01*
X0261496Y0248550D02*
X0272104Y0248550D01*
X0272924Y0249370D01*
X0272924Y0259978D01*
X0272104Y0260798D01*
X0261496Y0260798D01*
X0260676Y0259978D01*
X0260676Y0249370D01*
X0261496Y0248550D01*
X0260799Y0249246D02*
X0222937Y0249246D01*
X0221339Y0250845D02*
X0260676Y0250845D01*
X0260676Y0252443D02*
X0219740Y0252443D01*
X0218567Y0254042D02*
X0260676Y0254042D01*
X0260676Y0255640D02*
X0218567Y0255640D01*
X0218567Y0257239D02*
X0260676Y0257239D01*
X0260676Y0258837D02*
X0222392Y0258837D01*
X0222924Y0260436D02*
X0261133Y0260436D01*
X0257944Y0268924D02*
X0255656Y0268924D01*
X0253543Y0269799D01*
X0251925Y0271417D01*
X0251050Y0273530D01*
X0251050Y0275818D01*
X0251925Y0277931D01*
X0253543Y0279549D01*
X0255656Y0280424D01*
X0257944Y0280424D01*
X0260057Y0279549D01*
X0261675Y0277931D01*
X0262550Y0275818D01*
X0262550Y0273530D01*
X0261675Y0271417D01*
X0260057Y0269799D01*
X0257944Y0268924D01*
X0260285Y0270027D02*
X0267532Y0270027D01*
X0266902Y0271625D02*
X0261761Y0271625D01*
X0262423Y0273224D02*
X0266473Y0273224D01*
X0266450Y0274822D02*
X0262550Y0274822D01*
X0262300Y0276421D02*
X0266553Y0276421D01*
X0266981Y0278019D02*
X0261586Y0278019D01*
X0259890Y0279618D02*
X0267703Y0279618D01*
X0268705Y0281216D02*
X0216598Y0281216D01*
X0216598Y0279618D02*
X0218710Y0279618D01*
X0217014Y0278019D02*
X0216598Y0278019D01*
X0212198Y0278019D02*
X0211619Y0278019D01*
X0212047Y0276421D02*
X0212198Y0276421D01*
X0212150Y0274822D02*
X0212198Y0274822D01*
X0212198Y0273224D02*
X0212127Y0273224D01*
X0212198Y0271625D02*
X0211698Y0271625D01*
X0210676Y0268428D02*
X0210145Y0268428D01*
X0210676Y0266830D02*
X0208593Y0266830D01*
X0210676Y0265231D02*
X0206145Y0265231D01*
X0210676Y0263633D02*
X0147924Y0263633D01*
X0147924Y0265231D02*
X0197455Y0265231D01*
X0195007Y0266830D02*
X0147924Y0266830D01*
X0147924Y0268428D02*
X0193455Y0268428D01*
X0192532Y0270027D02*
X0185285Y0270027D01*
X0185057Y0269799D02*
X0186675Y0271417D01*
X0187550Y0273530D01*
X0187550Y0275818D01*
X0186675Y0277931D01*
X0185057Y0279549D01*
X0182944Y0280424D01*
X0180656Y0280424D01*
X0178543Y0279549D01*
X0176925Y0277931D01*
X0176050Y0275818D01*
X0176050Y0273530D01*
X0176925Y0271417D01*
X0178543Y0269799D01*
X0180656Y0268924D01*
X0182944Y0268924D01*
X0185057Y0269799D01*
X0186761Y0271625D02*
X0191902Y0271625D01*
X0191473Y0273224D02*
X0187423Y0273224D01*
X0187550Y0274822D02*
X0191450Y0274822D01*
X0191553Y0276421D02*
X0187300Y0276421D01*
X0186586Y0278019D02*
X0191981Y0278019D01*
X0192703Y0279618D02*
X0184890Y0279618D01*
X0185524Y0282889D02*
X0186729Y0283388D01*
X0187652Y0284311D01*
X0188152Y0285517D01*
X0188152Y0286823D01*
X0187652Y0288029D01*
X0186729Y0288952D01*
X0185524Y0289451D01*
X0184218Y0289451D01*
X0183012Y0288952D01*
X0182431Y0288370D01*
X0155815Y0288370D01*
X0155233Y0288952D01*
X0154027Y0289451D01*
X0152722Y0289451D01*
X0151516Y0288952D01*
X0150593Y0288029D01*
X0150094Y0286823D01*
X0150094Y0285517D01*
X0150593Y0284311D01*
X0151516Y0283388D01*
X0152722Y0282889D01*
X0154027Y0282889D01*
X0155233Y0283388D01*
X0155815Y0283970D01*
X0182431Y0283970D01*
X0183012Y0283388D01*
X0184218Y0282889D01*
X0185524Y0282889D01*
X0187695Y0284413D02*
X0198159Y0284413D01*
X0195304Y0282815D02*
X0133296Y0282815D01*
X0134895Y0281216D02*
X0193705Y0281216D01*
X0188152Y0286012D02*
X0209477Y0286012D01*
X0211075Y0284413D02*
X0205441Y0284413D01*
X0208296Y0282815D02*
X0212198Y0282815D01*
X0212198Y0281216D02*
X0209895Y0281216D01*
X0210897Y0279618D02*
X0212198Y0279618D01*
X0214398Y0284202D02*
X0214398Y0268454D01*
X0216367Y0266485D01*
X0216367Y0252706D01*
X0224241Y0244831D01*
X0228178Y0244831D01*
X0283296Y0244831D01*
X0291170Y0252706D01*
X0291170Y0264044D01*
X0291800Y0264674D01*
X0297924Y0265231D02*
X0326272Y0265231D01*
X0326272Y0263633D02*
X0297924Y0263633D01*
X0297924Y0262034D02*
X0326272Y0262034D01*
X0326272Y0260436D02*
X0297924Y0260436D01*
X0297392Y0258837D02*
X0326272Y0258837D01*
X0326272Y0257239D02*
X0293370Y0257239D01*
X0293370Y0255640D02*
X0326272Y0255640D01*
X0326272Y0254042D02*
X0293370Y0254042D01*
X0293370Y0252443D02*
X0326272Y0252443D01*
X0326272Y0250845D02*
X0292421Y0250845D01*
X0290822Y0249246D02*
X0326272Y0249246D01*
X0326272Y0247648D02*
X0289224Y0247648D01*
X0287625Y0246049D02*
X0326272Y0246049D01*
X0326272Y0244451D02*
X0286027Y0244451D01*
X0284428Y0242852D02*
X0326272Y0242852D01*
X0326272Y0266830D02*
X0297924Y0266830D01*
X0297924Y0268428D02*
X0326272Y0268428D01*
X0326272Y0270027D02*
X0300285Y0270027D01*
X0301761Y0271625D02*
X0326272Y0271625D01*
X0326272Y0273224D02*
X0302423Y0273224D01*
X0302550Y0274822D02*
X0326272Y0274822D01*
X0326272Y0276421D02*
X0302300Y0276421D01*
X0301586Y0278019D02*
X0326272Y0278019D01*
X0326272Y0279618D02*
X0299890Y0279618D01*
X0293710Y0279618D02*
X0285897Y0279618D01*
X0286619Y0278019D02*
X0292014Y0278019D01*
X0291300Y0276421D02*
X0287047Y0276421D01*
X0287150Y0274822D02*
X0291050Y0274822D01*
X0291177Y0273224D02*
X0287127Y0273224D01*
X0286698Y0271625D02*
X0291839Y0271625D01*
X0285676Y0268428D02*
X0285145Y0268428D01*
X0285676Y0266830D02*
X0283593Y0266830D01*
X0285676Y0265231D02*
X0281145Y0265231D01*
X0285676Y0263633D02*
X0222924Y0263633D01*
X0222924Y0265231D02*
X0272455Y0265231D01*
X0270007Y0266830D02*
X0222924Y0266830D01*
X0222924Y0268428D02*
X0268455Y0268428D01*
X0272467Y0260436D02*
X0285676Y0260436D01*
X0285676Y0262034D02*
X0222924Y0262034D01*
X0216800Y0264674D02*
X0216800Y0266052D01*
X0216367Y0266485D01*
X0210676Y0262034D02*
X0147924Y0262034D01*
X0147924Y0260436D02*
X0186133Y0260436D01*
X0186496Y0260798D02*
X0185676Y0259978D01*
X0185676Y0249370D01*
X0186496Y0248550D01*
X0197104Y0248550D01*
X0197924Y0249370D01*
X0197924Y0259978D01*
X0197104Y0260798D01*
X0186496Y0260798D01*
X0185676Y0258837D02*
X0147392Y0258837D01*
X0143764Y0257239D02*
X0185676Y0257239D01*
X0185676Y0255640D02*
X0143764Y0255640D01*
X0145307Y0254042D02*
X0185676Y0254042D01*
X0185676Y0252443D02*
X0146906Y0252443D01*
X0148504Y0250845D02*
X0185676Y0250845D01*
X0185799Y0249246D02*
X0150103Y0249246D01*
X0151701Y0247648D02*
X0218313Y0247648D01*
X0216715Y0249246D02*
X0197801Y0249246D01*
X0197924Y0250845D02*
X0215116Y0250845D01*
X0214167Y0252443D02*
X0197924Y0252443D01*
X0197924Y0254042D02*
X0214167Y0254042D01*
X0214167Y0255640D02*
X0197924Y0255640D01*
X0197924Y0257239D02*
X0214167Y0257239D01*
X0211208Y0258837D02*
X0197924Y0258837D01*
X0197467Y0260436D02*
X0210676Y0260436D01*
X0225285Y0270027D02*
X0253315Y0270027D01*
X0251839Y0271625D02*
X0226761Y0271625D01*
X0227423Y0273224D02*
X0251177Y0273224D01*
X0251050Y0274822D02*
X0227550Y0274822D01*
X0227300Y0276421D02*
X0251300Y0276421D01*
X0252014Y0278019D02*
X0226586Y0278019D01*
X0224890Y0279618D02*
X0253710Y0279618D01*
X0255847Y0283388D02*
X0257053Y0282889D01*
X0258358Y0282889D01*
X0259564Y0283388D01*
X0260487Y0284311D01*
X0260987Y0285517D01*
X0260987Y0286823D01*
X0260487Y0288029D01*
X0259564Y0288952D01*
X0258358Y0289451D01*
X0257053Y0289451D01*
X0255847Y0288952D01*
X0255265Y0288370D01*
X0230618Y0288370D01*
X0230037Y0288952D01*
X0228831Y0289451D01*
X0227525Y0289451D01*
X0226319Y0288952D01*
X0225396Y0288029D01*
X0224897Y0286823D01*
X0224897Y0285517D01*
X0225396Y0284311D01*
X0226319Y0283388D01*
X0227525Y0282889D01*
X0228831Y0282889D01*
X0230037Y0283388D01*
X0230618Y0283970D01*
X0255265Y0283970D01*
X0255847Y0283388D01*
X0257706Y0286170D02*
X0228178Y0286170D01*
X0229415Y0289209D02*
X0238336Y0289209D01*
X0236963Y0290808D02*
X0210904Y0290808D01*
X0209305Y0292406D02*
X0236708Y0292406D01*
X0237278Y0294005D02*
X0207707Y0294005D01*
X0206756Y0295603D02*
X0237789Y0295603D01*
X0237789Y0297202D02*
X0206756Y0297202D01*
X0206756Y0298800D02*
X0237789Y0298800D01*
X0237789Y0300399D02*
X0206756Y0300399D01*
X0206756Y0301997D02*
X0237789Y0301997D01*
X0238752Y0303596D02*
X0206756Y0303596D01*
X0206756Y0305194D02*
X0240351Y0305194D01*
X0241949Y0306793D02*
X0206756Y0306793D01*
X0206756Y0308391D02*
X0243548Y0308391D01*
X0245146Y0309990D02*
X0206756Y0309990D01*
X0206756Y0311588D02*
X0246745Y0311588D01*
X0248343Y0313187D02*
X0206756Y0313187D01*
X0206756Y0314785D02*
X0249942Y0314785D01*
X0251540Y0316384D02*
X0206756Y0316384D01*
X0206756Y0317982D02*
X0209587Y0317982D01*
X0207200Y0319581D02*
X0206756Y0319581D01*
X0204556Y0319438D02*
X0204556Y0294044D01*
X0214398Y0284202D01*
X0216598Y0284413D02*
X0225354Y0284413D01*
X0224897Y0286012D02*
X0215699Y0286012D01*
X0214101Y0287611D02*
X0225223Y0287611D01*
X0226941Y0289209D02*
X0212502Y0289209D01*
X0207878Y0287611D02*
X0187826Y0287611D01*
X0186108Y0289209D02*
X0206280Y0289209D01*
X0204681Y0290808D02*
X0025654Y0290808D01*
X0025654Y0292406D02*
X0203083Y0292406D01*
X0202356Y0294005D02*
X0191440Y0294005D01*
X0191589Y0294154D02*
X0192089Y0295360D01*
X0192089Y0296665D01*
X0191589Y0297871D01*
X0191008Y0298453D01*
X0191008Y0306766D01*
X0190120Y0307654D01*
X0190120Y0308476D01*
X0189621Y0309682D01*
X0188698Y0310605D01*
X0187492Y0311105D01*
X0186187Y0311105D01*
X0184981Y0310605D01*
X0184058Y0309682D01*
X0183558Y0308476D01*
X0183558Y0307171D01*
X0184058Y0305965D01*
X0184981Y0305042D01*
X0186187Y0304543D01*
X0186608Y0304543D01*
X0186608Y0298453D01*
X0186026Y0297871D01*
X0185527Y0296665D01*
X0185527Y0295360D01*
X0186026Y0294154D01*
X0186949Y0293231D01*
X0188155Y0292731D01*
X0189461Y0292731D01*
X0190666Y0293231D01*
X0191589Y0294154D01*
X0192089Y0295603D02*
X0202356Y0295603D01*
X0202356Y0297202D02*
X0191867Y0297202D01*
X0191008Y0298800D02*
X0202356Y0298800D01*
X0202356Y0300399D02*
X0191008Y0300399D01*
X0191008Y0301997D02*
X0202356Y0301997D01*
X0202356Y0303596D02*
X0191008Y0303596D01*
X0191008Y0305194D02*
X0202356Y0305194D01*
X0202356Y0306793D02*
X0190982Y0306793D01*
X0190120Y0308391D02*
X0202356Y0308391D01*
X0202356Y0309990D02*
X0189313Y0309990D01*
X0186839Y0307824D02*
X0188808Y0305855D01*
X0188808Y0296013D01*
X0185749Y0297202D02*
X0115265Y0297202D01*
X0115317Y0297328D02*
X0115317Y0298634D01*
X0114818Y0299840D01*
X0114236Y0300421D01*
X0114236Y0302829D01*
X0111380Y0305685D01*
X0111380Y0306508D01*
X0110881Y0307714D01*
X0109958Y0308637D01*
X0108752Y0309136D01*
X0107447Y0309136D01*
X0106241Y0308637D01*
X0105318Y0307714D01*
X0104818Y0306508D01*
X0104818Y0305202D01*
X0105318Y0303997D01*
X0106241Y0303074D01*
X0107447Y0302574D01*
X0108269Y0302574D01*
X0109836Y0301007D01*
X0109836Y0300421D01*
X0109255Y0299840D01*
X0108755Y0298634D01*
X0108755Y0297328D01*
X0109255Y0296123D01*
X0110178Y0295200D01*
X0111384Y0294700D01*
X0112689Y0294700D01*
X0113895Y0295200D01*
X0114818Y0296123D01*
X0115317Y0297328D01*
X0115248Y0298800D02*
X0186608Y0298800D01*
X0186608Y0300399D02*
X0114259Y0300399D01*
X0114236Y0301997D02*
X0128971Y0301997D01*
X0128940Y0302028D02*
X0129863Y0301105D01*
X0131069Y0300606D01*
X0132374Y0300606D01*
X0133580Y0301105D01*
X0134161Y0301687D01*
X0156255Y0301687D01*
X0163047Y0308480D01*
X0163870Y0308480D01*
X0165076Y0308979D01*
X0165999Y0309902D01*
X0166498Y0311108D01*
X0166498Y0312413D01*
X0165999Y0313619D01*
X0165076Y0314542D01*
X0163870Y0315042D01*
X0162565Y0315042D01*
X0161359Y0314542D01*
X0160436Y0313619D01*
X0159936Y0312413D01*
X0159936Y0311591D01*
X0154432Y0306087D01*
X0134161Y0306087D01*
X0133580Y0306668D01*
X0132374Y0307168D01*
X0131069Y0307168D01*
X0129863Y0306668D01*
X0128940Y0305745D01*
X0128440Y0304539D01*
X0128440Y0303234D01*
X0128940Y0302028D01*
X0128440Y0303596D02*
X0113470Y0303596D01*
X0112036Y0301918D02*
X0112036Y0297981D01*
X0109774Y0295603D02*
X0025654Y0295603D01*
X0025654Y0294005D02*
X0186176Y0294005D01*
X0185527Y0295603D02*
X0114298Y0295603D01*
X0109814Y0300399D02*
X0027014Y0300399D01*
X0025654Y0298800D02*
X0108824Y0298800D01*
X0108808Y0297202D02*
X0025654Y0297202D01*
X0023454Y0299950D02*
X0023454Y0179871D01*
X0033296Y0170028D01*
X0054950Y0170028D01*
X0056918Y0170028D01*
X0066761Y0179871D01*
X0066761Y0189635D01*
X0066800Y0189674D01*
X0072924Y0190101D02*
X0122680Y0190101D01*
X0120137Y0191700D02*
X0072924Y0191700D01*
X0072924Y0193298D02*
X0118539Y0193298D01*
X0117607Y0194897D02*
X0110155Y0194897D01*
X0110057Y0194799D02*
X0111675Y0196417D01*
X0112550Y0198530D01*
X0112550Y0200818D01*
X0111675Y0202931D01*
X0110057Y0204549D01*
X0107944Y0205424D01*
X0105656Y0205424D01*
X0103543Y0204549D01*
X0101925Y0202931D01*
X0101050Y0200818D01*
X0101050Y0198530D01*
X0101925Y0196417D01*
X0103543Y0194799D01*
X0105656Y0193924D01*
X0107944Y0193924D01*
X0110057Y0194799D01*
X0111707Y0196495D02*
X0116937Y0196495D01*
X0116508Y0198094D02*
X0112369Y0198094D01*
X0112550Y0199692D02*
X0116450Y0199692D01*
X0116518Y0201291D02*
X0112354Y0201291D01*
X0111692Y0202889D02*
X0116946Y0202889D01*
X0117628Y0204488D02*
X0110118Y0204488D01*
X0110720Y0208086D02*
X0111926Y0208585D01*
X0112849Y0209508D01*
X0113349Y0210714D01*
X0113349Y0212020D01*
X0112849Y0213226D01*
X0111926Y0214148D01*
X0110720Y0214648D01*
X0109415Y0214648D01*
X0108209Y0214148D01*
X0107628Y0213567D01*
X0081012Y0213567D01*
X0080430Y0214148D01*
X0079224Y0214648D01*
X0077919Y0214648D01*
X0076713Y0214148D01*
X0075790Y0213226D01*
X0075291Y0212020D01*
X0075291Y0210714D01*
X0075790Y0209508D01*
X0076713Y0208585D01*
X0077919Y0208086D01*
X0079224Y0208086D01*
X0080430Y0208585D01*
X0081012Y0209167D01*
X0107628Y0209167D01*
X0108209Y0208585D01*
X0109415Y0208086D01*
X0110720Y0208086D01*
X0112624Y0209283D02*
X0122744Y0209283D01*
X0120174Y0207685D02*
X0058426Y0207685D01*
X0060025Y0206086D02*
X0118575Y0206086D01*
X0113349Y0210882D02*
X0150094Y0210882D01*
X0150094Y0210714D02*
X0150593Y0209508D01*
X0151516Y0208585D01*
X0152722Y0208086D01*
X0154027Y0208086D01*
X0155233Y0208585D01*
X0155815Y0209167D01*
X0182431Y0209167D01*
X0183012Y0208585D01*
X0184218Y0208086D01*
X0185524Y0208086D01*
X0186729Y0208585D01*
X0187652Y0209508D01*
X0188152Y0210714D01*
X0188152Y0212020D01*
X0187652Y0213226D01*
X0186729Y0214148D01*
X0185524Y0214648D01*
X0184218Y0214648D01*
X0183012Y0214148D01*
X0182431Y0213567D01*
X0155815Y0213567D01*
X0155233Y0214148D01*
X0154027Y0214648D01*
X0152722Y0214648D01*
X0151516Y0214148D01*
X0150593Y0213226D01*
X0150094Y0212020D01*
X0150094Y0210714D01*
X0150818Y0209283D02*
X0130856Y0209283D01*
X0133426Y0207685D02*
X0195174Y0207685D01*
X0193575Y0206086D02*
X0135025Y0206086D01*
X0135972Y0204488D02*
X0143482Y0204488D01*
X0141908Y0202889D02*
X0136654Y0202889D01*
X0137082Y0201291D02*
X0141246Y0201291D01*
X0141050Y0199692D02*
X0137150Y0199692D01*
X0137092Y0198094D02*
X0141231Y0198094D01*
X0141893Y0196495D02*
X0136663Y0196495D01*
X0135676Y0193298D02*
X0135061Y0193298D01*
X0135676Y0191700D02*
X0133463Y0191700D01*
X0135676Y0190101D02*
X0130920Y0190101D01*
X0135676Y0188503D02*
X0072924Y0188503D01*
X0072924Y0186904D02*
X0135676Y0186904D01*
X0135676Y0185306D02*
X0122597Y0185306D01*
X0122924Y0184978D02*
X0122104Y0185798D01*
X0111496Y0185798D01*
X0110676Y0184978D01*
X0110676Y0174370D01*
X0111496Y0173550D01*
X0122104Y0173550D01*
X0122924Y0174370D01*
X0122924Y0184978D01*
X0122924Y0183707D02*
X0136338Y0183707D01*
X0139364Y0182109D02*
X0122924Y0182109D01*
X0122924Y0180510D02*
X0139092Y0180510D01*
X0137493Y0178912D02*
X0122924Y0178912D01*
X0122924Y0177313D02*
X0135895Y0177313D01*
X0134296Y0175715D02*
X0122924Y0175715D01*
X0122671Y0174116D02*
X0132698Y0174116D01*
X0131099Y0172518D02*
X0062519Y0172518D01*
X0064117Y0174116D02*
X0110929Y0174116D01*
X0110676Y0175715D02*
X0065716Y0175715D01*
X0067314Y0177313D02*
X0110676Y0177313D01*
X0110676Y0178912D02*
X0068913Y0178912D01*
X0068961Y0180510D02*
X0110676Y0180510D01*
X0110676Y0182109D02*
X0068961Y0182109D01*
X0072262Y0183707D02*
X0110676Y0183707D01*
X0111003Y0185306D02*
X0072924Y0185306D01*
X0064561Y0182109D02*
X0047924Y0182109D01*
X0047924Y0183707D02*
X0061338Y0183707D01*
X0060676Y0185306D02*
X0047597Y0185306D01*
X0047924Y0184978D02*
X0047104Y0185798D01*
X0036496Y0185798D01*
X0035676Y0184978D01*
X0035676Y0174370D01*
X0036496Y0173550D01*
X0047104Y0173550D01*
X0047924Y0174370D01*
X0047924Y0184978D01*
X0047680Y0190101D02*
X0025654Y0190101D01*
X0025654Y0188503D02*
X0060676Y0188503D01*
X0060676Y0190101D02*
X0055920Y0190101D01*
X0058463Y0191700D02*
X0060676Y0191700D01*
X0060676Y0193298D02*
X0060061Y0193298D01*
X0061663Y0196495D02*
X0066893Y0196495D01*
X0066231Y0198094D02*
X0062092Y0198094D01*
X0062150Y0199692D02*
X0066050Y0199692D01*
X0066246Y0201291D02*
X0062082Y0201291D01*
X0061654Y0202889D02*
X0066908Y0202889D01*
X0068482Y0204488D02*
X0060972Y0204488D01*
X0055856Y0209283D02*
X0076015Y0209283D01*
X0075291Y0210882D02*
X0025654Y0210882D01*
X0025654Y0212480D02*
X0075481Y0212480D01*
X0076644Y0214079D02*
X0025654Y0214079D01*
X0025654Y0209283D02*
X0047744Y0209283D01*
X0045174Y0207685D02*
X0025654Y0207685D01*
X0025654Y0206086D02*
X0043575Y0206086D01*
X0042628Y0204488D02*
X0035118Y0204488D01*
X0035057Y0204549D02*
X0032944Y0205424D01*
X0030656Y0205424D01*
X0028543Y0204549D01*
X0026925Y0202931D01*
X0026050Y0200818D01*
X0026050Y0198530D01*
X0026925Y0196417D01*
X0028543Y0194799D01*
X0030656Y0193924D01*
X0032944Y0193924D01*
X0035057Y0194799D01*
X0036675Y0196417D01*
X0037550Y0198530D01*
X0037550Y0200818D01*
X0036675Y0202931D01*
X0035057Y0204549D01*
X0036692Y0202889D02*
X0041946Y0202889D01*
X0041518Y0201291D02*
X0037354Y0201291D01*
X0037550Y0199692D02*
X0041450Y0199692D01*
X0041508Y0198094D02*
X0037369Y0198094D01*
X0036707Y0196495D02*
X0041937Y0196495D01*
X0042607Y0194897D02*
X0035155Y0194897D01*
X0028445Y0194897D02*
X0025654Y0194897D01*
X0025654Y0196495D02*
X0026893Y0196495D01*
X0026231Y0198094D02*
X0025654Y0198094D01*
X0025654Y0199692D02*
X0026050Y0199692D01*
X0026246Y0201291D02*
X0025654Y0201291D01*
X0025654Y0202889D02*
X0026908Y0202889D01*
X0025654Y0204488D02*
X0028482Y0204488D01*
X0025654Y0193298D02*
X0043539Y0193298D01*
X0045137Y0191700D02*
X0025654Y0191700D01*
X0025654Y0186904D02*
X0060676Y0186904D01*
X0064289Y0180510D02*
X0047924Y0180510D01*
X0047924Y0178912D02*
X0062690Y0178912D01*
X0061092Y0177313D02*
X0047924Y0177313D01*
X0047924Y0175715D02*
X0059493Y0175715D01*
X0057895Y0174116D02*
X0047671Y0174116D01*
X0056296Y0172518D02*
X0033918Y0172518D01*
X0032319Y0174116D02*
X0035929Y0174116D01*
X0035676Y0175715D02*
X0030721Y0175715D01*
X0029122Y0177313D02*
X0035676Y0177313D01*
X0035676Y0178912D02*
X0027524Y0178912D01*
X0025925Y0180510D02*
X0035676Y0180510D01*
X0035676Y0182109D02*
X0025654Y0182109D01*
X0025654Y0183707D02*
X0035676Y0183707D01*
X0036003Y0185306D02*
X0025654Y0185306D01*
X0022900Y0177313D02*
X0021717Y0177313D01*
X0021717Y0175715D02*
X0024498Y0175715D01*
X0026097Y0174116D02*
X0021717Y0174116D01*
X0021717Y0172518D02*
X0027695Y0172518D01*
X0029294Y0170919D02*
X0021717Y0170919D01*
X0021717Y0169321D02*
X0030892Y0169321D01*
X0021717Y0154934D02*
X0059543Y0154934D01*
X0059663Y0153336D02*
X0021717Y0153336D01*
X0021717Y0148540D02*
X0326272Y0148540D01*
X0326272Y0146942D02*
X0021717Y0146942D01*
X0021717Y0145343D02*
X0326272Y0145343D01*
X0326272Y0143745D02*
X0021717Y0143745D01*
X0021717Y0142146D02*
X0326272Y0142146D01*
X0326272Y0127759D02*
X0301746Y0127759D01*
X0302408Y0126161D02*
X0326272Y0126161D01*
X0326272Y0124562D02*
X0302550Y0124562D01*
X0302315Y0122964D02*
X0326272Y0122964D01*
X0326272Y0121365D02*
X0301623Y0121365D01*
X0299978Y0119767D02*
X0326272Y0119767D01*
X0326272Y0118168D02*
X0297924Y0118168D01*
X0297924Y0116570D02*
X0326272Y0116570D01*
X0326272Y0114971D02*
X0297924Y0114971D01*
X0297924Y0113373D02*
X0326272Y0113373D01*
X0326272Y0111774D02*
X0297924Y0111774D01*
X0297924Y0110176D02*
X0326272Y0110176D01*
X0326272Y0108577D02*
X0297132Y0108577D01*
X0294000Y0106979D02*
X0326272Y0106979D01*
X0326272Y0105380D02*
X0294000Y0105380D01*
X0292995Y0103782D02*
X0326272Y0103782D01*
X0326272Y0102183D02*
X0291397Y0102183D01*
X0289798Y0100585D02*
X0326272Y0100585D01*
X0326272Y0098986D02*
X0288200Y0098986D01*
X0286601Y0097388D02*
X0326272Y0097388D01*
X0326272Y0095789D02*
X0285003Y0095789D01*
X0283404Y0094191D02*
X0326272Y0094191D01*
X0326272Y0073410D02*
X0017780Y0073410D01*
X0017780Y0071811D02*
X0326272Y0071811D01*
X0326272Y0070213D02*
X0017780Y0070213D01*
X0017780Y0068614D02*
X0326272Y0068614D01*
X0326272Y0067016D02*
X0017780Y0067016D01*
X0017780Y0065417D02*
X0326272Y0065417D01*
X0326272Y0063819D02*
X0017780Y0063819D01*
X0017780Y0062220D02*
X0326272Y0062220D01*
X0326272Y0060622D02*
X0017780Y0060622D01*
X0017780Y0059023D02*
X0047294Y0059023D01*
X0044914Y0057425D02*
X0017780Y0057425D01*
X0017780Y0055826D02*
X0043401Y0055826D01*
X0042478Y0054228D02*
X0035378Y0054228D01*
X0035057Y0054549D02*
X0032944Y0055424D01*
X0030656Y0055424D01*
X0028543Y0054549D01*
X0026925Y0052931D01*
X0026050Y0050818D01*
X0026050Y0048530D01*
X0026925Y0046417D01*
X0028543Y0044799D01*
X0030656Y0043924D01*
X0032944Y0043924D01*
X0035057Y0044799D01*
X0036675Y0046417D01*
X0037550Y0048530D01*
X0037550Y0050818D01*
X0036675Y0052931D01*
X0035057Y0054549D01*
X0036800Y0052629D02*
X0041877Y0052629D01*
X0041450Y0051031D02*
X0037462Y0051031D01*
X0037550Y0049432D02*
X0041450Y0049432D01*
X0041578Y0047834D02*
X0037262Y0047834D01*
X0036493Y0046235D02*
X0042006Y0046235D01*
X0042757Y0044637D02*
X0034665Y0044637D01*
X0028935Y0044637D02*
X0017780Y0044637D01*
X0017780Y0046235D02*
X0027107Y0046235D01*
X0026338Y0047834D02*
X0017780Y0047834D01*
X0017780Y0049432D02*
X0026050Y0049432D01*
X0026138Y0051031D02*
X0017780Y0051031D01*
X0017780Y0052629D02*
X0026800Y0052629D01*
X0028222Y0054228D02*
X0017780Y0054228D01*
X0017780Y0043038D02*
X0043799Y0043038D01*
X0045397Y0041440D02*
X0017780Y0041440D01*
X0017780Y0039841D02*
X0048507Y0039841D01*
X0056918Y0020422D02*
X0131721Y0020422D01*
X0188152Y0079804D02*
X0228834Y0079804D01*
X0229400Y0081403D02*
X0187586Y0081403D01*
X0222924Y0043038D02*
X0268799Y0043038D01*
X0270397Y0041440D02*
X0222924Y0041440D01*
X0222924Y0039841D02*
X0273507Y0039841D01*
X0272104Y0035798D02*
X0261496Y0035798D01*
X0260676Y0034978D01*
X0260676Y0024370D01*
X0261496Y0023550D01*
X0272104Y0023550D01*
X0272924Y0024370D01*
X0272924Y0034978D01*
X0272104Y0035798D01*
X0272857Y0035046D02*
X0285676Y0035046D01*
X0285676Y0036644D02*
X0222924Y0036644D01*
X0222924Y0035046D02*
X0260743Y0035046D01*
X0260676Y0033447D02*
X0218567Y0033447D01*
X0218567Y0031849D02*
X0260676Y0031849D01*
X0260676Y0030250D02*
X0218567Y0030250D01*
X0217865Y0028652D02*
X0260676Y0028652D01*
X0260676Y0027053D02*
X0216267Y0027053D01*
X0214668Y0025455D02*
X0260676Y0025455D01*
X0261189Y0023856D02*
X0213070Y0023856D01*
X0210044Y0027053D02*
X0197924Y0027053D01*
X0197924Y0025455D02*
X0208446Y0025455D01*
X0206847Y0023856D02*
X0197411Y0023856D01*
X0197924Y0028652D02*
X0211643Y0028652D01*
X0213241Y0030250D02*
X0197924Y0030250D01*
X0197924Y0031849D02*
X0214167Y0031849D01*
X0214167Y0033447D02*
X0197924Y0033447D01*
X0206524Y0020422D02*
X0281328Y0020422D01*
X0291800Y0030894D01*
X0291800Y0039674D01*
X0292107Y0046235D02*
X0286594Y0046235D01*
X0287022Y0047834D02*
X0291338Y0047834D01*
X0291050Y0049432D02*
X0287150Y0049432D01*
X0287150Y0051031D02*
X0291138Y0051031D01*
X0291800Y0052629D02*
X0286723Y0052629D01*
X0286122Y0054228D02*
X0293222Y0054228D01*
X0300378Y0054228D02*
X0326272Y0054228D01*
X0326272Y0055826D02*
X0285199Y0055826D01*
X0283686Y0057425D02*
X0326272Y0057425D01*
X0326272Y0059023D02*
X0281306Y0059023D01*
X0284801Y0043038D02*
X0285676Y0043038D01*
X0285676Y0041440D02*
X0283203Y0041440D01*
X0285676Y0039841D02*
X0280093Y0039841D01*
X0285676Y0038243D02*
X0222924Y0038243D01*
X0272411Y0023856D02*
X0281650Y0023856D01*
X0283249Y0025455D02*
X0272924Y0025455D01*
X0272924Y0027053D02*
X0284847Y0027053D01*
X0286446Y0028652D02*
X0272924Y0028652D01*
X0272924Y0030250D02*
X0288044Y0030250D01*
X0289600Y0031849D02*
X0272924Y0031849D01*
X0272924Y0033447D02*
X0289600Y0033447D01*
X0294000Y0033447D02*
X0326272Y0033447D01*
X0326272Y0031849D02*
X0294000Y0031849D01*
X0294000Y0030250D02*
X0326272Y0030250D01*
X0326272Y0028652D02*
X0292668Y0028652D01*
X0291070Y0027053D02*
X0326272Y0027053D01*
X0326272Y0025455D02*
X0289471Y0025455D01*
X0287873Y0023856D02*
X0326272Y0023856D01*
X0326272Y0022258D02*
X0286274Y0022258D01*
X0284676Y0020659D02*
X0326272Y0020659D01*
X0326272Y0019061D02*
X0283077Y0019061D01*
X0297924Y0035046D02*
X0326272Y0035046D01*
X0326272Y0036644D02*
X0297924Y0036644D01*
X0297924Y0038243D02*
X0326272Y0038243D01*
X0326272Y0039841D02*
X0297924Y0039841D01*
X0297924Y0041440D02*
X0326272Y0041440D01*
X0326272Y0043038D02*
X0297924Y0043038D01*
X0299665Y0044637D02*
X0326272Y0044637D01*
X0326272Y0046235D02*
X0301493Y0046235D01*
X0302262Y0047834D02*
X0326272Y0047834D01*
X0326272Y0049432D02*
X0302550Y0049432D01*
X0302462Y0051031D02*
X0326272Y0051031D01*
X0326272Y0052629D02*
X0301800Y0052629D01*
X0281977Y0098986D02*
X0272541Y0098986D01*
X0272924Y0100585D02*
X0283576Y0100585D01*
X0285174Y0102183D02*
X0272924Y0102183D01*
X0272924Y0103782D02*
X0286773Y0103782D01*
X0288371Y0105380D02*
X0272924Y0105380D01*
X0272924Y0106979D02*
X0289600Y0106979D01*
X0286468Y0108577D02*
X0272924Y0108577D01*
X0283731Y0169321D02*
X0326272Y0169321D01*
X0326272Y0170919D02*
X0285330Y0170919D01*
X0286928Y0172518D02*
X0326272Y0172518D01*
X0326272Y0174116D02*
X0288527Y0174116D01*
X0290125Y0175715D02*
X0326272Y0175715D01*
X0326272Y0177313D02*
X0291724Y0177313D01*
X0286338Y0183707D02*
X0272924Y0183707D01*
X0272597Y0185306D02*
X0285676Y0185306D01*
X0285676Y0186904D02*
X0222924Y0186904D01*
X0222924Y0185306D02*
X0261003Y0185306D01*
X0260676Y0183707D02*
X0222262Y0183707D01*
X0218567Y0182109D02*
X0260676Y0182109D01*
X0260676Y0180510D02*
X0218567Y0180510D01*
X0218519Y0178912D02*
X0260676Y0178912D01*
X0260676Y0177313D02*
X0216921Y0177313D01*
X0215322Y0175715D02*
X0260676Y0175715D01*
X0260929Y0174116D02*
X0213724Y0174116D01*
X0210698Y0177313D02*
X0197924Y0177313D01*
X0197924Y0175715D02*
X0209100Y0175715D01*
X0207501Y0174116D02*
X0197671Y0174116D01*
X0197924Y0174370D02*
X0197924Y0184978D01*
X0197104Y0185798D01*
X0186496Y0185798D01*
X0185676Y0184978D01*
X0185676Y0174370D01*
X0186496Y0173550D01*
X0197104Y0173550D01*
X0197924Y0174370D01*
X0197924Y0178912D02*
X0212297Y0178912D01*
X0213895Y0180510D02*
X0197924Y0180510D01*
X0197924Y0182109D02*
X0214167Y0182109D01*
X0211338Y0183707D02*
X0197924Y0183707D01*
X0197597Y0185306D02*
X0210676Y0185306D01*
X0210676Y0186904D02*
X0147924Y0186904D01*
X0147924Y0185306D02*
X0186003Y0185306D01*
X0185676Y0183707D02*
X0147262Y0183707D01*
X0143764Y0182109D02*
X0185676Y0182109D01*
X0185676Y0180510D02*
X0143764Y0180510D01*
X0143716Y0178912D02*
X0185676Y0178912D01*
X0185676Y0177313D02*
X0142117Y0177313D01*
X0140519Y0175715D02*
X0185676Y0175715D01*
X0185929Y0174116D02*
X0138920Y0174116D01*
X0137322Y0172518D02*
X0205902Y0172518D01*
X0206524Y0170028D02*
X0131721Y0170028D01*
X0141564Y0179871D01*
X0141564Y0189438D01*
X0141800Y0189674D01*
X0147924Y0190101D02*
X0197680Y0190101D01*
X0195137Y0191700D02*
X0147924Y0191700D01*
X0147924Y0193298D02*
X0193539Y0193298D01*
X0192607Y0194897D02*
X0185155Y0194897D01*
X0185057Y0194799D02*
X0186675Y0196417D01*
X0187550Y0198530D01*
X0187550Y0200818D01*
X0186675Y0202931D01*
X0185057Y0204549D01*
X0182944Y0205424D01*
X0180656Y0205424D01*
X0178543Y0204549D01*
X0176925Y0202931D01*
X0176050Y0200818D01*
X0176050Y0198530D01*
X0176925Y0196417D01*
X0178543Y0194799D01*
X0180656Y0193924D01*
X0182944Y0193924D01*
X0185057Y0194799D01*
X0186707Y0196495D02*
X0191937Y0196495D01*
X0191508Y0198094D02*
X0187369Y0198094D01*
X0187550Y0199692D02*
X0191450Y0199692D01*
X0191518Y0201291D02*
X0187354Y0201291D01*
X0186692Y0202889D02*
X0191946Y0202889D01*
X0192628Y0204488D02*
X0185118Y0204488D01*
X0187428Y0209283D02*
X0197744Y0209283D01*
X0205856Y0209283D02*
X0225621Y0209283D01*
X0224897Y0210882D02*
X0188152Y0210882D01*
X0187961Y0212480D02*
X0225088Y0212480D01*
X0226250Y0214079D02*
X0186799Y0214079D01*
X0184871Y0211367D02*
X0153375Y0211367D01*
X0150285Y0212480D02*
X0113158Y0212480D01*
X0111996Y0214079D02*
X0151447Y0214079D01*
X0155303Y0214079D02*
X0182943Y0214079D01*
X0178482Y0204488D02*
X0150118Y0204488D01*
X0151692Y0202889D02*
X0176908Y0202889D01*
X0176246Y0201291D02*
X0152354Y0201291D01*
X0152550Y0199692D02*
X0176050Y0199692D01*
X0176231Y0198094D02*
X0152369Y0198094D01*
X0151707Y0196495D02*
X0176893Y0196495D01*
X0178445Y0194897D02*
X0150155Y0194897D01*
X0147924Y0188503D02*
X0210676Y0188503D01*
X0210676Y0190101D02*
X0205920Y0190101D01*
X0208463Y0191700D02*
X0210676Y0191700D01*
X0210676Y0193298D02*
X0210061Y0193298D01*
X0211663Y0196495D02*
X0216893Y0196495D01*
X0216231Y0198094D02*
X0212092Y0198094D01*
X0212150Y0199692D02*
X0216050Y0199692D01*
X0216246Y0201291D02*
X0212082Y0201291D01*
X0211654Y0202889D02*
X0216908Y0202889D01*
X0218482Y0204488D02*
X0210972Y0204488D01*
X0225118Y0204488D02*
X0253482Y0204488D01*
X0251908Y0202889D02*
X0226692Y0202889D01*
X0227354Y0201291D02*
X0251246Y0201291D01*
X0251050Y0199692D02*
X0227550Y0199692D01*
X0227369Y0198094D02*
X0251231Y0198094D01*
X0251893Y0196495D02*
X0226707Y0196495D01*
X0225155Y0194897D02*
X0253445Y0194897D01*
X0257706Y0211367D02*
X0228178Y0211367D01*
X0230106Y0214079D02*
X0255777Y0214079D01*
X0257250Y0226867D02*
X0234539Y0226867D01*
X0232115Y0229083D02*
X0259674Y0229083D01*
X0257613Y0231663D02*
X0234176Y0231663D01*
X0230054Y0231663D02*
X0186932Y0231663D01*
X0186729Y0231865D02*
X0187652Y0230942D01*
X0188152Y0229736D01*
X0188152Y0228431D01*
X0187652Y0227225D01*
X0186729Y0226302D01*
X0185524Y0225802D01*
X0184218Y0225802D01*
X0183012Y0226302D01*
X0182431Y0226883D01*
X0159752Y0226883D01*
X0159170Y0226302D01*
X0157964Y0225802D01*
X0156659Y0225802D01*
X0155453Y0226302D01*
X0154530Y0227225D01*
X0154031Y0228431D01*
X0154031Y0229736D01*
X0154530Y0230942D01*
X0155453Y0231865D01*
X0156659Y0232365D01*
X0157964Y0232365D01*
X0159170Y0231865D01*
X0159752Y0231283D01*
X0182431Y0231283D01*
X0183012Y0231865D01*
X0184218Y0232365D01*
X0185524Y0232365D01*
X0186729Y0231865D01*
X0188016Y0230064D02*
X0228970Y0230064D01*
X0228834Y0228466D02*
X0188152Y0228466D01*
X0187295Y0226867D02*
X0229691Y0226867D01*
X0224241Y0244831D02*
X0151406Y0244831D01*
X0141564Y0254674D01*
X0141564Y0264438D01*
X0141800Y0264674D01*
X0135676Y0265231D02*
X0131145Y0265231D01*
X0133593Y0266830D02*
X0135676Y0266830D01*
X0135676Y0268428D02*
X0135145Y0268428D01*
X0136698Y0271625D02*
X0141839Y0271625D01*
X0141177Y0273224D02*
X0137127Y0273224D01*
X0137150Y0274822D02*
X0141050Y0274822D01*
X0141300Y0276421D02*
X0137047Y0276421D01*
X0136619Y0278019D02*
X0142014Y0278019D01*
X0143710Y0279618D02*
X0135897Y0279618D01*
X0130441Y0284413D02*
X0150551Y0284413D01*
X0150094Y0286012D02*
X0113349Y0286012D01*
X0113349Y0285517D02*
X0112849Y0284311D01*
X0111926Y0283388D01*
X0110720Y0282889D01*
X0109415Y0282889D01*
X0108209Y0283388D01*
X0107628Y0283970D01*
X0081012Y0283970D01*
X0080430Y0283388D01*
X0079224Y0282889D01*
X0077919Y0282889D01*
X0076713Y0283388D01*
X0075790Y0284311D01*
X0075291Y0285517D01*
X0075291Y0286823D01*
X0075790Y0288029D01*
X0076713Y0288952D01*
X0077919Y0289451D01*
X0079224Y0289451D01*
X0080430Y0288952D01*
X0081012Y0288370D01*
X0107628Y0288370D01*
X0108209Y0288952D01*
X0109415Y0289451D01*
X0110720Y0289451D01*
X0111926Y0288952D01*
X0112849Y0288029D01*
X0113349Y0286823D01*
X0113349Y0285517D01*
X0112892Y0284413D02*
X0123159Y0284413D01*
X0120304Y0282815D02*
X0058296Y0282815D01*
X0059895Y0281216D02*
X0118705Y0281216D01*
X0117703Y0279618D02*
X0109890Y0279618D01*
X0110057Y0279549D02*
X0107944Y0280424D01*
X0105656Y0280424D01*
X0103543Y0279549D01*
X0101925Y0277931D01*
X0101050Y0275818D01*
X0101050Y0273530D01*
X0101925Y0271417D01*
X0103543Y0269799D01*
X0105656Y0268924D01*
X0107944Y0268924D01*
X0110057Y0269799D01*
X0111675Y0271417D01*
X0112550Y0273530D01*
X0112550Y0275818D01*
X0111675Y0277931D01*
X0110057Y0279549D01*
X0111586Y0278019D02*
X0116981Y0278019D01*
X0116553Y0276421D02*
X0112300Y0276421D01*
X0112550Y0274822D02*
X0116450Y0274822D01*
X0116473Y0273224D02*
X0112423Y0273224D01*
X0111761Y0271625D02*
X0116902Y0271625D01*
X0117532Y0270027D02*
X0110285Y0270027D01*
X0103315Y0270027D02*
X0075285Y0270027D01*
X0076761Y0271625D02*
X0101839Y0271625D01*
X0101177Y0273224D02*
X0077423Y0273224D01*
X0077550Y0274822D02*
X0101050Y0274822D01*
X0101300Y0276421D02*
X0077300Y0276421D01*
X0076586Y0278019D02*
X0102014Y0278019D01*
X0103710Y0279618D02*
X0074890Y0279618D01*
X0075748Y0284413D02*
X0055441Y0284413D01*
X0060897Y0279618D02*
X0068710Y0279618D01*
X0067014Y0278019D02*
X0061619Y0278019D01*
X0062047Y0276421D02*
X0066300Y0276421D01*
X0066050Y0274822D02*
X0062150Y0274822D01*
X0062127Y0273224D02*
X0066177Y0273224D01*
X0066839Y0271625D02*
X0061698Y0271625D01*
X0060676Y0268428D02*
X0060145Y0268428D01*
X0060676Y0266830D02*
X0058593Y0266830D01*
X0060676Y0265231D02*
X0056145Y0265231D01*
X0060676Y0263633D02*
X0025654Y0263633D01*
X0025654Y0265231D02*
X0047455Y0265231D01*
X0045007Y0266830D02*
X0025654Y0266830D01*
X0025654Y0268428D02*
X0043455Y0268428D01*
X0042532Y0270027D02*
X0035285Y0270027D01*
X0035057Y0269799D02*
X0036675Y0271417D01*
X0037550Y0273530D01*
X0037550Y0275818D01*
X0036675Y0277931D01*
X0035057Y0279549D01*
X0032944Y0280424D01*
X0030656Y0280424D01*
X0028543Y0279549D01*
X0026925Y0277931D01*
X0026050Y0275818D01*
X0026050Y0273530D01*
X0026925Y0271417D01*
X0028543Y0269799D01*
X0030656Y0268924D01*
X0032944Y0268924D01*
X0035057Y0269799D01*
X0036761Y0271625D02*
X0041902Y0271625D01*
X0041473Y0273224D02*
X0037423Y0273224D01*
X0037550Y0274822D02*
X0041450Y0274822D01*
X0041553Y0276421D02*
X0037300Y0276421D01*
X0036586Y0278019D02*
X0041981Y0278019D01*
X0042703Y0279618D02*
X0034890Y0279618D01*
X0028710Y0279618D02*
X0025654Y0279618D01*
X0025654Y0281216D02*
X0043705Y0281216D01*
X0045304Y0282815D02*
X0025654Y0282815D01*
X0025654Y0284413D02*
X0048159Y0284413D01*
X0055060Y0301105D02*
X0056265Y0300606D01*
X0057571Y0300606D01*
X0058777Y0301105D01*
X0059358Y0301687D01*
X0081451Y0301687D01*
X0082740Y0302975D01*
X0088244Y0308480D01*
X0089067Y0308480D01*
X0090273Y0308979D01*
X0091196Y0309902D01*
X0091695Y0311108D01*
X0091695Y0312413D01*
X0091196Y0313619D01*
X0090273Y0314542D01*
X0089067Y0315042D01*
X0087762Y0315042D01*
X0086556Y0314542D01*
X0085633Y0313619D01*
X0085133Y0312413D01*
X0085133Y0311591D01*
X0079629Y0306087D01*
X0059358Y0306087D01*
X0058777Y0306668D01*
X0057571Y0307168D01*
X0056265Y0307168D01*
X0055060Y0306668D01*
X0054137Y0305745D01*
X0053637Y0304539D01*
X0053637Y0303234D01*
X0054137Y0302028D01*
X0055060Y0301105D01*
X0054167Y0301997D02*
X0028612Y0301997D01*
X0030211Y0303596D02*
X0053637Y0303596D01*
X0053908Y0305194D02*
X0031809Y0305194D01*
X0033408Y0306793D02*
X0055360Y0306793D01*
X0058476Y0306793D02*
X0080335Y0306793D01*
X0081933Y0308391D02*
X0035006Y0308391D01*
X0036605Y0309990D02*
X0083532Y0309990D01*
X0085130Y0311588D02*
X0038203Y0311588D01*
X0039802Y0313187D02*
X0085453Y0313187D01*
X0087142Y0314785D02*
X0041400Y0314785D01*
X0042999Y0316384D02*
X0202356Y0316384D01*
X0202356Y0314785D02*
X0164489Y0314785D01*
X0166178Y0313187D02*
X0202356Y0313187D01*
X0202356Y0311588D02*
X0166498Y0311588D01*
X0166035Y0309990D02*
X0184365Y0309990D01*
X0183558Y0308391D02*
X0162959Y0308391D01*
X0161361Y0306793D02*
X0183715Y0306793D01*
X0184829Y0305194D02*
X0159762Y0305194D01*
X0158164Y0303596D02*
X0186608Y0303596D01*
X0186608Y0301997D02*
X0156565Y0301997D01*
X0155343Y0303887D02*
X0163217Y0311761D01*
X0161945Y0314785D02*
X0089686Y0314785D01*
X0091375Y0313187D02*
X0160257Y0313187D01*
X0159934Y0311588D02*
X0091695Y0311588D01*
X0091232Y0309990D02*
X0158335Y0309990D01*
X0156737Y0308391D02*
X0110203Y0308391D01*
X0111262Y0306793D02*
X0130163Y0306793D01*
X0128711Y0305194D02*
X0111871Y0305194D01*
X0112036Y0301918D02*
X0108099Y0305855D01*
X0105719Y0303596D02*
X0083360Y0303596D01*
X0081762Y0301997D02*
X0108846Y0301997D01*
X0104822Y0305194D02*
X0084959Y0305194D01*
X0086557Y0306793D02*
X0104936Y0306793D01*
X0105995Y0308391D02*
X0088156Y0308391D01*
X0088414Y0311761D02*
X0080540Y0303887D01*
X0056918Y0303887D01*
X0044597Y0317982D02*
X0199587Y0317982D01*
X0197200Y0319581D02*
X0046196Y0319581D01*
X0047794Y0321179D02*
X0196308Y0321179D01*
X0196031Y0322778D02*
X0049393Y0322778D01*
X0050991Y0324376D02*
X0196237Y0324376D01*
X0197030Y0325975D02*
X0052590Y0325975D01*
X0054189Y0327573D02*
X0199175Y0327573D01*
X0201676Y0329206D02*
X0201676Y0329206D01*
X0201711Y0329172D02*
X0055787Y0329172D01*
X0054950Y0331446D02*
X0023454Y0299950D01*
X0019517Y0303887D02*
X0019517Y0105068D01*
X0029359Y0095225D01*
X0027282Y0094191D02*
X0017780Y0094191D01*
X0017780Y0095789D02*
X0025684Y0095789D01*
X0024085Y0097388D02*
X0017780Y0097388D01*
X0017780Y0098986D02*
X0022487Y0098986D01*
X0020888Y0100585D02*
X0017780Y0100585D01*
X0017780Y0102183D02*
X0019290Y0102183D01*
X0021717Y0119767D02*
X0028621Y0119767D01*
X0026977Y0121365D02*
X0021717Y0121365D01*
X0021717Y0122964D02*
X0026285Y0122964D01*
X0026050Y0124562D02*
X0021717Y0124562D01*
X0021717Y0126161D02*
X0026192Y0126161D01*
X0026854Y0127759D02*
X0021717Y0127759D01*
X0056918Y0170028D02*
X0131721Y0170028D01*
X0157312Y0154280D02*
X0184871Y0154280D01*
X0182483Y0156533D02*
X0159700Y0156533D01*
X0159409Y0151737D02*
X0182774Y0151737D01*
X0222924Y0188503D02*
X0285676Y0188503D01*
X0285676Y0190101D02*
X0280920Y0190101D01*
X0283463Y0191700D02*
X0285676Y0191700D01*
X0285676Y0193298D02*
X0285061Y0193298D01*
X0286663Y0196495D02*
X0291893Y0196495D01*
X0291231Y0198094D02*
X0287092Y0198094D01*
X0287150Y0199692D02*
X0291050Y0199692D01*
X0291246Y0201291D02*
X0287082Y0201291D01*
X0286654Y0202889D02*
X0291908Y0202889D01*
X0293482Y0204488D02*
X0285972Y0204488D01*
X0285025Y0206086D02*
X0326272Y0206086D01*
X0326272Y0204488D02*
X0300118Y0204488D01*
X0301692Y0202889D02*
X0326272Y0202889D01*
X0326272Y0201291D02*
X0302354Y0201291D01*
X0302550Y0199692D02*
X0326272Y0199692D01*
X0326272Y0198094D02*
X0302369Y0198094D01*
X0301707Y0196495D02*
X0326272Y0196495D01*
X0326272Y0194897D02*
X0300155Y0194897D01*
X0297924Y0193298D02*
X0326272Y0193298D01*
X0326272Y0191700D02*
X0297924Y0191700D01*
X0283426Y0207685D02*
X0326272Y0207685D01*
X0326272Y0209283D02*
X0280856Y0209283D01*
X0283001Y0247648D02*
X0224536Y0247648D01*
X0216598Y0282815D02*
X0270304Y0282815D01*
X0273159Y0284413D02*
X0260529Y0284413D01*
X0260987Y0286012D02*
X0326272Y0286012D01*
X0326272Y0284413D02*
X0280441Y0284413D01*
X0283296Y0282815D02*
X0326272Y0282815D01*
X0326272Y0281216D02*
X0284895Y0281216D01*
X0277767Y0300399D02*
X0265834Y0300399D01*
X0265811Y0300421D02*
X0265811Y0306766D01*
X0264924Y0307654D01*
X0264924Y0308476D01*
X0264424Y0309682D01*
X0263501Y0310605D01*
X0262295Y0311105D01*
X0260990Y0311105D01*
X0259784Y0310605D01*
X0258861Y0309682D01*
X0258361Y0308476D01*
X0258361Y0307171D01*
X0258861Y0305965D01*
X0259784Y0305042D01*
X0260990Y0304543D01*
X0261411Y0304543D01*
X0261411Y0300421D01*
X0260829Y0299840D01*
X0260330Y0298634D01*
X0260330Y0297328D01*
X0260829Y0296123D01*
X0261752Y0295200D01*
X0262958Y0294700D01*
X0264264Y0294700D01*
X0265470Y0295200D01*
X0266393Y0296123D01*
X0266892Y0297328D01*
X0266892Y0298634D01*
X0266393Y0299840D01*
X0265811Y0300421D01*
X0265811Y0301997D02*
X0276169Y0301997D01*
X0274570Y0303596D02*
X0265811Y0303596D01*
X0265811Y0305194D02*
X0272972Y0305194D01*
X0271373Y0306793D02*
X0265785Y0306793D01*
X0264924Y0308391D02*
X0269775Y0308391D01*
X0269285Y0309990D02*
X0264117Y0309990D01*
X0261643Y0307824D02*
X0263611Y0305855D01*
X0263611Y0297981D01*
X0261349Y0295603D02*
X0242189Y0295603D01*
X0242189Y0297202D02*
X0260382Y0297202D01*
X0260399Y0298800D02*
X0242189Y0298800D01*
X0242189Y0300399D02*
X0261388Y0300399D01*
X0261411Y0301997D02*
X0243376Y0301997D01*
X0244975Y0303596D02*
X0261411Y0303596D01*
X0259632Y0305194D02*
X0246573Y0305194D01*
X0248172Y0306793D02*
X0258518Y0306793D01*
X0258361Y0308391D02*
X0249770Y0308391D01*
X0251369Y0309990D02*
X0259168Y0309990D01*
X0254566Y0313187D02*
X0269285Y0313187D01*
X0269285Y0314785D02*
X0256164Y0314785D01*
X0257763Y0316384D02*
X0269285Y0316384D01*
X0269285Y0317982D02*
X0262674Y0317982D01*
X0265061Y0319581D02*
X0267200Y0319581D01*
X0266308Y0321179D02*
X0265953Y0321179D01*
X0266024Y0324376D02*
X0266237Y0324376D01*
X0267030Y0325975D02*
X0265231Y0325975D01*
X0263086Y0327573D02*
X0269175Y0327573D01*
X0271131Y0322863D02*
X0271485Y0322509D01*
X0271485Y0309792D01*
X0279359Y0301918D01*
X0299044Y0301918D01*
X0302325Y0301997D02*
X0326272Y0301997D01*
X0326272Y0300399D02*
X0302325Y0300399D01*
X0301668Y0298800D02*
X0326272Y0298800D01*
X0326272Y0297202D02*
X0266840Y0297202D01*
X0266823Y0298800D02*
X0296420Y0298800D01*
X0296578Y0305194D02*
X0279194Y0305194D01*
X0277596Y0306793D02*
X0326272Y0306793D01*
X0326272Y0308391D02*
X0275997Y0308391D01*
X0274399Y0309990D02*
X0326272Y0309990D01*
X0326272Y0311588D02*
X0273685Y0311588D01*
X0273685Y0313187D02*
X0326272Y0313187D01*
X0326272Y0314785D02*
X0273685Y0314785D01*
X0273685Y0316384D02*
X0326272Y0316384D01*
X0326272Y0317982D02*
X0312674Y0317982D01*
X0315061Y0319581D02*
X0326272Y0319581D01*
X0326272Y0321179D02*
X0315953Y0321179D01*
X0316231Y0322778D02*
X0326272Y0322778D01*
X0326272Y0324376D02*
X0316024Y0324376D01*
X0315231Y0325975D02*
X0326272Y0325975D01*
X0326272Y0327573D02*
X0313086Y0327573D01*
X0309175Y0327573D02*
X0304001Y0327573D01*
X0305668Y0325975D02*
X0307030Y0325975D01*
X0301331Y0325975D02*
X0300931Y0325975D01*
X0300931Y0327573D02*
X0301331Y0327573D01*
X0298260Y0327573D02*
X0293086Y0327573D01*
X0295231Y0325975D02*
X0296593Y0325975D01*
X0300931Y0324376D02*
X0301331Y0324376D01*
X0301331Y0321179D02*
X0300931Y0321179D01*
X0300931Y0319581D02*
X0301331Y0319581D01*
X0301331Y0317982D02*
X0300931Y0317982D01*
X0298595Y0317982D02*
X0292674Y0317982D01*
X0295061Y0319581D02*
X0296717Y0319581D01*
X0303666Y0317982D02*
X0309587Y0317982D01*
X0307200Y0319581D02*
X0305544Y0319581D01*
X0301510Y0305194D02*
X0326272Y0305194D01*
X0326272Y0303596D02*
X0302325Y0303596D01*
X0289587Y0317982D02*
X0282674Y0317982D01*
X0285061Y0319581D02*
X0287200Y0319581D01*
X0286308Y0321179D02*
X0285953Y0321179D01*
X0286024Y0324376D02*
X0286237Y0324376D01*
X0287030Y0325975D02*
X0285231Y0325975D01*
X0283086Y0327573D02*
X0289175Y0327573D01*
X0279587Y0317982D02*
X0273685Y0317982D01*
X0275061Y0319581D02*
X0277200Y0319581D01*
X0276308Y0321179D02*
X0275953Y0321179D01*
X0276024Y0324376D02*
X0276237Y0324376D01*
X0277030Y0325975D02*
X0275231Y0325975D01*
X0273086Y0327573D02*
X0279175Y0327573D01*
X0269285Y0311588D02*
X0252967Y0311588D01*
X0253139Y0317982D02*
X0252674Y0317982D01*
X0249587Y0317982D02*
X0242674Y0317982D01*
X0245061Y0319581D02*
X0247200Y0319581D01*
X0246308Y0321179D02*
X0245953Y0321179D01*
X0246024Y0324376D02*
X0246237Y0324376D01*
X0247030Y0325975D02*
X0245231Y0325975D01*
X0243086Y0327573D02*
X0249175Y0327573D01*
X0253086Y0327573D02*
X0259175Y0327573D01*
X0257030Y0325975D02*
X0255231Y0325975D01*
X0256024Y0324376D02*
X0256237Y0324376D01*
X0261131Y0322863D02*
X0239989Y0301721D01*
X0239989Y0292076D01*
X0243015Y0290808D02*
X0326272Y0290808D01*
X0326272Y0292406D02*
X0243270Y0292406D01*
X0242700Y0294005D02*
X0326272Y0294005D01*
X0326272Y0295603D02*
X0265873Y0295603D01*
X0258943Y0289209D02*
X0326272Y0289209D01*
X0326272Y0287611D02*
X0260660Y0287611D01*
X0256468Y0289209D02*
X0241642Y0289209D01*
X0239587Y0317982D02*
X0232674Y0317982D01*
X0235061Y0319581D02*
X0237200Y0319581D01*
X0236308Y0321179D02*
X0235953Y0321179D01*
X0236024Y0324376D02*
X0236237Y0324376D01*
X0237030Y0325975D02*
X0235231Y0325975D01*
X0233086Y0327573D02*
X0239175Y0327573D01*
X0231131Y0322863D02*
X0214674Y0339320D01*
X0043139Y0339320D01*
X0015580Y0311761D01*
X0015493Y0314785D02*
X0004100Y0314785D01*
X0004100Y0316384D02*
X0017091Y0316384D01*
X0018690Y0317982D02*
X0004100Y0317982D01*
X0004100Y0319581D02*
X0020288Y0319581D01*
X0021887Y0321179D02*
X0004100Y0321179D01*
X0004100Y0322778D02*
X0023485Y0322778D01*
X0025084Y0324376D02*
X0004100Y0324376D01*
X0004100Y0325975D02*
X0026682Y0325975D01*
X0028281Y0327573D02*
X0004100Y0327573D01*
X0004100Y0329172D02*
X0029879Y0329172D01*
X0031478Y0330770D02*
X0004100Y0330770D01*
X0004100Y0332369D02*
X0033076Y0332369D01*
X0034675Y0333967D02*
X0004100Y0333967D01*
X0004100Y0335566D02*
X0036273Y0335566D01*
X0037872Y0337164D02*
X0004100Y0337164D01*
X0004100Y0338763D02*
X0039471Y0338763D01*
X0041069Y0340361D02*
X0004100Y0340361D01*
X0004100Y0341960D02*
X0177177Y0341960D01*
X0176667Y0343558D02*
X0004100Y0343558D01*
X0004100Y0345157D02*
X0177056Y0345157D01*
X0179356Y0349023D02*
X0181385Y0349023D01*
X0183260Y0349799D01*
X0184694Y0351234D01*
X0185471Y0353108D01*
X0185471Y0355137D01*
X0184694Y0357012D01*
X0183260Y0358446D01*
X0181385Y0359223D01*
X0180868Y0359223D01*
X0182260Y0359799D01*
X0183694Y0361234D01*
X0184471Y0363108D01*
X0184471Y0365137D01*
X0183694Y0367012D01*
X0182260Y0368446D01*
X0181549Y0368741D01*
X0181659Y0368758D01*
X0182482Y0369026D01*
X0183253Y0369419D01*
X0183954Y0369928D01*
X0184566Y0370540D01*
X0185075Y0371240D01*
X0185468Y0372012D01*
X0185735Y0372835D01*
X0185871Y0373690D01*
X0185871Y0373923D01*
X0180571Y0373923D01*
X0180571Y0374323D01*
X0185871Y0374323D01*
X0185871Y0374556D01*
X0185735Y0375411D01*
X0185468Y0376234D01*
X0185075Y0377005D01*
X0184566Y0377706D01*
X0183954Y0378318D01*
X0183253Y0378827D01*
X0182482Y0379220D01*
X0181659Y0379487D01*
X0180804Y0379623D01*
X0180571Y0379623D01*
X0180571Y0374323D01*
X0180171Y0374323D01*
X0180171Y0379623D01*
X0179938Y0379623D01*
X0179083Y0379487D01*
X0178260Y0379220D01*
X0177488Y0378827D01*
X0176788Y0378318D01*
X0176176Y0377706D01*
X0175667Y0377005D01*
X0175274Y0376234D01*
X0175006Y0375411D01*
X0174871Y0374556D01*
X0174871Y0374323D01*
X0180171Y0374323D01*
X0180171Y0373923D01*
X0174871Y0373923D01*
X0174871Y0373690D01*
X0175006Y0372835D01*
X0175274Y0372012D01*
X0175667Y0371240D01*
X0176176Y0370540D01*
X0176788Y0369928D01*
X0177488Y0369419D01*
X0178090Y0369112D01*
X0176482Y0368446D01*
X0175047Y0367012D01*
X0174271Y0365137D01*
X0174271Y0363108D01*
X0175047Y0361234D01*
X0176482Y0359799D01*
X0178356Y0359023D01*
X0178874Y0359023D01*
X0177482Y0358446D01*
X0176047Y0357012D01*
X0175271Y0355137D01*
X0175271Y0353108D01*
X0176047Y0351234D01*
X0177482Y0349799D01*
X0179356Y0349023D01*
X0177329Y0349952D02*
X0004100Y0349952D01*
X0004100Y0348354D02*
X0326272Y0348354D01*
X0326272Y0349952D02*
X0183413Y0349952D01*
X0184826Y0351551D02*
X0326272Y0351551D01*
X0326272Y0353149D02*
X0185471Y0353149D01*
X0185471Y0354748D02*
X0326272Y0354748D01*
X0326272Y0356347D02*
X0184970Y0356347D01*
X0183761Y0357945D02*
X0326272Y0357945D01*
X0326272Y0359544D02*
X0181642Y0359544D01*
X0183603Y0361142D02*
X0326272Y0361142D01*
X0326272Y0362741D02*
X0184318Y0362741D01*
X0184471Y0364339D02*
X0326272Y0364339D01*
X0326272Y0365938D02*
X0184139Y0365938D01*
X0183170Y0367536D02*
X0326272Y0367536D01*
X0326272Y0369135D02*
X0182696Y0369135D01*
X0184706Y0370733D02*
X0326272Y0370733D01*
X0326272Y0372332D02*
X0185572Y0372332D01*
X0185697Y0375529D02*
X0326272Y0375529D01*
X0326272Y0377127D02*
X0184986Y0377127D01*
X0183393Y0378726D02*
X0198056Y0378726D01*
X0196662Y0380324D02*
X0006687Y0380324D01*
X0005089Y0378726D02*
X0177349Y0378726D01*
X0175755Y0377127D02*
X0004100Y0377127D01*
X0004100Y0375529D02*
X0175045Y0375529D01*
X0175170Y0372332D02*
X0004100Y0372332D01*
X0004100Y0373930D02*
X0180171Y0373930D01*
X0180571Y0373930D02*
X0326272Y0373930D01*
X0326272Y0378726D02*
X0314206Y0378726D01*
X0315599Y0380324D02*
X0326272Y0380324D01*
X0326272Y0381923D02*
X0316231Y0381923D01*
X0316231Y0383521D02*
X0326272Y0383521D01*
X0326272Y0385120D02*
X0315716Y0385120D01*
X0314488Y0386718D02*
X0326272Y0386718D01*
X0307773Y0386718D02*
X0304488Y0386718D01*
X0305716Y0385120D02*
X0306545Y0385120D01*
X0306662Y0380324D02*
X0305599Y0380324D01*
X0304206Y0378726D02*
X0308056Y0378726D01*
X0298056Y0378726D02*
X0294772Y0378726D01*
X0296010Y0380324D02*
X0296662Y0380324D01*
X0296545Y0385120D02*
X0296154Y0385120D01*
X0295054Y0386718D02*
X0297773Y0386718D01*
X0290931Y0382663D02*
X0290931Y0377363D01*
X0290698Y0377363D01*
X0289843Y0377498D01*
X0289019Y0377766D01*
X0288248Y0378159D01*
X0287548Y0378668D01*
X0286936Y0379280D01*
X0286427Y0379980D01*
X0286131Y0380561D01*
X0285835Y0379980D01*
X0285326Y0379280D01*
X0284714Y0378668D01*
X0284013Y0378159D01*
X0283242Y0377766D01*
X0282419Y0377498D01*
X0281564Y0377363D01*
X0281331Y0377363D01*
X0281331Y0382663D01*
X0290931Y0382663D01*
X0290931Y0381923D02*
X0291331Y0381923D01*
X0291331Y0380324D02*
X0290931Y0380324D01*
X0290931Y0378726D02*
X0291331Y0378726D01*
X0287490Y0378726D02*
X0284772Y0378726D01*
X0286010Y0380324D02*
X0286252Y0380324D01*
X0281331Y0380324D02*
X0280931Y0380324D01*
X0280931Y0378726D02*
X0281331Y0378726D01*
X0281331Y0381923D02*
X0280931Y0381923D01*
X0277490Y0378726D02*
X0274206Y0378726D01*
X0275599Y0380324D02*
X0276252Y0380324D01*
X0276108Y0385120D02*
X0275716Y0385120D01*
X0274488Y0386718D02*
X0277208Y0386718D01*
X0267773Y0386718D02*
X0264488Y0386718D01*
X0265716Y0385120D02*
X0266545Y0385120D01*
X0266662Y0380324D02*
X0265599Y0380324D01*
X0264206Y0378726D02*
X0268056Y0378726D01*
X0258056Y0378726D02*
X0254206Y0378726D01*
X0255599Y0380324D02*
X0256662Y0380324D01*
X0256545Y0385120D02*
X0255716Y0385120D01*
X0254488Y0386718D02*
X0257773Y0386718D01*
X0247773Y0386718D02*
X0244488Y0386718D01*
X0245716Y0385120D02*
X0246545Y0385120D01*
X0246662Y0380324D02*
X0245599Y0380324D01*
X0244206Y0378726D02*
X0248056Y0378726D01*
X0238056Y0378726D02*
X0234206Y0378726D01*
X0235599Y0380324D02*
X0236662Y0380324D01*
X0236545Y0385120D02*
X0235716Y0385120D01*
X0234488Y0386718D02*
X0237773Y0386718D01*
X0227773Y0386718D02*
X0224488Y0386718D01*
X0225716Y0385120D02*
X0226545Y0385120D01*
X0226662Y0380324D02*
X0225599Y0380324D01*
X0224206Y0378726D02*
X0228056Y0378726D01*
X0218056Y0378726D02*
X0214206Y0378726D01*
X0215599Y0380324D02*
X0216662Y0380324D01*
X0216545Y0385120D02*
X0215716Y0385120D01*
X0214488Y0386718D02*
X0217773Y0386718D01*
X0207773Y0386718D02*
X0204488Y0386718D01*
X0205716Y0385120D02*
X0206545Y0385120D01*
X0206662Y0380324D02*
X0205599Y0380324D01*
X0204206Y0378726D02*
X0208056Y0378726D01*
X0197773Y0386718D02*
X0013081Y0386718D01*
X0011483Y0385120D02*
X0196545Y0385120D01*
X0196031Y0383521D02*
X0009884Y0383521D01*
X0008286Y0381923D02*
X0196031Y0381923D01*
X0180571Y0378726D02*
X0180171Y0378726D01*
X0180171Y0377127D02*
X0180571Y0377127D01*
X0180571Y0375529D02*
X0180171Y0375529D01*
X0176035Y0370733D02*
X0004100Y0370733D01*
X0004100Y0369135D02*
X0178046Y0369135D01*
X0175572Y0367536D02*
X0004100Y0367536D01*
X0004100Y0365938D02*
X0174602Y0365938D01*
X0174271Y0364339D02*
X0004100Y0364339D01*
X0004100Y0362741D02*
X0174423Y0362741D01*
X0175139Y0361142D02*
X0004100Y0361142D01*
X0004100Y0359544D02*
X0177099Y0359544D01*
X0176981Y0357945D02*
X0004100Y0357945D01*
X0004100Y0356347D02*
X0175772Y0356347D01*
X0175271Y0354748D02*
X0004100Y0354748D01*
X0004100Y0353149D02*
X0175271Y0353149D01*
X0175916Y0351551D02*
X0004100Y0351551D01*
X0004100Y0346755D02*
X0326272Y0346755D01*
X0326272Y0345157D02*
X0181977Y0345157D01*
X0182367Y0343558D02*
X0326272Y0343558D01*
X0326272Y0341960D02*
X0181857Y0341960D01*
X0202587Y0331446D02*
X0054950Y0331446D01*
X0051013Y0335383D02*
X0019517Y0303887D01*
X0025654Y0289209D02*
X0077334Y0289209D01*
X0075617Y0287611D02*
X0025654Y0287611D01*
X0025654Y0286012D02*
X0075291Y0286012D01*
X0078572Y0286170D02*
X0110068Y0286170D01*
X0111305Y0289209D02*
X0152138Y0289209D01*
X0150420Y0287611D02*
X0113022Y0287611D01*
X0108830Y0289209D02*
X0079809Y0289209D01*
X0072924Y0268428D02*
X0118455Y0268428D01*
X0120007Y0266830D02*
X0072924Y0266830D01*
X0072924Y0265231D02*
X0122455Y0265231D01*
X0122104Y0260798D02*
X0111496Y0260798D01*
X0110676Y0259978D01*
X0110676Y0249370D01*
X0111496Y0248550D01*
X0122104Y0248550D01*
X0122924Y0249370D01*
X0122924Y0259978D01*
X0122104Y0260798D01*
X0122467Y0260436D02*
X0135676Y0260436D01*
X0135676Y0262034D02*
X0072924Y0262034D01*
X0072924Y0260436D02*
X0111133Y0260436D01*
X0110676Y0258837D02*
X0072392Y0258837D01*
X0069276Y0257239D02*
X0110676Y0257239D01*
X0110676Y0255640D02*
X0070874Y0255640D01*
X0072473Y0254042D02*
X0110676Y0254042D01*
X0110676Y0252443D02*
X0074071Y0252443D01*
X0075670Y0250845D02*
X0110676Y0250845D01*
X0110799Y0249246D02*
X0077268Y0249246D01*
X0078867Y0247648D02*
X0145479Y0247648D01*
X0143880Y0249246D02*
X0122801Y0249246D01*
X0122924Y0250845D02*
X0142282Y0250845D01*
X0140683Y0252443D02*
X0122924Y0252443D01*
X0122924Y0254042D02*
X0139364Y0254042D01*
X0139364Y0255640D02*
X0122924Y0255640D01*
X0122924Y0257239D02*
X0139364Y0257239D01*
X0136208Y0258837D02*
X0122924Y0258837D01*
X0135676Y0263633D02*
X0072924Y0263633D01*
X0066800Y0264674D02*
X0066800Y0256603D01*
X0078572Y0244831D01*
X0151406Y0244831D01*
X0155251Y0231663D02*
X0112129Y0231663D01*
X0111926Y0231865D02*
X0112849Y0230942D01*
X0113349Y0229736D01*
X0113349Y0228431D01*
X0112849Y0227225D01*
X0111926Y0226302D01*
X0110720Y0225802D01*
X0109415Y0225802D01*
X0108209Y0226302D01*
X0107628Y0226883D01*
X0084949Y0226883D01*
X0084367Y0226302D01*
X0083161Y0225802D01*
X0081856Y0225802D01*
X0080650Y0226302D01*
X0079727Y0227225D01*
X0079228Y0228431D01*
X0079228Y0229736D01*
X0079727Y0230942D01*
X0080650Y0231865D01*
X0081856Y0232365D01*
X0083161Y0232365D01*
X0084367Y0231865D01*
X0084949Y0231283D01*
X0107628Y0231283D01*
X0108209Y0231865D01*
X0109415Y0232365D01*
X0110720Y0232365D01*
X0111926Y0231865D01*
X0113213Y0230064D02*
X0154167Y0230064D01*
X0154031Y0228466D02*
X0113349Y0228466D01*
X0112492Y0226867D02*
X0154888Y0226867D01*
X0157312Y0229083D02*
X0184871Y0229083D01*
X0182447Y0226867D02*
X0159736Y0226867D01*
X0159373Y0231663D02*
X0182810Y0231663D01*
X0178315Y0270027D02*
X0150285Y0270027D01*
X0151761Y0271625D02*
X0176839Y0271625D01*
X0176177Y0273224D02*
X0152423Y0273224D01*
X0152550Y0274822D02*
X0176050Y0274822D01*
X0176300Y0276421D02*
X0152300Y0276421D01*
X0151586Y0278019D02*
X0177014Y0278019D01*
X0178710Y0279618D02*
X0149890Y0279618D01*
X0153375Y0286170D02*
X0184871Y0286170D01*
X0183634Y0289209D02*
X0154612Y0289209D01*
X0155343Y0303887D02*
X0131721Y0303887D01*
X0133279Y0306793D02*
X0155138Y0306793D01*
X0201131Y0322863D02*
X0204556Y0319438D01*
X0211131Y0322863D02*
X0202587Y0331406D01*
X0202587Y0331446D01*
X0203086Y0327573D02*
X0203309Y0327573D01*
X0208611Y0335383D02*
X0051013Y0335383D01*
X0027014Y0278019D02*
X0025654Y0278019D01*
X0025654Y0276421D02*
X0026300Y0276421D01*
X0026050Y0274822D02*
X0025654Y0274822D01*
X0025654Y0273224D02*
X0026177Y0273224D01*
X0025654Y0271625D02*
X0026839Y0271625D01*
X0025654Y0270027D02*
X0028315Y0270027D01*
X0025654Y0262034D02*
X0060676Y0262034D01*
X0060676Y0260436D02*
X0047467Y0260436D01*
X0047104Y0260798D02*
X0036496Y0260798D01*
X0035676Y0259978D01*
X0035676Y0249370D01*
X0036496Y0248550D01*
X0047104Y0248550D01*
X0047924Y0249370D01*
X0047924Y0259978D01*
X0047104Y0260798D01*
X0047924Y0258837D02*
X0061208Y0258837D01*
X0064600Y0257239D02*
X0047924Y0257239D01*
X0047924Y0255640D02*
X0064652Y0255640D01*
X0066250Y0254042D02*
X0047924Y0254042D01*
X0047924Y0252443D02*
X0067849Y0252443D01*
X0069447Y0250845D02*
X0047924Y0250845D01*
X0047801Y0249246D02*
X0071046Y0249246D01*
X0072644Y0247648D02*
X0025654Y0247648D01*
X0025654Y0249246D02*
X0035799Y0249246D01*
X0035676Y0250845D02*
X0025654Y0250845D01*
X0025654Y0252443D02*
X0035676Y0252443D01*
X0035676Y0254042D02*
X0025654Y0254042D01*
X0025654Y0255640D02*
X0035676Y0255640D01*
X0035676Y0257239D02*
X0025654Y0257239D01*
X0025654Y0258837D02*
X0035676Y0258837D01*
X0036133Y0260436D02*
X0025654Y0260436D01*
X0025654Y0246049D02*
X0074243Y0246049D01*
X0075841Y0244451D02*
X0025654Y0244451D01*
X0056918Y0229083D02*
X0068729Y0240894D01*
X0062609Y0231663D02*
X0080448Y0231663D01*
X0079363Y0230064D02*
X0061010Y0230064D01*
X0060199Y0228466D02*
X0079228Y0228466D01*
X0080085Y0226867D02*
X0059342Y0226867D01*
X0075118Y0204488D02*
X0103482Y0204488D01*
X0101908Y0202889D02*
X0076692Y0202889D01*
X0077354Y0201291D02*
X0101246Y0201291D01*
X0101050Y0199692D02*
X0077550Y0199692D01*
X0077369Y0198094D02*
X0101231Y0198094D01*
X0101893Y0196495D02*
X0076707Y0196495D01*
X0075155Y0194897D02*
X0103445Y0194897D01*
X0110068Y0211367D02*
X0078572Y0211367D01*
X0080500Y0214079D02*
X0108140Y0214079D01*
X0107644Y0226867D02*
X0084932Y0226867D01*
X0082509Y0229083D02*
X0110068Y0229083D01*
X0108007Y0231663D02*
X0084570Y0231663D01*
X0074635Y0091288D02*
X0062824Y0079477D01*
X0212674Y0317982D02*
X0219587Y0317982D01*
X0217200Y0319581D02*
X0215061Y0319581D01*
X0215953Y0321179D02*
X0216308Y0321179D01*
X0221131Y0322863D02*
X0208611Y0335383D01*
X0216744Y0340361D02*
X0326272Y0340361D01*
X0326272Y0338763D02*
X0218342Y0338763D01*
X0219941Y0337164D02*
X0326272Y0337164D01*
X0326272Y0335566D02*
X0221539Y0335566D01*
X0223138Y0333967D02*
X0326272Y0333967D01*
X0326272Y0332369D02*
X0224736Y0332369D01*
X0226335Y0330770D02*
X0326272Y0330770D01*
X0326272Y0329172D02*
X0227933Y0329172D01*
X0226308Y0321179D02*
X0225953Y0321179D01*
X0225061Y0319581D02*
X0227200Y0319581D01*
X0229587Y0317982D02*
X0222674Y0317982D01*
X0259361Y0317982D02*
X0259587Y0317982D01*
X0272924Y0258837D02*
X0286208Y0258837D01*
X0288970Y0257239D02*
X0272924Y0257239D01*
X0272924Y0255640D02*
X0288970Y0255640D01*
X0288970Y0254042D02*
X0272924Y0254042D01*
X0272924Y0252443D02*
X0287797Y0252443D01*
X0286198Y0250845D02*
X0272924Y0250845D01*
X0272801Y0249246D02*
X0284600Y0249246D01*
D14*
X0261643Y0240894D03*
X0259674Y0229083D03*
X0257706Y0211367D03*
X0232115Y0229083D03*
X0228178Y0211367D03*
X0263611Y0166091D03*
X0261643Y0154280D03*
X0257706Y0136564D03*
X0232115Y0154280D03*
X0228178Y0136564D03*
X0263611Y0091288D03*
X0261643Y0081446D03*
X0232115Y0079477D03*
X0188808Y0091288D03*
X0184871Y0079477D03*
X0157312Y0079477D03*
X0112036Y0079477D03*
X0112036Y0091288D03*
X0082509Y0079477D03*
X0062824Y0079477D03*
X0078572Y0136564D03*
X0082509Y0154280D03*
X0062824Y0154280D03*
X0078572Y0211367D03*
X0082509Y0229083D03*
X0056918Y0229083D03*
X0078572Y0286170D03*
X0056918Y0303887D03*
X0088414Y0311761D03*
X0108099Y0305855D03*
X0112036Y0297981D03*
X0110068Y0286170D03*
X0131721Y0303887D03*
X0153375Y0286170D03*
X0163217Y0311761D03*
X0186839Y0307824D03*
X0188808Y0296013D03*
X0184871Y0286170D03*
X0186839Y0240894D03*
X0184871Y0229083D03*
X0184871Y0211367D03*
X0157312Y0229083D03*
X0153375Y0211367D03*
X0186839Y0166091D03*
X0184871Y0154280D03*
X0184871Y0136564D03*
X0157312Y0154280D03*
X0153375Y0136564D03*
X0114005Y0166091D03*
X0112036Y0154280D03*
X0110068Y0136564D03*
X0110068Y0211367D03*
X0110068Y0229083D03*
X0112036Y0240894D03*
X0228178Y0286170D03*
X0239989Y0292076D03*
X0257706Y0286170D03*
X0263611Y0297981D03*
X0261643Y0307824D03*
D15*
X0299044Y0301918D03*
D16*
X0262824Y0314123D03*
M02*
