%
M48
M72
T01C0.01500
T02C0.01575
T03C0.02362
T04C0.04000
T05C0.06299
T06C0.06900
T07C0.16100
%
T01
X179517Y343650
T02
X262824Y314123
T03
X261643Y307824
X263611Y297981
X257706Y286170
X239989Y292076
X228178Y286170
X261643Y240894
X259674Y229083
X257706Y211367
X232115Y229083
X228178Y211367
X263611Y166091
X261643Y154280
X257706Y136564
X232115Y154280
X228178Y136564
X263611Y91288
X261643Y81446
X232115Y79477
X188808Y91288
X184871Y79477
X157312Y79477
X112036Y79477
X112036Y91288
X82509Y79477
X62824Y79477
X78572Y136564
X82509Y154280
X62824Y154280
X78572Y211367
X82509Y229083
X56918Y229083
X78572Y286170
X56918Y303887
X88414Y311761
X108099Y305855
X112036Y297981
X110068Y286170
X131721Y303887
X153375Y286170
X163217Y311761
X186839Y307824
X188808Y296013
X184871Y286170
X186839Y240894
X184871Y229083
X184871Y211367
X157312Y229083
X153375Y211367
X186839Y166091
X184871Y154280
X184871Y136564
X157312Y154280
X153375Y136564
X114005Y166091
X112036Y154280
X110068Y136564
X110068Y211367
X110068Y229083
X112036Y240894
X299044Y301918
T04
X301131Y322863
X311131Y322863
X291131Y322863
X281131Y322863
X271131Y322863
X261131Y322863
X251131Y322863
X241131Y322863
X231131Y322863
X221131Y322863
X211131Y322863
X201131Y322863
X180371Y354123
X179371Y364123
X180371Y374123
X201131Y382863
X211131Y382863
X221131Y382863
X231131Y382863
X241131Y382863
X251131Y382863
X261131Y382863
X271131Y382863
X281131Y382863
X291131Y382863
X301131Y382863
X311131Y382863
T05
X41800Y29674
X66800Y39674
X116800Y29674
X141800Y39674
X191800Y29674
X216800Y39674
X266800Y29674
X291800Y39674
X266800Y104674
X291800Y114674
X266800Y179674
X291800Y189674
X266800Y254674
X291800Y264674
X216800Y264674
X191800Y254674
X141800Y264674
X116800Y254674
X66800Y264674
X41800Y254674
X66800Y189674
X41800Y179674
X66800Y114674
X41800Y104674
X116800Y104674
X141800Y114674
X191800Y104674
X216800Y114674
X191800Y179674
X216800Y189674
X141800Y189674
X116800Y179674
T06
X106800Y199674
X71800Y199674
X31800Y199674
X31800Y124674
X71800Y124674
X106800Y124674
X146800Y124674
X181800Y124674
X221800Y124674
X256800Y124674
X296800Y124674
X296800Y49674
X256800Y49674
X221800Y49674
X181800Y49674
X146800Y49674
X106800Y49674
X71800Y49674
X31800Y49674
X146800Y199674
X181800Y199674
X221800Y199674
X256800Y199674
X296800Y199674
X296800Y274674
X256800Y274674
X221800Y274674
X181800Y274674
X146800Y274674
X106800Y274674
X71800Y274674
X31800Y274674
T07
X51800Y274674
X51800Y199674
X51800Y124674
X51800Y49674
X126800Y49674
X126800Y124674
X126800Y199674
X126800Y274674
X201800Y274674
X201800Y199674
X201800Y124674
X201800Y49674
X276800Y49674
X276800Y124674
X276800Y199674
X276800Y274674
M30
